<svg xmlns="http://www.w3.org/2000/svg" viewBox="0 0 170.38 170.38"><g><g><circle cx="85.19" cy="85.19" r="85.19" fill="#0f7174"/><path d="M134.15 91.71C132 90.34 125.9 82.45 126.22 81s-5.71-18.89-6.34-17.62-10.15-1.9-13.32-3.18-3.17 8.26-6.91 3.18S88.15 59 90.06 58.35s1.27-3.17 1-4.44-7.3-2.54-11.39 0-11.77 2-11.77 2S65.32 65 62.14 64.69s-11.1 11.1-10 11.74 1.13 11.1.18 13.64 1.9 1.27 6.66 7 7.3 3.2 10.78 4.37 3.81-1.49 9.86-1.89 5.22 1.89 5.22 1.89 6.8-5.93 4.58 3.23 1.9 5.12 3.51 9.24 1.57 10.47.3 14.91a8.16 8.16 0 0 0 1.9 7.61s-.32 5.71 1.59 7 2.93 7 2.93 7c2 1.94 11-1.94 13.57-2.56s0-4.46 4.76-6.36 3.49-6.66 3.49-8.66 3.81-5 6.66-5.93 1-5.39 0-9.3 5.08-12.59 9.52-16.16c0 0 3.23-2.1 3.37-4.59s1.32-1.28 1.57-4.06-.28-2-.61-1.75-2 .21-3.06 1S136.94 93.52 134.15 91.71zM28.75 148.72c.23-1.35.42-3.27-.29-3.73-1.12-.73 2.8-2.13 4.2-1.57S36 137 34.34 133.9c0 0 5.49-3.36.65-6.72s-4.85-5-8.49-4.76-1.68-2.24-5-2.8 1.4-3.64-2.24-5.88-9.24-3.92-9-6.16S6.9 101.1 4.1 101.4c-.92.1-1.24 2.4-1.24 5.45A85.18 85.18 0 0 0 28.75 148.72z" fill="#50b795"/><path d="M139.94,19.92a16.93,16.93,0,0,1-3.44-1.41c-.78-.89-6.12-2.91-7.46-2.25s-2.11-.23-4.17-.57-2.17.77-1.17,1.56c0,0-3.78-.91-3.78-1.63,0,0-.78.73,1.78,1.85,0,0-4,0-4.67-3,0,0-3.45-1.35-2.22-1.34s4.67,2.46,7.68,2.14-3.45-2.79-4.56-3.58-5.79-1.91-7.79-2.36c0,0,1.45-.11,1-.67s-1.45-.45-2.45,0c0,0,.78-1.64-.89-.38a1.13,1.13,0,0,0-1.78.15s-.11-1.49-2-.64-1.33-.71-4.9.73-1-.23-4.91,2.1-1.45,1.78-1.45,1.78a8.8,8.8,0,0,1-3.23,1.44c-1.34.11-.34.78-1.34,1s-2.23,1-3.23,1.11-2,1.67-1.68,2.11,1.22,2.12.55,2.12.78.6.44,1.08,2.45.71,5.57-.73c0,0,1.34-.22,1.78,1.56s1.78,2.23,1.55,3.23,1.22.56,2.12-.22,1.7.34,2.25-1.67.74-2,2.21-2.78.79-1.11-1.65-1.67c0,0-.24-2.56,1.67-3.23s3-1.22,3.14-2.78,6.24.8,3.89,1.46-5.13,2.21-3.46,4.22a4.75,4.75,0,0,0,4.79,1.68,40.48,40.48,0,0,1,5.68.24l.11.74s-1.56-.71-2.23,0-1.78-.49-3.34,0-2.45.14-1.12,1.82-.45,1.89-1.12,1.11-.89-1.67-2.67,0,.77,2.9.77,2.9h-2s-.9,1.7-2.11-.55a6.32,6.32,0,0,1-3.79,1.2l-.78.56S93.59,27,92,27.43a2.74,2.74,0,0,1-3.23-.88c-.78-.91,1.56-1.57,1.68-2s-.22-1.11-.78-.67.67-1.33-.33-1.34-1.79,2.22-2.12,2.22,1.22,2.56.66,3.45S87,28,87,28s-1.56.22-1.56.78-1.34,0-1.34,0a1.05,1.05,0,0,0,0,1.34c.56.67-1.34.22-1.45-1s-.23,2-.78,2-1.4,1.44-3,1.11-.79,2-.79,2-1.13-1-1.36,0-.78,1.4-1.78.51-1.11-.51-1.11-.51.89,1.74,0,1.62-1.33-.67-2.78-.12-1.34,1.44,0,1.56,2.34.34,2.45,1,1.67,1,1.11,1.9,0,1.45-.34,2.45-.67,1.67-1.84,1.22-3.17.1-3.73-.34-1.45.44-2.12.33-1.89-.78-3.12.77c0,0,1.11.56.66,1.56s.66,1.9-.68,3.12-.23,2,0,2.12-.9,2.89,1.55,2,1.66,2.45,3.9.9,2.67.56,4.12-.77,1.23-1.81,3-3c0,0-1.33-1,.56-2.38s-1.67-.56,3.23-2c0,0,.45,0,.34-2s3.12-.55,3.68,0S87.32,41,89.1,42.35s1.33,2.34,3,3.35A14.52,14.52,0,0,0,95,46.93c.33.22,0,1,1.33,1.23.91.15.73.41.53.56a2.1,2.1,0,0,1,.6.67c.76,1.12.79,1.78,0,2.23s.76,1,.87.78.2-1.33,1.33-1.33-.54-1.34-.54-1.34-.69-1.78.55-1,2.46.34,1.68-.22S98.78,46.6,98,46.6s.48-.56-.54-.67-2.8-.79-2.69-1.9-2-1-2-1.79,0-2.23,1.45-1.89-.45,2.23,2.12.45a3,3,0,0,0,2.55,3c2.56.34.78,1.12,3,1.9s-.11,1.11.77,2.79,2.78,2.23,2.67,3,1.23-.34,3.23.9c0,0,1.11-.24-1.33-1.74,0,0,.89-.26.45-.6s-1.33-1-.78-1.78.33,1.45,2,.78c0,0-.89-1.12.23-1.11s3.45-.33,3,1.23.33,1.65.78,1.49-1,1.4-.34,1.74,1.56,1.23,1.33,1.68,1.67.78,2.11.56-.45,1.56,1.56.45,1.34-.33,2.34.34,1.56.23,2.56-.33,1.11.45,2,.34c0,0-.45,2.11.21,3.12S124,57.69,123,62.7c0,0,.1,5.38,1.71,5.14,0,0,2.51,3.91,2.51,4.75s3.07,2.81,2.51,5.33,2.23,2.81,4.18,6.17-1.7,6.72,4.19,4.49,5-3.91,7.57-4.46,4.49-4.85,3.93-5.5,3.28-1.76.1-3.45l-3.17-1.69s-3.58.55-3.74-1.13-4.29-4.79-2.92-5.9,2.76,2.41,4.71,4.72,1.4-.9,2.8,0,7,3,9.34,2.4c0,0,1.11,3.12,3.11,3.35,0,0-2,.33,0,2.67a2.16,2.16,0,0,0,1.34-1.78C161.3,76.5,162.27,89,163.7,94c0,0,1.56-1.54,1.69-6.1s2.47-8.9,3.7-9.12c0,0,.32,6.11,1.21,6.73a.07.07,0,0,0,.08,0c0-.09,0-.19,0-.28A85,85,0,0,0,139.94,19.92Zm-9.65,28.73c-.67,1-1.11,0-2.12.45a3.91,3.91,0,0,1-3.9-1.08c-.89-1.08-2.56-1.37-5.28-.26S113.58,46,113.58,46a6,6,0,0,0,1.11-3c1.67-.11.45-1.11,1.78-2.23s1.89-1,1.78-.22,3,.45,4.79.33,1.11-1.11,2.9-1,.22.67-.45.89,1.23.78,0,1.56.33,1.45.89,1.67,2.23,1.56,3.12,2A1.87,1.87,0,0,1,130.29,48.66Zm14.14,3c-.56-.22-2.12-.9-1,.78a8.25,8.25,0,0,1,1,4.24s-2,1.11-4.5-1.11-.18-2,.49-4.23c0,0-1.59-.22-1.63-1.45s-1.71-1.56-1.71-2.34a4.61,4.61,0,0,0-1.23-3c-1-1.25,2.8-1.36,4.08-2.14s2.38,1.28,1.72,2.14-1.06-.14-1.59,1,1,1.23,1.14,2.23,1.56.11,1,1.83.1.94.66,0S145,51.89,144.43,51.66Z" fill="#50b795"/><path d="M69.35,34.08s.42-.62,1.89-.49-.31-.65,1.18-.75,1.53.46,2.21,0,2.35,0,3-.49.69-.78-.49-.78c0,0,1.63-.56,1.4-1.34s-.62-.72-.91-.69-.95.69-1.11.42.49-.72.36-.95-.72-.33-.78-.95-1.57-.72-1.6-1.21a1.48,1.48,0,0,0-1.31-1.63l-.5-.11a1.64,1.64,0,0,1,.79-.77c.52-.2.95-1.24.65-1.44s-.65,0-1.14,0-2.19.13-1.53-.33,1.4-.42,1.47-.85-.52-.16-.95,0-1,.26-1,.1-.29-.33-.29-.33-.39.26-.33.43-.33.46-.26.65-.88.59-.75.29c0,0,.36.69.13.95s-.75.88-.46.95a1,1,0,0,0,.65-.23,2,2,0,0,1-.23.75c-.2.33.91,0,1.24-.2,0,0,.1.36-.42.52s.33.42.23.52-.85,1.11-.23,1,1.6-.1,1.8-.42.36.59,0,.65.16.62.75.56c0,0-.64.69-.38,1.08,0,0-1.54-.1-1.8.59,0,0-.23.29.23.36s-.1.88-.49.75-1,.49-.69.62a6.94,6.94,0,0,0,1.37.2c.29,0,1.13.29,1.38,0,0,0,.29.52-.56.65s-1-.42-1.44.26-1,1.18-1.18,1-.78.1-.52.29A1.69,1.69,0,0,0,69.35,34.08Z" fill="#50b795"/><path d="M67.19 31s1.12-.06 1.35-.9-.7-1.54-.34-1.71 1.09-.31.93-1-.12-.84-1-.84-.73.42-1.09.42-.5-.53-.79-.42-.56.28-.48.59-.62.14-.34.28.37.35-.07.43-.16.36-1.11.22-.9.25-.79.31.5.42.36.53-.59.36-.31.59 1.49 0 1.09.36-.56-.22-.62.34c0 0 .34.2.14.31s-.5.39-.48.5-.28-.14-.67 0-.08.5 0 .53.9.36.84.59.45-.11.73-.22a9.64 9.64 0 0 0 1.57-.56A3.08 3.08 0 0 1 67.19 31zM134.56 135.84s4.15-8.06 3.91-8.77.38-.59 0-2.13c0 0 1.59 1.3 1.44-.71s-1.1-2.37-1.1-3-.08 1.19-1.58 2-.32 1.54-.79 2-3.44.71-3.68 1.78.36 2.13 0 3.08a10.88 10.88 0 0 1-1.66 3.32c-.83.95 0 .71 0 1.42s.24 2.37 1.3 2.25S133.73 135.84 134.56 135.84zM1.6 79.82c0 1.64 1 7.15 1.25.6s-.66-5.36 1.28-7.3.45-6.26 1.94-8.2 2.09-2.09 2.68-4.62 3.13-3.73 3.43-2.38-.45 2.19 2.38-.92 3.11-4.79 0-2.21 1.19-1.62.3-2.3-1.94-.23-3 .66-.15-1.07 2.09-2.4 5-2.67 5.95-3.71 2.25-1.73 2.25-2.43 0-2.89-1.49-2.31S18 41.08 18.59 40.63s.45-3.43-.45-3.87c0 0-.3 2.55-2.38 3.14 0 0 1-2.1 0-2.1a3.88 3.88 0 0 0-1.74.61q-1 1.45-1.85 2.94a7.7 7.7 0 0 1-1.77 3.91c-1.64 1.64-1.79 6.26-2.68 6.41-.2 0-.4-.19-.59-.57A84.69 84.69 0 0 0 .23 79C.69 78.79 1.6 78.6 1.6 79.82z" fill="#50b795"/><path d="M17.9 52.11a8.54 8.54 0 0 0 2.56-.66c.91-.5-.25.58 0 1s1.71-1.12 1.71-1.12.11 1.62.86 1.12-.41-1.07-.5-1.74.74-.91.74-.91h-1.1s1.52-.66 1.1-1.07-2 .33-2 0a2.11 2.11 0 0 1 .88-2.4s-.8-.74-2.29 1.41S19.07 50.7 17.9 52.11zM30.63 20.81c-1.27.74-2.43 3.49-2 3.7s.14 1.78-.09 2S29.89 29 31.9 28.32s2.75-.51 3.07.11.85-.79 2.43-.61c0 0 0-2.15.85-2.36s.53-1.37 0-1.59 1.9-1.69 2.64-3.07.32-2.64 2.64-3.07 5.6-3.17 5.82-4 .5-1.59 2.68-1.8 5.25-3.37 5.67-4.38-.74.47-3 .89c0 0 2.85-1.27 2.22-1.69s-2.86.75-3.91.8 3-1 3.07-2.42A85.06 85.06 0 0 0 31.6 19 2.84 2.84 0 0 1 30.63 20.81zM52 17.17a29.55 29.55 0 0 0 5.31-.91c1.72-.61 3.65-1.12 4-1.93s-.3-.71-1-.71-.3-.51-1.12-.91S57.24 14.33 56 14.22a3.34 3.34 0 0 0-2.54.68c-.51.43-.79-.89-1.46-.58s-1.48 1.61-1.79 1.46 1.83.67 1 .87S52 17.17 52 17.17z" fill="#50b795"/></g></g></svg>