<svg xmlns="http://www.w3.org/2000/svg" viewBox="0 0 289.41 78.48"><g><g><g><g><g fill="#fff"><path d="M127.46,31.65c0-9.67-7.2-16.42-22-16.42H95.66v46.5h7.5V48.22h2.33c14.7,0,22-6.37,22-16.58Zm-7.28,0c0,6.75-5.25,10.5-12.9,10.5h-4V21.3h4c7.65,0,12.9,4,12.9,10.35ZM148.64,36c.53-2.18.68-3.9,1.13-6.08a14.45,14.45,0,0,0-1.8-.08c-3.52,0-6.9,2-7.95,5.25V30.37h-6.75V61.72H140V48.15c0-6.6,1-12.15,8.1-12.15Zm36,10.2c0-10.35-7.12-16.27-16.2-16.27s-16.2,5.92-16.2,16.2,7.2,16.13,16.2,16.13,16.2-5.85,16.2-16.05Zm-6.82,0c0,6.53-4.12,10.13-9.45,10.13-5.1,0-9.37-3.6-9.37-10.2s4.27-10.28,9.38-10.28c5.32,0,9.45,3.75,9.45,10.35ZM198,61.72V14.55l-6.75,1.35V61.72Zm17.05,0V30.37H208.2V61.72Zm.68-40.87c0-2.4-1.8-3.75-4.12-3.75s-4.05,1.35-4.05,3.67a3.76,3.76,0,0,0,4.05,3.83c2.32,0,4.13-1.42,4.13-3.75Zm27.63-5.77a35.36,35.36,0,0,0-5.47-.53c-5.93,0-10.58,2.63-10.58,11.47V30.3h-3.9l-1.5,5.63h5.48v25.8h6.75V35.92H241V30.3h-6.9V26c0-4.12,1.27-5.77,4.57-5.77a15.8,15.8,0,0,1,3.6.45Zm10.93,46.65V30.37h-6.82V61.72Zm.68-40.87c0-2.4-1.8-3.75-4.12-3.75s-4.05,1.35-4.05,3.67a3.76,3.76,0,0,0,4.05,3.83c2.32,0,4.13-1.42,4.13-3.75Zm22.7,41.4a21.23,21.23,0,0,0,11.77-3.6l-3.07-5.47a14,14,0,0,1-8.7,3.22c-5.62,0-9.83-3.83-9.83-10.42s4.35-10.2,9.9-10.2a15.94,15.94,0,0,1,9.22,3.3l1.43-6a19.84,19.84,0,0,0-10.73-3.3c-9.52,0-16.5,6.08-16.5,16.28,0,10,7,16.2,16.5,16.2Z"/><g><path d="M50.76,15.08a12.42,12.42,0,0,0-1.54-1.81,13.82,13.82,0,0,0-10-3.8,13.62,13.62,0,0,0-10.12,3.87,12.59,12.59,0,0,0-2.57,3.74l-1.1,0a27.07,27.07,0,0,0-11.07,2.19A23.05,23.05,0,0,1,21.1,7.09Q28.28,0,39.32,0,50.52,0,57.5,7.07A23.79,23.79,0,0,1,63.57,17,29.44,29.44,0,0,0,53,15c-.75,0-1.5,0-2.24.09"/><path d="M25.28,26.52a13.61,13.61,0,0,0-10.12,3.87,13.72,13.72,0,0,0-3.83,9.9,13.72,13.72,0,0,0,3.83,9.9A13.24,13.24,0,0,0,24.07,54c.4,0,.8,0,1.21,0h.58v9.48H25.4q-11,0-18.23-7.09A22.56,22.56,0,0,1,0,40.29,22.57,22.57,0,0,1,7.18,24.15q7.18-7.09,18.23-7.09a26.8,26.8,0,0,1,11.86,2.52,25.41,25.41,0,0,0-7.59,7.52A16.24,16.24,0,0,0,25.28,26.52Z"/><path d="M27.86,40.88v37.6H39.09l.09-38.19,0-.59a13.27,13.27,0,0,1,3.91-9.38,13.81,13.81,0,0,1,10-3.8A13.2,13.2,0,0,1,67.08,40.29a13.73,13.73,0,0,1-3.83,9.9A13.25,13.25,0,0,1,54.34,54c-.4,0-.8,0-1.21,0s-.84,0-1.19,0H41.13v9.5H53q11,0,18.23-7.09a22.55,22.55,0,0,0,7.18-16.14,22.56,22.56,0,0,0-7.18-16.15Q64.05,17.06,53,17.06q-11.2,0-18.18,7.07a22.45,22.45,0,0,0-7,15.57Z"/></g></g></g></g></g></g></svg>