<svg xmlns="http://www.w3.org/2000/svg" viewBox="0 0 280.73 280.73"><g><g><circle cx="140.36" cy="140.36" r="140.36" fill="#fff"/><path d="M275.77,103.47,164.9,63.82,132.73,230,118,233.59l39.61,46.07A140.46,140.46,0,0,0,275.77,103.47Z" fill="#ededed"/><path d="M140.26,280.73a139.76,139.76,0,0,0,87-30.17l-4.66-34.69h.06l-2.45-5.59A31.06,31.06,0,0,0,201.54,195v-.21l-51.11-17.67c0-.33-.06-.67-.11-1a1.36,1.36,0,0,1,0-.21l-.4-.15-1.69.59-1.69-.59-.4.15a1.36,1.36,0,0,1,0,.21c0,.33-.07.67-.11,1L95.61,194.79c-13.27,3.45-19,14.34-21,19L65.71,259.3A139.7,139.7,0,0,0,140.26,280.73Z" fill="#25547d"/><path d="M95.61,194.79c-13.27,3.45-19,14.34-21,19L65.71,259.3q5.42,3.4,11.16,6.32c3.7-18.17,8.37-41.14,8.44-41.7.56-4.43,5.55-31.48,38.09-35.46.49-.28,1-.5,1.47-.76,0-1-.06-2.09-.06-3.14Z" fill="#000100" opacity=".1"/><path d="M113.29,137.69l7.77,7.78c0,17.64,21.53,31.94,31.92,31.94a31.93,31.93,0,0,0,31.92-31.94V91.93l-74.33,19.48Z" fill="#ebb9a0"/><path d="M130.12,193.88c0,10.51,21.65,13.13,21.65,13.13,10.5,0,16.38-2.62,16.38-13.13V151.3h-38Z" fill="#ebb9a0"/><path d="M141.65,171.68c12.61,13.15,26.5,5.35,26.5,5.35v-3.42C156.29,180.45,141.65,171.68,141.65,171.68Z" fill="#000100" opacity=".1"/><path d="M151.32,75.19s-42.56-4.1-42.56,38.49c0,12.72,7.24,42.14,21.28,51.65l-5.43-23.83s-9,1.24-9-17.11c0-6.7,2.67-6.88,4.76-6.88,2.82,0,4.93,4.23,4.93,4.23h3.36v-4.93A11.19,11.19,0,0,1,140,105.62l11.59-.55C147.93,99.31,151.32,75.19,151.32,75.19Z" fill="#fed168"/><path d="M155.23,74.72l-9.34.45-7,30.47s23.32,1.7,31.24-9.17c0,0,14.79,16.88,14.79,28.77,0,0,6-7,6-22.65C190.93,102.58,190.54,74.72,155.23,74.72Z" fill="#fed168"/><path d="M169.25,142.92h-8.81c6,8.82,11.63.94,11.63.94l-3.52-24.22Z" fill="#000100" opacity=".1"/><path d="M130.17 174.08s-18.09 7.91-21.71 10.17-3.39 7.46-3.39 7.46 2.88 21.7 36 34.59a8 8 0 0 0 9.33-3.56c3.56-5.59 4.24-16.11 4.24-16.11S129.33 208.49 130.17 174.08zM189.3 185.16c-3.62-2.26-21-10.4-21-10.4.85 34.41-13.34 31.87-13.34 31.87s.68 10.51 4.24 16.11a8 8 0 0 0 9.33 3.56c23.18-12.88 24.2-33.68 24.2-33.68S192.92 187.42 189.3 185.16z" fill="#e66b74"/><path fill="#93182e" d="M148.09 206.63H153.52V268.9H148.09zM155.55 206.63H160.98000000000002V268.9H155.55z"/><path fill="#000100" opacity=".1" d="M99.93 274.81L99.33 266.38 97.39 274.03M206.78 264.05L205.81 256.47 205.16 264.91"/><path d="M108.28,277a140.48,140.48,0,0,0,27.63,3.61l7.75-75.39-16.48-22.92Z" fill="#e66b74"/><path d="M162.94,278.85,156,208.13l-20.7-19.19.27,91.72c1.47,0,2.94.08,4.42.08A141.33,141.33,0,0,0,162.94,278.85Z" fill="#df3b57"/><path d="M125,169.78l-6.1,15.6s4,12.51,12,17.18c36.18,21.25,47-14.47,47-14.47l-1.36-17.63C149.39,188.09,125,169.78,125,169.78Z" fill="#ed9496"/><path d="M158.27,62.72c-41-4.39-58.82,17.1-60.06,41.15-.72,13.92,4.25,23.29,7.89,29.51,5.07,8.66,9.49,11.18,9.49,11.18s-12.89-27.24,6.95-40.68,54.6-18.06,68.4-1.29C190.93,102.58,197.4,66.91,158.27,62.72Z" fill="#df3b57"/></g></g></svg>