<svg xmlns="http://www.w3.org/2000/svg" viewBox="0 0 121.78 121.78"><g><g><circle cx="60.89" cy="60.89" r="60.89" fill="#fff"/><path d="M119.63,44.89l-54-32.79-9,99.95-7.3,3.77,19.1,5.51a60.93,60.93,0,0,0,51.25-76.43Z" fill="#ededed"/><path d="M42.36,31.41l-1.44-2-2-4.78a.38.38,0,0,1,.22-.49l.1,0a.38.38,0,0,1,.48.2L41,27l-1.35-3.76a.42.42,0,0,1,.25-.52h0a.42.42,0,0,1,.53.22l1.68,3.72L40.63,22.3A.55.55,0,0,1,41,21.6h0a.55.55,0,0,1,.71.31l1.64,4.22-.93-3.87a.52.52,0,0,1,.37-.62h0a.52.52,0,0,1,.64.35l1.27,4.23.54-1.43a.47.47,0,0,1,.76-.18h0a.47.47,0,0,1,.14.41l-.59,4.29a3.5,3.5,0,0,1-.42,1.43" fill="#c39276"/><path d="M45.3 29.47l.56-4a.44.44 0 0 0-.14-.39h0a.44.44 0 0 0-.72.17l-.51 1.35a3.35 3.35 0 0 0-1.92 2.27C42.16 30.54 44.26 30.88 45.3 29.47zM77.63 48.24l-1.53-12-5.65-3.57L73.32 47.4l1.72 13h0l-.76 3L74 66.74c.81 0 1.13-1 1.23-1.71s.62-.48.62-.48.27 3.64.35 4.45a.64.64 0 0 0 .83.61l1.14-1.42.69-3.11-1.08-4.82zM54.16 39.78l-2 7a1.53 1.53 0 0 1-1.8 1.07 6.09 6.09 0 0 1-4.47-3.95l-2.93-9.18-.69-3.5 2.81-.7L46.11 34l2.82 7.44.5-2.73" fill="#c39276"/><path d="M50.41,46.7l-2.93-2.88-4.2-9.47-1-3.09.62,3.29,3,9.4a6.37,6.37,0,0,0,3.27,3.55,10.38,10.38,0,0,0,1.47.46" fill="#000100" opacity=".1"/><path d="M77.07,38.69l-1.85-6.51h0l0-.14,0-.07h0a4.62,4.62,0,0,0-3.25-2.82l-8.73-3.27v-.06a.18.18,0,0,1,0,0l-.06,0-.11,0-.11,0-.06,0a.17.17,0,0,1,0,0v.06L54.1,29.16A4.62,4.62,0,0,0,50.84,32h0l0,.07,0,.14h0l-1.85,6.51c.26.09,3.52.74,5.47,1.14l.15,10.87-.49,6.67h0l-.13,5.92c6-.07,11.9-.08,17.85-.08l-.25-5.87h0l-.69-6.58.35-10.85C73,39.54,76.79,38.78,77.07,38.69Z" fill="#fed168"/><path d="M71.52,57.33l-.69-6.58.06-1.89c-5.45,0-10.91,0-16.36.16l0,1.67-.49,6.67h0l-.13,5.92c6-.07,11.9-.08,17.85-.08l-.25-5.87Z" fill="#0f7174"/><path d="M75.22,32.18l0-.14,0-.07h0a4.62,4.62,0,0,0-3.25-2.82l-8.73-3.27v-.06a.18.18,0,0,1,0,0l-.06,0-.11,0-.11,0-.06,0a.17.17,0,0,1,0,0v.06L54.1,29.16A4.62,4.62,0,0,0,50.84,32h0l0,.07,0,.14h0l-1.85,6.51c.26.09,3.52.74,5.47,1.14l0,2.82c5.55-.18,11.11-.2,16.66-.16l.08-2.57c1.86-.37,5.61-1.13,5.89-1.22l-1.85-6.51Z" fill="#50b795"/><path d="M50.84,32h0l0,.07,0,.14h0l-1.85,6.51a11.78,11.78,0,0,0,1.36.3s1.56-5.81,2.11-7c.85-1.88,6.47-4.15,7.76-4.55a3.69,3.69,0,0,1,0-.51L54.1,29.16A4.62,4.62,0,0,0,50.84,32Z" fill="#000100" opacity=".1"/><path d="M54,59.55l-.23,9.53,2.82,43.11,3.76.38,1.89-43.88.87,0,5,43.54,3.76.38,0-44.33-.33-8.73C71.56,59.51,54.11,59.61,54,59.55Z" fill="#25547d"/><path d="M68.36,112.07l-2.67,1.75a2.37,2.37,0,0,0-2.36,2h9.18a6.93,6.93,0,0,0-.57-3.74Z" fill="#382422"/><path d="M57.53,21.24a4.58,4.58,0,0,0,4.58,4.58c2.53,0,5.2-3,5.2-5.5l0-4.61H57.53Z" fill="#c39276"/><path d="M59.93,28.18a2.73,2.73,0,0,0,5.46,0V22.07H59.93Z" fill="#c39276"/><path d="M63.41,12.13h-7c0,3.51,1.14,3.57,1.14,3.57h6a1.38,1.38,0,0,1,1.45,1.45h0v1.41h.73S66,18,66.38,18s.66,0,.66,1c0,2.53-1.24,2.36-1.24,2.36l-.4,3c2.19-1.15,2.35-5.08,2.35-5.08V15.64C67.75,11.54,63.41,12.13,63.41,12.13Z" fill="#81452b"/><path d="M59.93 25.26v.52A3.36 3.36 0 0 0 64 25S61.73 26.3 59.93 25.26zM59.7 17.46l-.49 3.35s.78 1.09 1.61-.13H59.6z" fill="#000100" opacity=".1"/><path d="M56.41,112.07l-4.15,1.75a2.37,2.37,0,0,0-2.36,2H61a6.93,6.93,0,0,0-.57-3.74Z" fill="#382422"/><path fill="#000100" opacity=".1" d="M71.62 59.49L54.01 59.55 53.78 69.08 56.6 112.19 57.16 112.06 54.91 68.29 55.09 60.78 71.62 59.49z"/><path fill="#000100" opacity=".1" d="M63.67 68.6L63.12 68.64 65.36 87.89 68.15 112.19 69.12 112.06 66.05 87.7 63.67 68.6zM54.4 39.83L54.55 50.7 54.14 56.11 54.01 59.55 54.98 59.54 55.45 50.71 54.98 37 54.4 39.83zM71.18 39.91L71.84 39.77 71.04 36.91 71.18 39.91zM73 39.53l-1.2.26 1.48 7.6 1.71 13-.76 3L74 66.74s.22.18.64-.29l.28-2.82.75-3.48L74.43 47.1z"/></g></g></svg>