<svg xmlns="http://www.w3.org/2000/svg" viewBox="0 0 80.03 80.03"><g><g><circle cx="40.02" cy="40.02" r="40.02" fill="#fff"/><path d="M80,40.1a39.83,39.83,0,0,0-4.25-17.94L50.32,12.48,32.61,60.54,63.89,72.21A40,40,0,0,0,80,40.1Z" fill="#ededed"/><rect x="42.62" y="11.83" width="8.84" height="19.58" rx="2.81" ry="2.81" transform="rotate(20.38 47.048 21.637)" fill="#3c3c3b"/><path transform="rotate(20.38 41.945 35.419)" fill="#fed168" d="M39.31 17.85H44.52V52.95H39.31z"/><path transform="rotate(20.38 44.928 36.52)" fill="#df3b57" d="M43.68 18.96H46.14V54.06H43.68z"/><path transform="rotate(20.38 38.929 34.295)" fill="#df3b57" d="M37.7 16.74H40.160000000000004V51.84H37.7z"/><path transform="rotate(20.38 48.253 18.434)" fill="#50b795" d="M43.81 17.87H52.650000000000006V18.990000000000002H43.81z"/><path fill="#fed168" d="M31.66 50.31L32.61 60.46 39.95 53.39 31.66 50.31z"/><path fill="#3c3c3b" d="M32.46 58.95L32.6 60.46 33.63 59.48 32.46 58.95z"/></g></g></svg>