<svg xmlns="http://www.w3.org/2000/svg" viewBox="0 0 80.03 80.03"><g><g><circle cx="40.02" cy="40.02" r="40.02" fill="#fff"/><path d="M59.13,23.76,18.19,51.68l45.7,20.54A40.05,40.05,0,0,0,79.22,32.07" fill="#ededed"/><path d="M59.13,23.76H33a3.84,3.84,0,0,0-3.84,3.84V41A3.84,3.84,0,0,0,33,44.81H52.78c2.56,2.83,5.9,5.67,9,5.67,0,0-2.76-.91-4.07-5.67h1.41A3.84,3.84,0,0,0,63,41V27.6A3.84,3.84,0,0,0,59.13,23.76Z" fill="#fed168"/><path d="M51.09,26.65H25a3.84,3.84,0,0,0-3.84,3.84V43.87A3.84,3.84,0,0,0,25,47.71H44.73c2.56,2.83,5.9,5.67,9,5.67,0,0-2.76-.91-4.07-5.67h1.41a3.84,3.84,0,0,0,3.84-3.84V30.49A3.84,3.84,0,0,0,51.09,26.65Z" fill="#df3b57"/><path d="M44.33,30.62H18.19a3.84,3.84,0,0,0-3.84,3.84V47.83a3.84,3.84,0,0,0,3.84,3.84H38c2.56,2.83,5.9,5.67,9,5.67,0,0-2.76-.91-4.07-5.67h1.41a3.84,3.84,0,0,0,3.84-3.84V34.46A3.84,3.84,0,0,0,44.33,30.62Z" fill="#0f7174"/></g></g></svg>