<svg xmlns="http://www.w3.org/2000/svg" viewBox="0 0 121.78 121.78"><g><g><circle cx="60.89" cy="60.89" r="60.89" fill="#fff"/><path d="M95.51,111a60.82,60.82,0,0,0,26.25-50.08L99.6,32.39,94.28,92.84l-4.8,1.84" fill="#ededed"/><path d="M26.61,33h5.61a1.26,1.26,0,0,1,1.26,1.26v2.54a1.26,1.26,0,0,1-1.26,1.26H27.8a3.48,3.48,0,0,1-2.17,1.36s.66-.22,1-1.36h0a1.26,1.26,0,0,1-1.26-1.26V34.31A1.26,1.26,0,0,1,26.61,33Z" fill="#fed168"/><path d="M88.09,33.53H82.48a1.26,1.26,0,0,0-1.26,1.26v2.54a1.26,1.26,0,0,0,1.26,1.26H86.9A3.48,3.48,0,0,0,89.07,40s-.66-.22-1-1.36h0a1.26,1.26,0,0,0,1.26-1.26V34.8A1.26,1.26,0,0,0,88.09,33.53Z" fill="#25547d"/><path d="M75,24.65h8.32a1.9,1.9,0,0,1,1.9,1.9V30.5a1.9,1.9,0,0,1-1.9,1.9H78.13c-1.27,1.4-2.92,2.81-4.46,2.81,0,0,1.37-.45,2-2.81H75a1.9,1.9,0,0,1-1.9-1.9V26.56A1.9,1.9,0,0,1,75,24.65Z" fill="#df3b57"/><path d="M42.5,24h-9.9a1.45,1.45,0,0,0-1.45,1.45v5.07A1.45,1.45,0,0,0,32.61,32H40.1c1,1.07,2.23,2.15,3.41,2.15,0,0-1-.34-1.54-2.15h.53A1.45,1.45,0,0,0,44,30.51V25.45A1.45,1.45,0,0,0,42.5,24Z" fill="#0f7174"/><path d="M100,94.68c0-.07.06-.14.08-.21a4.22,4.22,0,0,0,.09-1.4,2.06,2.06,0,0,0-.12-.63h.31a4.16,4.16,0,0,1,.34,2.24" fill="#000100" opacity=".1"/><path d="M85.54,60.69h0l.1-.3a2.18,2.18,0,0,0,1.59.51l-.18.39-.12,1.89-.45,1.92c-.47-.13-.46-.78-.39-1.19s-.27-.39-.27-.39-.81,2-1,2.46a.38.38,0,0,1-.58.2l-.39-1L84,63.28Z" fill="#ebb9a0"/><path d="M86.64,61.07c0-.06,0-.13,0-.19a2.14,2.14,0,0,0,.57,0l-.18.39-.12,1.89-.45,1.92a.46.46,0,0,1-.17-.09,25.5,25.5,0,0,0,.26-3.42S86.61,61.21,86.64,61.07Z" fill="#000100" opacity=".1"/><path d="M100.18,60.86l.2,5.25,0,26.62-2.26-.23-3-26.15-.52,0L93.41,92.73l-2.26-.23L89.46,66.61l.14-5.72C89.66,60.93,100.14,60.87,100.18,60.86Z" fill="#50b795"/><path fill="#000100" opacity=".1" d="M100.18 60.86L100.38 66.55 100.37 92.43 100.05 92.43 99.45 61.33 89.59 61.08 89.6 60.89 100.18 60.86zM99.56 47.6L99.9 49.14 99.7 55.61 100.12 59.64 100.18 60.86 99.45 60.84 99 55.58 99.45 49.22 99.56 47.6z"/><path fill="#000100" opacity=".1" d="M94.55 66.38L93.43 92.43 92.98 92.43 94.4 66.37 94.55 66.38z"/><path d="M87.7,44.33h0a2.77,2.77,0,0,1,2-1.69l5.25-2v0a.12.12,0,0,0,0,0h0l.07,0,.07,0h0a.11.11,0,0,0,0,0v0l5.25,2a2.77,2.77,0,0,1,2,1.69h0l1.21,9.36.26,7.49c-.56,0-1.37,0-1.93,0L101,54.46,99.91,49.2l-.21,6.42.41,3.95h0l.15,3.53c-3.57,0-7.15,0-10.72,0l.08-3.55h0l.29-4-.1-5.26c0,.75-.85,4.63-.85,4.63l-1.81,6.37-1.89-.39,1.22-7.14Z" fill="#25547d"/><path d="M89.74 49.67a5 5 0 0 0 .08.64c0 .75-.85 4.63-.85 4.63l-1.81 6.37-.57-.12c.52-1.6.93-3.15 1.31-4.7C87.91 56.49 89.7 49.87 89.74 49.67zM94.9 40.64a.1.1 0 0 0 0 0h0l.07 0 .07 0h0a.11.11 0 0 0 0 0v0l5.25 2a2.77 2.77 0 0 1 2 1.69h0l1.21 9.36.26 7.49h-.6s-.34-8.12-.56-9.37c-.17-1-1-7.5-1.77-8a19.48 19.48 0 0 0-3.23-1.48c-1-.41-1.84-1-2.79-1.47l-.16-.07.24-.09z" fill="#000100" opacity=".1"/><path fill="#000100" opacity=".1" d="M99.91 49.2L99.7 55.61 100.12 59.56 100.28 63.09 99.38 63.06 99.38 59.52 99.04 55.31 99.79 47.98 99.91 49.2z"/><path fill="#e6dcd1" d="M87.11 61.29L87.06 61.53 85.27 61.12 85.34 60.93 87.11 61.29z"/><path d="M96.62 93.49l1.6-1.05h2.15a4.16 4.16 0 0 1 .34 2.24H95.2A1.43 1.43 0 0 1 96.62 93.49zM93.77 94.68H87.13a1.43 1.43 0 0 1 1.42-1.19L91 92.43h2.39a4.16 4.16 0 0 1 .34 2.24" fill="#382422"/><path d="M93,92.43h.45a4.16,4.16,0,0,1,.34,2.24H92.51a2.27,2.27,0,0,0,.57-1.7A2.09,2.09,0,0,0,93,92.43Z" fill="#000100" opacity=".1"/><path d="M97.59,37.33a3.61,3.61,0,0,1-3.12,3.3,2.75,2.75,0,0,1-2.75-2.75V34.56h5.9Z" fill="#ebb9a0"/><path d="M96.44,42.11c0,.87-2.63,1.85-3.28,0V38.38h3.28Z" fill="#ebb9a0"/><path d="M97.85,34.52v2.15s-.09,2.36-1.41,3l.24-1.81s.75.1.75-1.42c0-.56-.22-.57-.4-.57s-.41.35-.41.35h-.44v-.85h0a.83.83,0,0,0-.87-.87H91.71s-.68,0-.68-2.14h4.22S97.85,32.06,97.85,34.52Z" fill="#fed168"/><path d="M95.58 40.12a2 2 0 0 1-2.42.49V40.3A2.67 2.67 0 0 0 95.58 40.12zM93 37.54h.73c-.5.73-1 .08-1 .08l.29-2z" fill="#000100" opacity=".1"/><path fill="#e6dcd1" d="M97.25 41.42L95.59 44.39 94.39 43.13 96.51 40.52 97.25 41.42zM94.39 43.13L93.11 44.32 92.38 41.58 93.08 40.63 94.39 43.13z"/><path d="M102,61.48h0v-.06a7.67,7.67,0,0,0,1.66,0l.65,2.89-.1.76a.42.42,0,0,1-.23.34l-.8.4-.08,0c-.18,0-.82-.06-.86-.48,0-.21.56,0,.56-.39a1.74,1.74,0,0,0-.3-1s-.32-.13-.37.29-.25,1.05-.74,1l.15-2Z" fill="#ebb9a0"/><path d="M102.44,64.8h1.4A1.16,1.16,0,0,1,105,66v1.4a.23.23,0,0,1-.45,0V66a.71.71,0,0,0-.71-.71h-1.4a.71.71,0,0,0-.71.71v1.4a.23.23,0,1,1-.45,0V66A1.16,1.16,0,0,1,102.44,64.8Z" fill="#623f3b"/><path d="M102.78,64.92a1.74,1.74,0,0,0-.2-.8l1.1,0,.59,0,0,.09-.1.76a.42.42,0,0,1-.23.34l-.79.4-.1,0c-.19,0-.81-.07-.85-.48C102.22,65.3,102.78,65.34,102.78,64.92Z" fill="#ebb9a0"/><path d="M103.22,61.41l.42,0,.65,2.89-.1.76a.42.42,0,0,1-.23.34l-.53.26a4.69,4.69,0,0,0,.09-1.9A10.38,10.38,0,0,0,103.22,61.41Z" fill="#000100" opacity=".1"/><path d="M109.45,66.95V75a.43.43,0,0,1-.43.43H97.26a.43.43,0,0,1-.43-.43V66.95a.43.43,0,0,1,.43-.43H109" fill="#623f3b"/><path d="M97.26,66.52H109a.43.43,0,0,1,.43.43V68.4a2.3,2.3,0,0,1-2.3,2.3h-8a2.3,2.3,0,0,1-2.3-2.3V66.95A.43.43,0,0,1,97.26,66.52Z" fill="#462e2e"/><rect x="101.71" y="70.18" width="2.25" height=".54" rx=".18" ry=".18" fill="#cd9b24"/><path d="M91.07,35.5H92.2c.15,0,.64.21.64.54a1,1,0,0,1-1,1,1.16,1.16,0,0,1-1.16-1.16A.4.4,0,0,1,91.07,35.5Z" fill="#3c3c3b"/><path d="M91.21,35.67h.89c.12,0,.51.17.51.42a.81.81,0,0,1-.81.81.91.91,0,0,1-.91-.91A.32.32,0,0,1,91.21,35.67Z" fill="#50b795"/><path d="M93.81,35.5h1.14a.4.4,0,0,1,.4.4,1.16,1.16,0,0,1-1.16,1.16,1,1,0,0,1-1-1C93.17,35.71,93.66,35.5,93.81,35.5Z" fill="#3c3c3b"/><path d="M93.91,35.67h.89a.32.32,0,0,1,.32.32.91.91,0,0,1-.91.91.81.81,0,0,1-.81-.81C93.4,35.83,93.79,35.67,93.91,35.67Z" fill="#50b795"/><path d="M93.45 35.78l-.16.11a.94.94 0 0 0-.35-.06 1 1 0 0 0-.28 0l-.16-.12a1.07 1.07 0 0 1 .45-.09A1 1 0 0 1 93.45 35.78zM96.3 35.77L95.19 35.89 95.19 35.67 96.3 35.67 96.3 35.77z" fill="#3c3c3b"/><path fill="#c39276" d="M15.55 91.28L17.32 91.06 19.3 70.31 15.55 70.31 15.55 91.28z"/><path fill="#000100" opacity=".1" d="M15.55 91.28L15.92 91.24 16.29 70.86 19.3 70.31 15.55 70.31 15.55 91.28z"/><path fill="#c39276" d="M21.9 91.28L23.66 91.06 25.65 70.31 21.9 70.31 21.9 91.28zM13.31 54.81l-.19 7-.79 2.63.37 1.67.61.76a.34.34 0 0 0 .44-.33c0-.43.19-2.38.19-2.38s.28-.12.33.26.22.94.66.92l-.14-1.77L14.39 62h0l1-6.76 2.21-9.1-2.84-.36z"/><path d="M13.31,54.81l-.19,7-.79,2.63.37,1.67.14.17a12.58,12.58,0,0,1,.35-2.76c.14-.58.42-1.12.56-1.7s0-5.33.19-6.82.66-4.58.92-5.92a7.4,7.4,0,0,0,1.88.77l.88-3.75-2.84-.36Z" fill="#000100" opacity=".1"/><path d="M19.2,92l-1.88-1-1.79,0a4.07,4.07,0,0,0-.34,2.2h5.4A1.39,1.39,0,0,0,19.2,92Z" fill="#df3d58"/><path d="M16,91h-.46a4.07,4.07,0,0,0-.34,2.2h1a2.68,2.68,0,0,1-.38-1.54A2.23,2.23,0,0,1,16,91Z" fill="#000100" opacity=".1"/><path d="M26.65,92l-2.88-1h-1.9a4.07,4.07,0,0,0-.34,2.2H28A1.39,1.39,0,0,0,26.65,92Z" fill="#df3d58"/><path d="M22.21 91.57a2.89 2.89 0 0 1 .14-.58h-.47a4.07 4.07 0 0 0-.34 2.2h1.12A2.18 2.18 0 0 1 22.21 91.57zM16.43 44a2.58 2.58 0 0 0-1.7 1.54l-1.11 2.13c.08 0 .52.28 1.07.6.39-1 1.23-2.51 1.43-2.91.61-1.2 2.15-1.53 3.18-2 0 0 1.6-.82 1.59-.91a.13.13 0 0 1 0 0h0z" fill="#000100" opacity=".1"/><path d="M28.72,61.87l-1.25-7.06-.68-8.45L23.86,46l1.51,9.06L27.48,62h0L27,63.57l-.19,1.77c.43,0,.62-.53.68-.9s.34-.25.34-.25.09,2,.12,2.38a.34.34,0,0,0,.43.34l.63-.74.41-1.66-.72-2.65Z" fill="#c39276"/><path d="M25.74,49.48c0-.05,1.23-.88,1.23-.88l-.18-2.24L23.86,46l1.51,9.06L27.48,62h0L27,63.57l-.19,1.77a.43.43,0,0,0,.26-.06s.61-2.67.74-3.17l-1.62-7A53,53,0,0,1,25.74,49.48Z" fill="#000100" opacity=".1"/><path d="M27.54,47.87l-.79-2.12h0l-.2-.45A2.52,2.52,0,0,0,25,44.06L20.89,42.6a.79.79,0,0,0-.36,0L16.43,44a2.58,2.58,0,0,0-1.7,1.54l-1.11,2.13c.18.06,2.33,1.34,3.2,1.86l.49,7.09L15.7,61a15.35,15.35,0,0,0-.32,3.52l.18,5.83H25.71V63.87a22.12,22.12,0,0,0-.2-3l-1.11-4.21.37-7.2C25.66,48.93,27.37,47.92,27.54,47.87Z" fill="#fed16a"/><path d="M21.71,34H20.05a2.77,2.77,0,0,0-2.77,2.77l-.22,3.51a2,2,0,0,0,2,2h3.47a2,2,0,0,0,2-2V36.8A2.77,2.77,0,0,0,21.71,34Z" fill="#623f3b"/><path d="M18.5,40a2.59,2.59,0,0,0,5.19,0V36.9H18.5Z" fill="#c39276"/><path d="M19.23,44a1.55,1.55,0,1,0,3.09,0V40.51H19.23Z" fill="#c39276"/><path fill="#623f3b" d="M18.05 36.8L18.08 40.86 18.86 42.26 19.48 42.26 19.47 36.08 18.05 36.8z"/><path d="M18.61,37.39l.87.33a.78.78,0,0,1,.82-.82v-.48H18.61Z" fill="#623f3b"/><path d="M17.54,49.91l-.73-.34.5,7.09L15.7,61a15.34,15.34,0,0,0-.32,3.52l.18,5.83h.86s-.13-4.54,0-6.09A27.16,27.16,0,0,1,18,56.68h0v0h0v0l0-4.95-.42-.78C17.62,50.44,17.58,50.09,17.54,49.91Z" fill="#000100" opacity=".1"/><path d="M24.27,46.11s-6.91.25-6.91,1.19l-.13,3A1.66,1.66,0,0,0,18.8,52h5.07a1.66,1.66,0,0,0,1.58-1.72v-.12S25.14,46.11,24.27,46.11Z" fill="#fed16a"/><path fill="#000100" opacity=".1" d="M21.89 91L22.33 91 22.36 70.9 25.65 70.31 21.9 70.31 21.89 91zM20.17 42.16a1.79 1.79 0 0 0 2.15.43v-.28A2.38 2.38 0 0 1 20.17 42.16zM22.39 39.83h-.72c.49.72.95.08.95.08l-.29-2z"/><path d="M37.22,42.81l-.89-1.22-1.21-3a.24.24,0,0,1,.13-.31l.06,0a.24.24,0,0,1,.3.12l.79,1.63-.84-2.33a.26.26,0,0,1,.15-.32h0a.26.26,0,0,1,.33.14l1,2.31-.94-2.68a.34.34,0,0,1,.2-.43h0a.34.34,0,0,1,.44.19l1,2.62-.58-2.4a.32.32,0,0,1,.23-.39h0a.32.32,0,0,1,.4.22l.79,2.62.34-.88a.29.29,0,0,1,.47-.11h0a.29.29,0,0,1,.09.25l-.37,2.66a2.17,2.17,0,0,1-.26.89" fill="#c39276"/><path d="M39 41.6l.34-2.51a.28.28 0 0 0-.08-.24h0a.28.28 0 0 0-.45.1l-.32.83a2.08 2.08 0 0 0-1.19 1.41C37.1 42.27 38.4 42.48 39 41.6zM59.1 53.25l-.95-7.45-3.5-2.22 1.78 9.14 1.07 8.08h0L57 62.67l-.16 2.05c.5 0 .7-.63.76-1.06s.39-.3.39-.3.17 2.26.22 2.76a.4.4 0 0 0 .51.38l.7-.88.43-1.93-.67-3zM44.54 48l-1.26 4.37a1 1 0 0 1-1.12.66 3.78 3.78 0 0 1-2.77-2.45l-1.82-5.69-.43-2.17 1.74-.43.66 2.14L41.3 49l.31-1.69" fill="#c39276"/><path d="M42.21,52.29,40.4,50.51l-2.61-5.88-.65-1.92.39,2,1.86,5.83a4,4,0,0,0,2,2.2,6.44,6.44,0,0,0,.91.29" fill="#000100" opacity=".1"/><path d="M58.75,47.32l-1.15-4h0l0-.08v0h0a2.86,2.86,0,0,0-2-1.75l-5.42-2v0a.11.11,0,0,1,0,0h0l-.07,0-.07,0h0a.11.11,0,0,1,0,0v0l-5.42,2a2.86,2.86,0,0,0-2,1.75h0v0l0,.08h0l-1.15,4c.16.05,2.18.46,3.39.7l.1,6.74-.3,4.14h0l-.08,3.67c3.69,0,7.38,0,11.08,0l-.16-3.64h0l-.43-4.08.22-6.73C56.25,47.85,58.58,47.38,58.75,47.32Z" fill="#fed168"/><path d="M55.31,58.89l-.43-4.08,0-1.17c-3.38,0-6.77,0-10.15.1v1l-.3,4.14h0l-.08,3.67c3.69,0,7.38,0,11.08,0l-.16-3.64Z" fill="#0f7174"/><path d="M57.61,43.28l0-.08v0h0a2.86,2.86,0,0,0-2-1.75l-5.42-2v0a.11.11,0,0,1,0,0h0l-.07,0-.07,0h0a.11.11,0,0,1,0,0v0l-5.42,2a2.86,2.86,0,0,0-2,1.75h0v0l0,.08h0l-1.15,4c.16.05,2.18.46,3.39.7l0,1.75c3.44-.11,6.89-.12,10.33-.1l.05-1.6c1.15-.23,3.48-.7,3.65-.76l-1.15-4Z" fill="#50b795"/><path d="M42.48,43.16h0v0l0,.08h0l-1.15,4a7.31,7.31,0,0,0,.84.18s1-3.61,1.31-4.37c.52-1.17,4-2.58,4.81-2.82a2.29,2.29,0,0,1,0-.32L44.5,41.41A2.86,2.86,0,0,0,42.48,43.16Z" fill="#000100" opacity=".1"/><path d="M44.45,60.26l-.15,5.91,1.75,26.74,2.33.23,1.17-27.22.54,0,3.12,27,2.33.23,0-27.5-.2-5.42S44.51,60.3,44.45,60.26Z" fill="#25547d"/><path d="M53.35,92.84l-1.65,1.09a1.47,1.47,0,0,0-1.47,1.23h5.7a4.3,4.3,0,0,0-.35-2.32Z" fill="#382422"/><path d="M46.63,36.5a2.84,2.84,0,0,0,2.84,2.84,3.73,3.73,0,0,0,3.23-3.41l0-2.86h-6.1Z" fill="#c39276"/><path d="M48.12,40.8a1.69,1.69,0,0,0,3.39,0V37H48.12Z" fill="#c39276"/><path d="M50.28,30.84H45.92c0,2.18.71,2.21.71,2.21h3.7a.86.86,0,0,1,.9.9h0v.88h.45s.18-.36.42-.36.41,0,.41.59c0,1.57-.77,1.47-.77,1.47l-.25,1.86c1.36-.71,1.46-3.15,1.46-3.15V33C53,30.48,50.28,30.84,50.28,30.84Z" fill="#81452b"/><path d="M48.12 39v.32a2.08 2.08 0 0 0 2.5-.5A2.76 2.76 0 0 1 48.12 39zM48 34.15l-.3 2.08s.48.68 1-.08h-.76z" fill="#000100" opacity=".1"/><path d="M45.93,92.84l-2.57,1.09a1.47,1.47,0,0,0-1.47,1.23h6.86a4.3,4.3,0,0,0-.35-2.32Z" fill="#382422"/><path fill="#000100" opacity=".1" d="M55.37 60.23L44.45 60.26 44.3 66.17 46.05 92.92 46.4 92.84 45 65.69 45.12 61.02 55.37 60.23z"/><path fill="#000100" opacity=".1" d="M50.44 65.88L50.1 65.9 51.49 77.84 53.22 92.92 53.82 92.84 51.92 77.73 50.44 65.88zM44.69 48.03L44.78 54.77 44.53 58.13 44.45 60.26 45.05 60.26 45.34 54.78 45.05 46.27 44.69 48.03zM55.1 48.08L55.51 47.99 55.01 46.22 55.1 48.08zM56.25 47.85l-.74.16.92 4.72 1.06 8.08L57 62.67l-.16 2.05s.14.11.4-.18l.17-1.75.47-2.16-.79-8.1z"/><path d="M77.22,55.86l-.71-8.77-3-.33L75,56.17l2.19,7.13h0L76.76,65l-.19,1.83c.45,0,.64-.55.71-.93s.35-.26.35-.26.1,2,.13,2.47a.36.36,0,0,0,.45.35l.65-.77.43-1.72-.74-2.75Z" fill="#ebb9a0"/><path d="M76.71,61.59l.52,1.71h0L76.76,65l-.19,1.83a.45.45,0,0,0,.27-.07s.64-2.77.77-3.29l-.46-2A1.27,1.27,0,0,1,76.71,61.59Z" fill="#000100" opacity=".1"/><path d="M71.24,34.31H69.52a2.87,2.87,0,0,0-2.87,2.87l-.23,9.54a2,2,0,0,0,2,2h3.6a2,2,0,0,0,2-2V37.17A2.87,2.87,0,0,0,71.24,34.31Z" fill="#81452b"/><path fill="#74524e" d="M65.51 79.47L61.75 91.91 63.48 92.33 68.87 79.48 69.44 71.94 64.86 71.94 65.51 79.47z"/><path d="M65.51,79.47,61.75,91.91,62,92c.41-.86,4.31-12.72,4.31-12.72s.2-6.5.23-6.41l2.86-.9H64.85Z" fill="#000100" opacity=".1"/><path fill="#74524e" d="M71.21 71.94L73.73 79.25 74.65 93.02 76.48 92.79 76.83 79.31 75.79 71.94 71.21 71.94z"/><path d="M63.88,47.82l-2,7.32-1,7.2L59.71,65l.19,1.76.54.85a.36.36,0,0,0,.49-.29c.09-.44.47-2.43.47-2.43s.3-.09.31.3.12,1,.57,1l.06-1.84-.23-1.7h0l1.83-6.85,2.65-7.25a10.66,10.66,0,0,0-2.35-.65Z" fill="#ebb9a0"/><path d="M60.83,62.35,59.71,65l.19,1.76.12.19a13.05,13.05,0,0,1,.68-2.8c.21-.58.57-1.1.78-1.69a18.64,18.64,0,0,0,.32-2.21,1.23,1.23,0,0,1-.66-.1Z" fill="#000100" opacity=".1"/><path d="M76.48,46.46,76.27,46a2.62,2.62,0,0,0-1.57-1.29l-3.19-1.12a1.85,1.85,0,0,1-1.17.38,1.83,1.83,0,0,1-1.25-.44l-3.32,1.16A2.68,2.68,0,0,0,64,46.29l-2.58,8.36c.05,0-.67,7.15-.67,7.15l1.73.46L64,55.56s2-5.34,2.14-5.13l.51,7.36L65,62.25a15.93,15.93,0,0,0-.34,3.65l.19,6h11l-.46-6.68a22.94,22.94,0,0,0-.21-3.12L74,57.78l.26-5a1.82,1.82,0,0,0,.84-1.56v-.12s0-.47-.12-1.11a2.08,2.08,0,0,1,1.79-.07l-.32-3.43Z" fill="#fed168"/><path d="M71.51,43.59a1.85,1.85,0,0,1-1.17.38,1.83,1.83,0,0,1-1.25-.44l-.83.29a1,1,0,0,1,.16.92,7.09,7.09,0,0,0,.38,3.56,6.42,6.42,0,0,0,1.83,2.52c.11-.5,1.33-2,1.76-3a5.75,5.75,0,0,1,.77-3.66Z" fill="#81452b"/><path d="M64,46.29l-2.58,8.36c.05,0-.67,7.15-.67,7.15l1,.27a36.54,36.54,0,0,1,.22-6.3c.39-2.49,1.54-4.77,2.28-7.17a7.54,7.54,0,0,1,3.82-4.72l-2.33.82A2.68,2.68,0,0,0,64,46.29Z" fill="#000100" opacity=".1"/><path d="M75.18,62.15A32.39,32.39,0,0,0,74,57.81c-2.49,0-7.32,0-7.32,0L65,62.25a15.93,15.93,0,0,0-.34,3.65l.19,6h11l-.46-6.68A30.83,30.83,0,0,0,75.18,62.15Z" fill="#df3b57"/><path d="M65.53,60.85l2.2.33s2.37.21,2.75-1.06l.13-3-3.93.63Z" fill="#fed168"/><path d="M74,57.78l-3.93-.63.63,3c.56,1.36,2.25,1.06,2.25,1.06l1.94-.29-.29-1.2Z" fill="#fed168"/><path d="M67.91,40.53a2.69,2.69,0,1,0,5.38,0V37.28H67.91Z" fill="#ebb9a0"/><path d="M68.67,44.61a1.6,1.6,0,1,0,3.21,0V41H68.67Z" fill="#ebb9a0"/><path fill="#81452b" d="M67.47 41.39L68.29 42.84 68.67 43.62 69.05 36.48 67.45 37.17 67.47 41.39z"/><path d="M68,37.79l.9.34a.81.81,0,0,1,.85-.85v-.49H68Z" fill="#81452b"/><path d="M66.92 50.78l-.76-.36.52 7.36L65 62.25a15.93 15.93 0 0 0-.34 3.65l.19 6h.89s-.13-4.71 0-6.32a28.18 28.18 0 0 1 1.73-7.82h0v0h0v0l0-5.13L67 51.8C67 51.33 67 51 66.92 50.78zM69.64 42.74a1.86 1.86 0 0 0 2.23.45V42.9A2.47 2.47 0 0 1 69.64 42.74zM71.9 40.55h-.74c.51.74 1 .08 1 .08l-.3-2z" fill="#000100" opacity=".1"/><path d="M67.11,94.21a13.84,13.84,0,0,1-1.65-.48l-1.55-2L62,91a3.59,3.59,0,0,0-1,2.2L64.19,95a2.37,2.37,0,0,0,.71.29h2.8A.8.8,0,0,0,67.11,94.21Z" fill="#382422"/><path d="M62,91a3.59,3.59,0,0,0-1,2.2l1.56.85a4.22,4.22,0,0,1,.38-2.7Z" fill="#000100" opacity=".1"/><path d="M80.66,93.65s-1.58-.09-1.68-.14l-2.27-.91-2.11.18a3.6,3.6,0,0,0,.14,2.43l3.73,0a2.38,2.38,0,0,0,.77-.08l2.47-.84A.8.8,0,0,0,80.66,93.65Z" fill="#382422"/><path d="M74.6,92.78a3.6,3.6,0,0,0,.14,2.43h1.62a7.36,7.36,0,0,1-.86-2.52Z" fill="#000100" opacity=".1"/><path fill="#000100" opacity=".1" d="M71.21 71.94L73.73 79.25 74.6 92.78 74.88 92.77 74.36 79.28 72.3 72.75 75.85 71.94 71.21 71.94z"/><path fill="#fed168" d="M76.79 49.89L76.47 46.46 74.04 50.14 75.04 56.17 77.08 62.82 78.42 62.51 77.22 55.86 76.79 49.89z"/><path d="M74.9,49.71h0l-.86.43,1,6,2,6.65.68-.16c-.48-2-1.31-3.88-1.84-5.86A32,32,0,0,1,74.9,49.71Z" fill="#000100" opacity=".1"/><path d="M73.84,46.82s-1.07,0-2.39.14a1.47,1.47,0,0,1,.28.84,4.12,4.12,0,0,1-.11.9l-.06.31s0,.07,0,.09c0,.62-.6,1.73-.91,1.73a2.91,2.91,0,0,1-1.29-1.73,2.77,2.77,0,0,1,.09-.72A1.09,1.09,0,0,1,69,47.8a1.07,1.07,0,0,1,0-.59c-1.31.19-2.37.46-2.37.84l-.14,3.12A1.72,1.72,0,0,0,68.17,53h5.26a1.72,1.72,0,0,0,1.63-1.79V51S74.74,46.82,73.84,46.82Z" fill="#fed168"/><path d="M68.67 43.62l-2.07.78 1.32 1.81-1 .88L70.6 51l-1.18-4.23A23 23 0 0 1 68.67 43.62zM71.88 43.62a15.32 15.32 0 0 1-.4 3.2L70.6 51l3.16-3.9-1-.88L74 44.4z" fill="#e6dcd1"/><path fill="#81452b" d="M70.47 50.82H70.72V60.120000000000005H70.47z"/></g></g></svg>