<svg id="Layer_1" xmlns="http://www.w3.org/2000/svg" viewBox="0 0 289.4 78.5"><style>.st0{fill:#1c498a}.st1{fill:#85ccf1}.st2{fill:#4caae8}.st3{fill:#3b88ca}</style><g id="a3efc1cb-cacf-42ad-a425-163441c7a4ba"><path id="_x34_3765fb3-24fa-4abe-8e4d-97ca6811ba5a" class="st0" d="M127.5,31.6c0-9.7-7.2-16.4-22-16.4h-9.8v46.5h7.5V48.2h2.3 C120.2,48.2,127.5,41.9,127.5,31.6L127.5,31.6z M120.2,31.6c0,6.8-5.2,10.5-12.9,10.5h-4V21.3h4C114.9,21.3,120.2,25.3,120.2,31.6z M148.6,36c0.5-2.2,0.7-3.9,1.1-6.1c-0.6-0.1-1.2-0.1-1.8-0.1c-3.5,0-6.9,2-7.9,5.2v-4.7h-6.8v31.4h6.7V48.2c0-6.6,1-12.2,8.1-12.2 H148.6z M184.6,46.2c0-10.4-7.1-16.3-16.2-16.3s-16.2,5.9-16.2,16.2s7.2,16.1,16.2,16.1S184.6,56.4,184.6,46.2L184.6,46.2z M177.8,46.2c0,6.5-4.1,10.1-9.4,10.1c-5.1,0-9.4-3.6-9.4-10.2s4.3-10.3,9.4-10.3C173.7,35.9,177.8,39.6,177.8,46.2L177.8,46.2z M198,61.7V14.6l-6.8,1.4v45.8H198z M215.1,61.7V30.4h-6.9v31.4H215.1z M215.7,20.9c0-2.4-1.8-3.8-4.1-3.8s-4.1,1.4-4.1,3.7 c0,2.1,1.6,3.8,3.7,3.8c0.1,0,0.2,0,0.4,0C213.9,24.6,215.7,23.2,215.7,20.9L215.7,20.9z M243.4,15.1c-1.8-0.3-3.6-0.5-5.5-0.5 c-5.9,0-10.6,2.6-10.6,11.5v4.3h-3.9l-1.5,5.6h5.5v25.8h6.8V35.9h6.9v-5.6h-6.9V26c0-4.1,1.3-5.8,4.6-5.8c1.2,0,2.4,0.2,3.6,0.5 L243.4,15.1z M254.3,61.7V30.4h-6.8v31.4L254.3,61.7z M255,20.9c0-2.4-1.8-3.8-4.1-3.8s-4.1,1.4-4.1,3.7c0,2.1,1.6,3.8,3.7,3.8 c0.1,0,0.2,0,0.4,0C253.2,24.6,255,23.2,255,20.9L255,20.9z M277.7,62.3c4.2,0,8.3-1.3,11.8-3.6l-3.1-5.5c-2.4,2-5.5,3.2-8.7,3.2 c-5.6,0-9.8-3.8-9.8-10.4s4.4-10.2,9.9-10.2c3.3,0.1,6.6,1.3,9.2,3.3l1.4-6c-3.2-2.1-6.9-3.3-10.7-3.3c-9.5,0-16.5,6.1-16.5,16.3 C261.2,56.1,268.2,62.3,277.7,62.3L277.7,62.3z"/><g id="_x35_7f479da-bfc4-452f-9a87-56b831667c96"><path id="_x35_13358f6-cab2-4807-9d0b-dc235d42c1a1" class="st1" d="M50.8,15.1c-0.5-0.7-1-1.3-1.5-1.8c-2.7-2.6-6.3-3.9-10-3.8 c-3.8-0.2-7.4,1.2-10.1,3.9c-1.1,1.1-1.9,2.3-2.6,3.7h-1.1c-3.8-0.1-7.6,0.7-11.1,2.2c0.9-4.7,3.3-8.9,6.7-12.2 C25.9,2.4,32,0,39.3,0c7.5,0,13.5,2.4,18.2,7.1c2.8,2.8,4.9,6.2,6.1,9.9c-3.4-1.3-7-2-10.6-2C52.2,15,51.5,15,50.8,15.1"/><path id="_x38_934fe3b-4b8d-41e4-8108-7dad2beac7e2" class="st2" d="M25.3,26.5c-3.8-0.2-7.4,1.2-10.1,3.9 c-2.6,2.7-3.9,6.2-3.8,9.9c-0.1,3.7,1.3,7.2,3.8,9.9c2.4,2.4,5.6,3.7,8.9,3.8c0.4,0,0.8,0,1.2,0h0.6v9.5h-0.5 c-7.3,0-13.4-2.4-18.2-7.1c-4.5-4.2-7.1-10-7.2-16.1c0.1-6.1,2.7-12,7.2-16.1c4.8-4.7,10.9-7.1,18.2-7.1c4.1-0.1,8.2,0.8,11.9,2.5 c-3,1.9-5.6,4.5-7.6,7.5C28.2,26.7,26.8,26.5,25.3,26.5z"/><path id="bf653f50-b791-4a83-a0ae-62017203e04e" class="st3" d="M27.9,40.9v37.6h11.2l0.1-38.2v-0.6c0-3.5,1.4-6.9,3.9-9.4 c2.7-2.6,6.3-3.9,10-3.8c7.3-0.4,13.5,5.1,14,12.4c0,0.5,0,0.9,0,1.4c0.1,3.7-1.3,7.2-3.8,9.9c-2.4,2.3-5.6,3.7-8.9,3.8 c-0.4,0-0.8,0-1.2,0s-0.8,0-1.2,0H41.1v9.5H53c7.3,0,13.4-2.4,18.2-7.1c4.5-4.2,7.1-10,7.2-16.1c-0.1-6.1-2.7-12-7.2-16.1 c-4.8-4.7-10.9-7.1-18.2-7.1c-7.5,0-13.5,2.4-18.2,7.1c-4.3,4.1-6.8,9.7-7,15.6L27.9,40.9z"/></g></g></svg>