<svg xmlns="http://www.w3.org/2000/svg" viewBox="0 0 80.03 80.03"><g><g><circle cx="40.02" cy="40.02" r="40.02" fill="#fff"/><path d="M63.76,21.4l-49,37.71L55.43,77C63.94,74,80,61.87,80,40.1a40,40,0,0,0-.81-8" fill="#ededed"/><path d="M18,20.8H62a2.91,2.91,0,0,1,2.91,2.91V56a0,0,0,0,1,0,0H15.12a0,0,0,0,1,0,0V23.71A2.91,2.91,0,0,1,18,20.8Z" fill="#3c3c3b"/><path d="M20.26,23.19H59.77a2.62,2.62,0,0,1,2.62,2.62v31a0,0,0,0,1,0,0H17.64a0,0,0,0,1,0,0v-31A2.62,2.62,0,0,1,20.26,23.19Z" fill="#fed168"/><path d="M46.11,53.72a1,1,0,0,1-1,1H35a1,1,0,0,1-1-1H11.29v1a4.53,4.53,0,0,0,4.53,4.53h48.4a4.53,4.53,0,0,0,4.53-4.53v-1Z" fill="#3c3c3b"/><path transform="rotate(180 40.05 42.07)" fill="#df3b57" d="M36.67 35.7H43.43V48.440000000000005H36.67z"/><path fill="#df3b57" d="M50.36 38.2L42.51 30.35 42.52 30.35 40.05 27.88 40.05 27.89 40.05 27.88 37.58 30.35 37.58 30.35 29.67 38.2"/></g></g></svg>