<svg xmlns="http://www.w3.org/2000/svg" viewBox="0 0 80.03 80.03"><g><g><circle cx="40.02" cy="40.02" r="40.02" fill="#fff"/><path d="M39.13,11.35,22.48,51.71,55.43,77C63.94,74,80,61.87,80,40.1a40,40,0,0,0-.81-8" fill="#ededed"/><path d="M27,38.85s-5.2,4-4.49,12.85l11.71-2.13,4.94-4.29V38Z" fill="#fed168"/><path d="M51.17,38.85s5.2,4,4.49,12.85L44,49.57,39,45.28V38Z" fill="#fed168"/><circle cx="39.01" cy="47.06" r="6.82" fill="#0f7174"/><path d="M27,37.13H51.28s1.29-19.56-12.16-25.78C39.13,11.35,26.31,17.22,27,37.13Z" fill="#fed168"/><circle cx="39.01" cy="29.28" r="4.82" fill="#3c3c3b"/><path fill="#df3b57" d="M26.97 37.13H51.28V38.86H26.97zM41.09 58.07a10.26 10.26 0 0 1-2 5.7 10.26 10.26 0 0 1-2-5.7 2 2 0 0 1 3.92 0z"/><path fill="#3c3c3b" d="M30.65 66.13H47.37V68.69H30.65z"/><circle cx="13.37" cy="27.04" r="4.32" fill="#0f7174"/><path d="M18.87 25c-.46.09-1 .21-1.48.33 0 .11.08.22.12.34C18.07 25.36 18.52 25.14 18.87 25zM7.27 29.75c.47-.12 1.21-.36 2.33-.78a4.26 4.26 0 0 1-.28-.72C8.54 28.76 7.77 29.32 7.27 29.75z" fill="none"/><path d="M17.39,25.29c.5-.12,1-.24,1.48-.33-.35.18-.79.4-1.36.67-1,.46-2.36,1.07-4.25,1.87-1.54.65-2.73,1.12-3.65,1.46-1.13.42-1.87.66-2.33.78.5-.42,1.27-1,2.05-1.5l-.18-1.08c-3.8,2.46-3.52,3-3.35,3.35a.6.6,0,0,0,.66.38,13.15,13.15,0,0,0,3.72-1.07c.93-.35,2.07-.81,3.47-1.4,1.74-.73,3.05-1.31,4.08-1.79,3.5-1.62,3.4-2,3.25-2.4s-.29-.83-4.14.16" fill="#fed168"/></g></g></svg>