<svg xmlns="http://www.w3.org/2000/svg" viewBox="0 0 79.64 79.64"><g><g><circle cx="39.82" cy="39.82" r="39.82" fill="#fff"/><path d="M78.24,29.35,34,12.58,46.78,62.86,22.4,66.5,44.72,79.34a39.85,39.85,0,0,0,33.51-50Z" fill="#ededed"/><rect x="22.4" y="48.93" width="16.91" height="2.28" rx="1.14" ry="1.14" fill="#3c3c3b"/><path fill="#df3b57" d="M49.3 56.03L50.14 60.59 52.51 60.36 51.47 53.77 49.3 56.03z"/><path fill="#df3b57" d="M49.3 53.77L51.73 60.59 35.65 60.59 37.36 55.3 49.3 53.77z"/><rect x="28.78" y="12.58" width="7.26" height="19.48" rx="2.54" ry="2.54" fill="#fed168"/><path d="M36.66,39.34s6.62,3.54,1.51,9.6l-.85,2.28v4a2,2,0,0,0,2,2h6.72a7.14,7.14,0,0,0,7.14-7.14v-4a12.4,12.4,0,0,0-12.4-12.4h0V27H34.35V37.72Z" fill="#fed168"/><path d="M28.58,17.69h7.37a.71.71,0,0,1,.71.71V41.3a0,0,0,0,1,0,0h-8.8a0,0,0,0,1,0,0V18.4A.71.71,0,0,1,28.58,17.69Z" fill="#50b795"/><circle cx="37.32" cy="24.98" r="5.3" fill="#3c3c3b"/><circle cx="37.32" cy="24.98" r="2.65" fill="#fed168"/><circle cx="48.04" cy="48.93" r="3.68" fill="#3c3c3b"/><circle cx="48.04" cy="48.93" r="1.82" fill="#fed168"/><path d="M36.66,41.3v1.61a1.41,1.41,0,0,1-.23.78l-1.95,3a1,1,0,0,1-.85.46H31.17a1,1,0,0,1-.83-.43l-2.21-3.09a1.41,1.41,0,0,1-.26-.82V41.3Z" fill="#3c3c3b"/><rect x="22.4" y="59.95" width="32.49" height="6.55" rx="1.88" ry="1.88" fill="#3c3c3b"/><path d="M34,12.58a1.7,1.7,0,0,1-3.4,0" fill="#3c3c3b"/><path fill="none" stroke="#50b795" stroke-miterlimit="10" stroke-width=".64" d="M29.44 38.43L29.44 43.18M32.41 38.43L32.41 43.18M35.28 38.43L35.28 43.18"/></g></g></svg>