<svg xmlns="http://www.w3.org/2000/svg" viewBox="0 0 280.67 280.67"><defs><clipPath id="a"><path d="M146.3,30l.35-5.09c.62-.37,2.17-1.29,2.3-1.33l-.8-1.53a1.86,1.86,0,0,0-1.22-1.11l-2.94-1v-.06a.09.09,0,0,1,0,0h0l-.1,0-.1,0h0a.07.07,0,0,1,0,0v.06l-3,1a1.81,1.81,0,0,0-1.09.89l-.07.14c0,.11-.63,1.7-.63,1.7s.93.52,1.58.9c-.06.44-.08.77-.08.77v.09a1.26,1.26,0,0,0,.58,1.08l.18,3.48-.8,3a15.89,15.89,0,0,0-.15,2.16V39.8h7.29l.13-4.19a11,11,0,0,0-.23-2.53Z" fill="none"/></clipPath></defs><g><g><circle cx="140.34" cy="140.34" r="140.34" fill="#fff"/><path fill="#c39276" d="M73.71 68.31L74.98 68.47 74.98 52.76 72.12 52.76 73.71 68.31zM69.14 68.31L70.41 68.47 70.73 52.64 67.97 52.16 69.14 68.31z"/><path d="M73.71,43.51H68.62l-.81,3.06a15.94,15.94,0,0,0-.15,2.16l.94,19.55,1.9-.05.57-17.07h.25l2.38,17.11,1.38,0,0-19.11a11.06,11.06,0,0,0-.23-2.53Z" fill="#81cff5"/><path d="M68.62,43.51l-.81,3.06a15.93,15.93,0,0,0-.15,2.16l.94,19.55h.49c-.09-2-.28-4-.27-6,0-2.35-.11-4.72-.17-7.07,0-1.29-.31-4.21-.34-6.38a14.32,14.32,0,0,1,.22-2.73,12.87,12.87,0,0,1,3.63-.47,1.86,1.86,0,0,1,.74-.46,1.68,1.68,0,0,1,1-1.07l-.22-.59Z" fill="#000100" opacity=".1"/><path d="M77.05,42.05l-1.6-6.42-1.91.79,2,6,1.14,4.79h0l-.19,1.18v1.28c.31,0,.4-.43.41-.7s.22-.2.22-.2.22,1.39.28,1.7a.25.25,0,0,0,.34.21l.39-.58.16-1.22-.73-1.84Z" fill="#c39276"/><path d="M74.94,39c-.13-.42.35-1.2.93-1.46l-.42-1.86-1.91.79,2,6,1.14,4.79h0l-.19,1.18v1.28l.1,0h0a15.07,15.07,0,0,1,.42-2.46c-.06-.34-.77-3.48-1-4.27S75.16,39.64,74.94,39Z" fill="#000100" opacity=".1"/><path d="M66.4,42.31l-.9,5.08L65,49.3l.3,1.19.45.54a.25.25,0,0,0,.31-.25c0-.31.09-1.72.09-1.72s.2-.09.25.18.18.67.49.65l-.13-1.27-.32-1.15h0l1.52-4.95L69,36l-2.11.23Z" fill="#c39276"/><path d="M66.4,42.31l-.9,5.08h0L65,49.3l.3,1.19.23.28a5.48,5.48,0,0,1,0-1.79c.18-1,.23-2,.5-3a36.36,36.36,0,0,0,1.15-7.82s.7.11,1.43.19L69,36l-2.11.23Z" fill="#000100" opacity=".1"/><path d="M75.57,35.66a1.86,1.86,0,0,0-1.23-1.11l-3-1a.57.57,0,0,0-.26,0l-3,1c-.59.17-1.2.62-1.23,1.07l-.68,6.85s-.79,4.66-.79,4.66l1.11.29s1.11-3.33,1.24-3.82c.23-.79.64-3.47.64-3.47l.17,3.46-.48,1.79,6.26-.07-.22-1.71-.06-5.1c0-.06.69,2,1.38,3.73,0,.12,1.16,5.14,1.16,5.14l1.28-.29s-.64-5.57-.65-5.61C76.54,38.61,75.57,35.66,75.57,35.66Z" fill="#ea5164"/><path d="M74.35 38.27a3.39 3.39 0 0 1-.34 0c0 .07.12.19.12.26.13.33.74 2.13 1.35 3.67 0 .12 1.16 5.14 1.16 5.14l.52-.12a36.26 36.26 0 0 1-.61-3.89A34.7 34.7 0 0 0 74.35 38.27zM71.14 33.52l-3 1c-.59.17-1.2.62-1.23 1.07l-.69 6.85s-.79 4.66-.79 4.66l.47.12c.18-.39.79-3.58.9-4.29.25-1.7.6-2.43.75-4.15.11-1.22-.3-2.65.78-3.38a15 15 0 0 1 3.11-1.66 1.66 1.66 0 0 1 .45-.09l-.51-.18A.57.57 0 0 0 71.14 33.52z" fill="#000100" opacity=".1"/><path fill="#25557e" d="M74.36 39.21L74.39 43.56 74.77 43.54 74.66 40.06 74.36 39.21z"/><path d="M73.71,68.26,72.35,69a1,1,0,0,0-1,.84h3.88A2.93,2.93,0,0,0,75,68.26Z" fill="#623f3b"/><path d="M72.35,69a1,1,0,0,0-1,.84h1.08c.24-.26.48-.5.74-.73l.2-.18c.05-.05.24-.3,0,0a3.63,3.63,0,0,1,.47-.55l.12-.1h-.27Z" fill="#000100" opacity=".1"/><path d="M69.13,68.26,67,69a1,1,0,0,0-1,.84h4.68a2.93,2.93,0,0,0-.24-1.58Z" fill="#623f3b"/><path d="M67,69a1,1,0,0,0-1,.84h1.46a9.1,9.1,0,0,1,2-1.59h-.28Z" fill="#000100" opacity=".1"/><path d="M71.74,27.35H70.55a2,2,0,0,0-2,2v2.53A1.42,1.42,0,0,0,70,33.28h2.5a1.42,1.42,0,0,0,1.42-1.42l-.16-2.53A2,2,0,0,0,71.74,27.35Z" fill="#623f3b"/><path d="M69.13,31.67a1.87,1.87,0,1,0,3.73,0V29.41H69.13Z" fill="#c39276"/><path d="M70.11,34.5a1.11,1.11,0,1,0,2.22,0V32H70.11Z" fill="#c39276"/><path fill="#623f3b" d="M72.15 33.27L72.6 33.27 73.16 32.27 73.18 29.34 72.16 28.82 72.15 33.27z"/><path d="M71.56,29.41a.56.56,0,0,1,.59.59l.63-.24v-.7H71.56Z" fill="#623f3b"/><path d="M70.11 33.32v.2a1.29 1.29 0 0 0 1.55-.31A1.71 1.71 0 0 1 70.11 33.32zM70.14 30.18l-.21 1.42s.33.46.68-.06H70.1z" fill="#000100" opacity=".1"/><path d="M72.35,37l-.06,6.64h.4l.08-6.72c0-2.5.6-2.7.6-2.7L73,34.07A5.21,5.21,0,0,0,72.35,37Z" fill="#25557e"/><rect x="71.31" y="43.46" width="4.45" height="2.98" rx=".88" ry=".88" fill="#25557e"/><path d="M75.22,43.46H71.87a.55.55,0,0,0-.55.55,1.22,1.22,0,0,0,1.21,1.21h2A1.22,1.22,0,0,0,75.77,44,.55.55,0,0,0,75.22,43.46Z" fill="#25557e"/><path d="M74.16,45H72.92a.17.17,0,0,0,0,.34h1.24a.17.17,0,0,0,0-.34Z" fill="#fed16a"/><path d="M69.11,40.06c-1.15.11-1-2.46-1-2.46L68,37.53C68,38,67.86,39,67.86,39v.09a1.27,1.27,0,0,0,.58,1.08l.16,3.45-.47,1.79h.14l.61-1.77C68.82,43.14,69.15,40.09,69.11,40.06Z" fill="#000100" opacity=".1"/><path fill="#623f3b" d="M68.53 68.44L70.58 68.65 70.87 62.33 68.11 62.43 68.53 68.44z"/><path d="M68.82,62.41l-.72,0,.42,6,.53.05c0-.54-.22-4.49-.24-5.93C68.82,62.51,68.82,62.46,68.82,62.41Z" fill="#000100" opacity=".1"/><path fill="#623f3b" d="M73.18 68.54L75.2 68.75 75.48 62.43 72.77 62.54 73.18 68.54z"/><path d="M73.47,62.51l-.7,0,.41,6,.52.05c0-.54-.21-4.49-.23-5.93C73.47,62.62,73.47,62.56,73.47,62.51Z" fill="#000100" opacity=".1"/><path d="M166.77,30.56h0l-1.07,1.82-.12,1.33.27.71a.27.27,0,0,0,.41-.14c.13-.31.71-1.73.71-1.73s.24,0,.19.27-.06.75.27.84l.32-1.35.08-1.33.13-.27a1.54,1.54,0,0,1-1.12-.36Z" fill="#c39276"/><path d="M166.77,30.56h0l-1.07,1.82-.12,1.33,0,.1a5.87,5.87,0,0,1,1.7-3.19,1.49,1.49,0,0,1-.48-.27Z" fill="#000100" opacity=".1"/><path d="M169.63,30.7l-.1,4L170.72,53l1.59.16.8-18.57.37,0L175.6,53l1.59.16,0-18.76-.14-3.7S169.66,30.72,169.63,30.7Z" fill="#25557e"/><path fill="#000100" d="M176.74 26.98L176.87 22.42 176.63 21.34 176.56 22.48 176.24 26.95 176.56 30.66 177.07 30.68 177.03 29.81 176.74 26.98z" opacity=".1"/><path d="M178.57,19h0a2,2,0,0,0-1.37-1.19l-3.69-1.39v0a.08.08,0,0,1,0,0h0l0,0,0,0h0a.09.09,0,0,1,0,0v0l-3.69,1.39A2,2,0,0,0,168.29,19h0l-.84,6.66-.81,5s1.2.21,1.25.26l1.31-4.48s.6-2.73.6-3.26l.07,3.71-.21,2.82h0l-.06,2.5c2.52,0,5,0,7.55,0L177,29.76h0L176.74,27l.15-4.52.75,3.71.7,4.73h1.18l-.1-5.28Z" fill="#fed16a"/><g opacity=".1" fill="#000100"><path d="M177.08 32.24l-7.48 0-.07 2.31 1.18 18.36H171c-.06-1-1.2-19.5-1.14-20.08C169.91 32.81 170.32 32.4 177.08 32.24zM177.12 32.24h0z"/></g><path d="M173.48,34.53,175.6,53H176c-.22-1.44-2.28-18.43-2.28-18.43Z" fill="#000100" opacity=".1"/><path d="M175.63,52.92l-1.17.74a1,1,0,0,0-1,.84h4a2.85,2.85,0,0,0-.25-1.58Z" fill="#0f7275"/><path d="M174.47,53.67a1,1,0,0,0-1,.84h.92a4.67,4.67,0,0,1,.44-.58,9.55,9.55,0,0,1,1-1h-.14Z" fill="#000100" opacity=".1"/><path d="M170.64,52.92l-1.75.74a1,1,0,0,0-1,.84h4.68a2.93,2.93,0,0,0-.24-1.58Z" fill="#0f7275"/><path d="M168.88,53.67a1,1,0,0,0-1,.84h.68a4.12,4.12,0,0,1,1.33-1.11,7.72,7.72,0,0,1,.9-.48h-.15Z" fill="#000100" opacity=".1"/><path fill="#fed16a" d="M173.26 16.49L172.21 16.88 172.21 17.24 174.35 17.24 174.35 16.77 173.59 16.49 173.26 16.49zM174.83 17.24L175.59 17.24 174.83 16.95 174.83 17.24zM171.73 17.24L171.73 17.06 171.26 17.24 171.73 17.24zM169.18 18a1.94 1.94 0 0 0-.78.75h3.83a1.5 1.5 0 0 1-.45-.75zM173.23 18.68h.1a1 1 0 0 0 1-.66h-2A1 1 0 0 0 173.23 18.68zM177.67 18h-2.89a1.5 1.5 0 0 1-.45.75h4.11A1.94 1.94 0 0 0 177.67 18zM168.22 19.56L168.12 20.31 178.73 20.31 178.64 19.56 168.22 19.56zM168.02 21.1L167.93 21.85 178.93 21.85 178.84 21.1 168.02 21.1zM167.73 23.39h2c0-.06 0-.11 0-.14v.14h7.07l0-.75h-9.05zM176.92 22.63L177.07 23.39 179.13 23.39 179.03 22.63 176.92 22.63zM169.81 24.92L176.8 24.92 176.83 24.17 169.8 24.17 169.81 24.92zM177.23 24.17L177.38 24.92 179.33 24.92 179.23 24.17 177.23 24.17zM167.54 24.92h2c.05-.26.1-.51.14-.75h-2zM169.84 26.46L176.75 26.46 176.78 25.71 169.83 25.71 169.84 26.46zM167.31 26.46h1.88l.16-.75h-1.92zM177.54 25.71L177.63 26.17 177.68 26.46 179.44 26.46 179.42 25.71 177.54 25.71zM167.07 28L168.75 28 168.97 27.24 167.19 27.24 167.07 28zM169.83 27.24L169.78 28 176.84 28 176.76 27.24 169.83 27.24zM177.79 27.24L177.9 28 179.47 28 179.45 27.24 177.79 27.24zM169.72 28.78L169.67 29.53 177 29.53 176.92 28.78 169.72 28.78zM166.82 29.53L168.3 29.53 168.52 28.78 166.94 28.78 166.82 29.53zM178.02 28.78L178.13 29.53 179.49 29.53 179.48 28.78 178.02 28.78zM166.62 30.72s1.2.21 1.25.26l.19-.67h-1.38zM178.25 30.32l.09.58h1.18v-.59zM169.63 30.32L169.62 31.07 177.09 31.07 177.06 30.32 169.63 30.32zM169.6 31.85v.42c2.52 0 5 0 7.55 0l0-.39z"/><path d="M174.35,17.24v.42a1,1,0,0,1-1,1h-.1a1,1,0,0,1-1-1v-.78l-.48.18v.6a1.51,1.51,0,0,0,1.5,1.5h.1a1.51,1.51,0,0,0,1.5-1.5V17l-.48-.18Z" fill="#fed16a"/><path d="M171.11,14.49A1.94,1.94,0,0,0,173,16.42a2.54,2.54,0,0,0,2.2-2.33l0-2h-4.16Z" fill="#c39276"/><path d="M172.13,17.43a1.15,1.15,0,1,0,2.31,0V14.84h-2.31Z" fill="#c39276"/><path d="M173.6,10.63h-3c0,1.49.48,1.51.48,1.51h2.52a.58.58,0,0,1,.61.61h0v.6h.31s.12-.25.29-.25.28,0,.28.4c0,1.07-.53,1-.53,1l-.17,1.27c.93-.48,1-2.15,1-2.15V12.12C175.43,10.38,173.6,10.63,173.6,10.63Z" fill="#623f3b"/><path d="M172.13 16.19v.22a1.42 1.42 0 0 0 1.7-.34A1.88 1.88 0 0 1 172.13 16.19zM172 12.89l-.21 1.42s.33.46.68-.06H172zM168.29 19h0l-.84 6.66-.82 5.07.17 0c.08-.24.53-2.55.94-4.88s.78-6.58.91-6.89c.32-.77 1.5-1.09 1.9-1.26s1.59-.61 1.59-.61l0-.22-2.48.91A2 2 0 0 0 168.29 19z" fill="#000100" opacity=".1"/><path fill="#000100" d="M169.78 23.34L169.85 26.95 169.65 29.77 169.59 32.27 169.98 32.27 170 29.66 170.09 26.92 169.9 22.79 169.78 23.34zM176.88 22.12L176.88 22.46 177.63 26.17 178.34 30.9 178.59 30.91 177.84 26.14 176.88 22.12z" opacity=".1"/><path fill="#c39276" d="M178.38 30.91L178.38 30.91 178.38 30.91 178.38 30.91zM178.38 30.91l-.32 1.35-.11 1.4c.34 0 .48-.43.52-.72s.26-.2.26-.2a1.23 1.23 0 0 1 .21.68c0 .3-.41.13-.4.27s.48.33.6.34h.06l.56-.28a.3.3 0 0 0 .16-.24l.07-.53-.46-2A5.41 5.41 0 0 1 178.38 30.91z"/><path d="M178.06,32.25l-.11,1.4H178a13,13,0,0,1,.77-2.34,1.82,1.82,0,0,1,.2-.37l-.62,0Z" fill="#000100" opacity=".1"/><path fill="#e6dcd1" d="M175.28 34.53L175.03 44.86 182.48 44.86 182.22 34.53 175.28 34.53z"/><path d="M179.25,33.28h-1a.82.82,0,0,0-.82.82v1a.16.16,0,1,0,.32,0v-1a.5.5,0,0,1,.5-.5h1a.5.5,0,0,1,.5.5v1a.16.16,0,1,0,.32,0v-1A.82.82,0,0,0,179.25,33.28Z" fill="#25557e"/><path d="M179.57,32.87l-.77,0a1.23,1.23,0,0,1,.14.57c0,.3-.4.27-.4.27,0,.29.47.33.6.34l.07,0,.56-.28a.3.3,0,0,0,.16-.24l.07-.53v-.06Z" fill="#c39276"/><path d="M171.65,12.89h-.76a.27.27,0,0,0-.27.27.78.78,0,0,0,.78.78.69.69,0,0,0,.69-.69C172.08,13,171.75,12.89,171.65,12.89Z" fill="#0f7275"/><path d="M171.58,13H171a.21.21,0,0,0-.21.21.61.61,0,0,0,.61.61.54.54,0,0,0,.54-.54C171.92,13.11,171.66,13,171.58,13Z" fill="#785753"/><path d="M173.49,12.89h-.76c-.1,0-.43.14-.43.36a.69.69,0,0,0,.69.69.78.78,0,0,0,.78-.78A.27.27,0,0,0,173.49,12.89Z" fill="#0f7275"/><path d="M173.39,13h-.6c-.08,0-.34.11-.34.28a.54.54,0,0,0,.54.54.61.61,0,0,0,.61-.61A.21.21,0,0,0,173.39,13Z" fill="#785753"/><path d="M171.85 13.05l.11.08a.66.66 0 0 1 .19 0 .63.63 0 0 1 .24 0l.11-.08a.67.67 0 0 0-.34-.08A.72.72 0 0 0 171.85 13.05zM173.65 13.15L174.39 13.07 174.39 13 173.65 13 173.65 13.15z" fill="#0f7275"/><path fill="#ebb9a0" d="M216.93 78.24L218.19 78.4 218.5 63.48 215.83 63.48 216.93 78.24zM212.42 78.24L213.68 78.4 213.99 63.48 211.32 63.48 212.42 78.24zM220.1 52.46l-1-6.45-2 .25 1.57 6.47.73 4.81h0L219 58.69l-.1 1.26c.31 0 .43-.39.47-.65s.24-.18.24-.18.1 1.39.13 1.69a.24.24 0 0 0 .31.23l.43-.54.26-1.19-.56-1.87z"/><path d="M218.31,48.91c0-.2.56-.7,1-1.15L219.05,46l-2,.25,1.57,6.47.73,4.81h0L219,58.69l-.1,1.26a.31.31,0,0,0,.16,0,18.66,18.66,0,0,0,.51-2.2c0-.46-.47-4.44-.62-5.43S218.41,49.91,218.31,48.91Z" fill="#000100" opacity=".1"/><path d="M212.41,78.19l-2.12.73a1,1,0,0,0-1,.83h4.62a2.9,2.9,0,0,0-.24-1.56Z" fill="#0f7275"/><path d="M210.29,78.93a1,1,0,0,0-1,.83h1.51a23.69,23.69,0,0,1,2.2-1.56h-.6Z" fill="#000100" opacity=".1"/><path d="M210,52.46l-.89,5h0l-.51,1.88.29,1.18.45.53a.24.24,0,0,0,.31-.24c0-.31.09-1.7.09-1.7s.2-.09.24.18.18.66.48.64l-.13-1.26L210,57.56h0l1.5-4.89,1.07-6.44-2.08.22Z" fill="#ebb9a0"/><path d="M210,52.46l-.89,5h0l-.51,1.88.29,1.18.36.43,0-.1a5.81,5.81,0,0,1,.1-2.91c.15-.89,1.5-7.51,1.5-9.51a4.49,4.49,0,0,1,1.4,0l.36-2.17-2.08.22Z" fill="#000100" opacity=".1"/><path d="M219.88,47.41l-.79-1.52a1.84,1.84,0,0,0-1.21-1.09l-2.92-1v-.06a.08.08,0,0,1,0,0h0l-.1,0-.1,0h0a.08.08,0,0,1,0,0v.06l-3,1a1.79,1.79,0,0,0-1.08.88l-.07.14c0,.11-.63,1.68-.63,1.68s.92.51,1.57.89c0-.11.67,5.36.67,5.36l-.79,3a15.72,15.72,0,0,0-.15,2.14v4.58h7.22l.13-4.15a10.92,10.92,0,0,0-.23-2.5l-1.14-3.06.35-5C218.22,48.37,219.75,47.45,219.88,47.41Z" fill="#0f7275"/><path d="M211.54 48.42c0-.11.67 5.36.67 5.36l-.79 3a15.72 15.72 0 0 0-.15 2.14v4.58h.7a36.2 36.2 0 0 1 .1-6.83c.13-1 .78-3.11.77-3.2-.14-1-1-4.52-1.17-5.24C211.61 48.28 211.51 48.39 211.54 48.42zM213.83 44.09l-2.08.73a1.79 1.79 0 0 0-1.08.88l-.07.14a1.55 1.55 0 0 0-.07.18h0l-.56 1.5.43.23a16.11 16.11 0 0 1 .87-2.18c.37-.6 2.47-1.32 2.47-1.32C213.9 44.11 213.79 44.12 213.83 44.09z" fill="#000100" opacity=".1"/><path d="M212.72,42a1.84,1.84,0,0,0,3.69,0V39.73h-3.69Z" fill="#ebb9a0"/><path d="M213.69,44.2a7.42,7.42,0,0,0,1.12.17,4.54,4.54,0,0,0,1.08-.16V42.29h-2.2Z" fill="#ebb9a0"/><path fill="#000100" opacity=".1" d="M211.32 63.48L212.41 78.2 212.56 78.19 211.77 63.86 213.99 63.48 211.32 63.48zM215.83 63.48L216.93 78.22 217.07 78.2 216.25 63.87 218.5 63.48 215.83 63.48z"/><path d="M216.93,78.2l-1.33.72a1,1,0,0,0-1,.83h3.84a2.9,2.9,0,0,0-.24-1.56Z" fill="#0f7275"/><path d="M215.59,78.93a1,1,0,0,0-1,.83h1.07a18,18,0,0,1,1.78-1.56h-.52Z" fill="#000100" opacity=".1"/><path d="M215.3,37.68h-1.18a2,2,0,0,0-2,2v2.49a1.4,1.4,0,0,0,1.4,1.4H216a1.4,1.4,0,0,0,1.4-1.4l-.16-2.49A2,2,0,0,0,215.3,37.68Z" fill="#fed16a"/><path fill="#ebb9a0" d="M146.29 54.71L147.56 54.87 147.56 39.8 144.86 39.8 146.29 54.71zM141.73 54.71L143 54.87 143 39.8 140.31 39.8 141.73 54.71zM149.17 28.67l-1.05-6.52-2 .26 1.59 6.54.73 4.86h0L148.11 35l-.1 1.27c.31 0 .43-.39.47-.66s.24-.18.24-.18.11 1.4.14 1.71a.25.25 0 0 0 .32.24l.44-.55.26-1.2-.57-1.89z"/><path d="M147.36,25.08c0-.2.56-.71,1-1.16l-.28-1.77-2,.26,1.59,6.54.73,4.86h0L148.11,35l-.1,1.27a.31.31,0,0,0,.16,0,18.86,18.86,0,0,0,.52-2.23c0-.46-.48-4.48-.63-5.49S147.46,26.1,147.36,25.08Z" fill="#000100" opacity=".1"/><path d="M141.73,54.66l-2.14.74a1,1,0,0,0-1,.84h4.67a2.93,2.93,0,0,0-.24-1.58Z" fill="#6ba96b"/><path d="M139.59,55.4a1,1,0,0,0-1,.84h1.52a23.94,23.94,0,0,1,2.22-1.58h-.61Z" fill="#000100" opacity=".1"/><path d="M139,28.67l-.9,5.07h0l-.52,1.9.3,1.19.45.53a.25.25,0,0,0,.31-.24c0-.31.09-1.71.09-1.71s.2-.09.24.18.18.67.49.65L139.32,35,139,33.82h0l1.51-4.94,1.09-6.51-2.1.23Z" fill="#ebb9a0"/><path d="M139,28.67l-.9,5.07h0l-.52,1.9.3,1.19.36.43,0-.1a5.87,5.87,0,0,1,.11-2.94c.15-.9,1.51-7.58,1.51-9.61a4.54,4.54,0,0,1,1.42,0l.37-2.19-2.1.23Z" fill="#000100" opacity=".1"/><path d="M148.95,23.57l-.8-1.53a1.86,1.86,0,0,0-1.22-1.11l-2.94-1v-.06a.09.09,0,0,1,0,0h0l-.1,0-.1,0h0a.07.07,0,0,1,0,0v.06l-3,1a1.81,1.81,0,0,0-1.09.89l-.07.14c0,.11-.63,1.7-.63,1.7s.93.52,1.58.9c-.06.44-.08.77-.08.77v.09a1.26,1.26,0,0,0,.58,1.08l.18,3.48-.8,3a15.89,15.89,0,0,0-.15,2.16V39.8h7.29l.13-4.19a11,11,0,0,0-.23-2.53L146.3,30l.35-5.09C147.27,24.53,148.82,23.61,148.95,23.57Z" fill="#e6dcd1"/><path d="M142.84 20.21l-2.1.73a1.81 1.81 0 0 0-1.09.89l-.07.14a1.55 1.55 0 0 0-.07.18h0L139 23.68l.44.23a16.28 16.28 0 0 1 .88-2.21c.38-.6 2.49-1.34 2.49-1.34C142.91 20.23 142.8 20.25 142.84 20.21zM146.65 24.9L146.94 24.73 146.23 23.2 146.65 24.9zM140.31 39.8L141.72 54.67 141.87 54.66 140.76 40.18 143 39.8 140.31 39.8zM144.86 39.8L146.29 54.68 146.43 54.67 145.28 40.2 147.56 39.8 144.86 39.8z" fill="#000100" opacity=".1"/><path d="M146.29,54.67l-1.35.73a1,1,0,0,0-1,.84h3.88a2.93,2.93,0,0,0-.24-1.58Z" fill="#6ba96b"/><path d="M144.94,55.4a1,1,0,0,0-1,.84H145a18.16,18.16,0,0,1,1.79-1.57h-.52Z" fill="#000100" opacity=".1"/><g clip-path="url(#a)"><path d="M157.89,18.64h-.32v.59h-1.74v-.59h-.32v.59h-1.74v-.59h-.32v.59H151.7v-.59h-.32v.59h-1.74v-.59h-.32v.59h-1.74v-.59h-.32v.59h-1.74v-.59h-.32v.59h-1.74v-.59h-.32v.59h-1.74v-.59h-.32v.59h-1.74v-.59H139v.59h-1.74v-.59H137v.59h-.59v.32H137V21.3h-.59v.32H137v1.74h-.59v.32H137v1.74h-.59v.32H137v1.74h-.59v.32H137v1.74h-.59v.32H137v1.74h-.59v.32H137v1.74h-.59V34H137v1.74h-.59V36H137v1.74h-.59v.32H137v1.74h-.59v.32H137v.59h.32v-.59H139v.59h.32v-.59h1.74v.59h.32v-.59h1.74v.59h.32v-.59h1.74v.59h.32v-.59h1.74v.59h.32v-.59h1.74v.59h.32v-.59h1.74v.59h.32v-.59h1.74v.59h.32v-.59h1.74v.59h.32v-.59h1.74v.59h.32v-.59h.59v-.32h-.59V38.11h.59v-.32h-.59V36h.59v-.32h-.59V34h.59v-.32h-.59V31.92h.59v-.32h-.59V29.86h.59v-.32h-.59V27.8h.59v-.32h-.59V25.74h.59v-.32h-.59V23.68h.59v-.32h-.59V21.62h.59V21.3h-.59V19.55h.59v-.32h-.59ZM139,39.85h-1.74V38.11H139Zm0-2.06h-1.74V36H139Zm0-2.06h-1.74V34H139Zm0-2.06h-1.74V31.92H139Zm0-2.06h-1.74V29.86H139Zm0-2.06h-1.74V27.8H139Zm0-2.06h-1.74V25.74H139Zm0-2.06h-1.74V23.68H139Zm0-2.06h-1.74V21.62H139Zm0-2.06h-1.74V19.55H139Zm2.06,18.55h-1.74V38.11h1.74Zm0-2.06h-1.74V36h1.74Zm0-2.06h-1.74V34h1.74Zm0-2.06h-1.74V31.92h1.74Zm0-2.06h-1.74V29.86h1.74Zm0-2.06h-1.74V27.8h1.74Zm0-2.06h-1.74V25.74h1.74Zm0-2.06h-1.74V23.68h1.74Zm0-2.06h-1.74V21.62h1.74Zm0-2.06h-1.74V19.55h1.74Zm2.06,18.55h-1.74V38.11h1.74Zm0-2.06h-1.74V36h1.74Zm0-2.06h-1.74V34h1.74Zm0-2.06h-1.74V31.92h1.74Zm0-2.06h-1.74V29.86h1.74Zm0-2.06h-1.74V27.8h1.74Zm0-2.06h-1.74V25.74h1.74Zm0-2.06h-1.74V23.68h1.74Zm0-2.06h-1.74V21.62h1.74Zm0-2.06h-1.74V19.55h1.74Zm2.06,18.55h-1.74V38.11h1.74Zm0-2.06h-1.74V36h1.74Zm0-2.06h-1.74V34h1.74Zm0-2.06h-1.74V31.92h1.74Zm0-2.06h-1.74V29.86h1.74Zm0-2.06h-1.74V27.8h1.74Zm0-2.06h-1.74V25.74h1.74Zm0-2.06h-1.74V23.68h1.74Zm0-2.06h-1.74V21.62h1.74Zm0-2.06h-1.74V19.55h1.74Zm2.06,18.55h-1.74V38.11h1.74Zm0-2.06h-1.74V36h1.74Zm0-2.06h-1.74V34h1.74Zm0-2.06h-1.74V31.92h1.74Zm0-2.06h-1.74V29.86h1.74Zm0-2.06h-1.74V27.8h1.74Zm0-2.06h-1.74V25.74h1.74Zm0-2.06h-1.74V23.68h1.74Zm0-2.06h-1.74V21.62h1.74Zm0-2.06h-1.74V19.55h1.74Zm2.06,18.55h-1.74V38.11h1.74Zm0-2.06h-1.74V36h1.74Zm0-2.06h-1.74V34h1.74Zm0-2.06h-1.74V31.92h1.74Zm0-2.06h-1.74V29.86h1.74Zm0-2.06h-1.74V27.8h1.74Zm0-2.06h-1.74V25.74h1.74Zm0-2.06h-1.74V23.68h1.74Zm0-2.06h-1.74V21.62h1.74Zm0-2.06h-1.74V19.55h1.74Zm2.06,18.55h-1.74V38.11h1.74Zm0-2.06h-1.74V36h1.74Zm0-2.06h-1.74V34h1.74Zm0-2.06h-1.74V31.92h1.74Zm0-2.06h-1.74V29.86h1.74Zm0-2.06h-1.74V27.8h1.74Zm0-2.06h-1.74V25.74h1.74Zm0-2.06h-1.74V23.68h1.74Zm0-2.06h-1.74V21.62h1.74Zm0-2.06h-1.74V19.55h1.74Zm2.06,18.55H151.7V38.11h1.74Zm0-2.06H151.7V36h1.74Zm0-2.06H151.7V34h1.74Zm0-2.06H151.7V31.92h1.74Zm0-2.06H151.7V29.86h1.74Zm0-2.06H151.7V27.8h1.74Zm0-2.06H151.7V25.74h1.74Zm0-2.06H151.7V23.68h1.74Zm0-2.06H151.7V21.62h1.74Zm0-2.06H151.7V19.55h1.74Zm2.06,18.55h-1.74V38.11h1.74Zm0-2.06h-1.74V36h1.74Zm0-2.06h-1.74V34h1.74Zm0-2.06h-1.74V31.92h1.74Zm0-2.06h-1.74V29.86h1.74Zm0-2.06h-1.74V27.8h1.74Zm0-2.06h-1.74V25.74h1.74Zm0-2.06h-1.74V23.68h1.74Zm0-2.06h-1.74V21.62h1.74Zm0-2.06h-1.74V19.55h1.74Zm2.06,18.55h-1.74V38.11h1.74Zm0-2.06h-1.74V36h1.74Zm0-2.06h-1.74V34h1.74Zm0-2.06h-1.74V31.92h1.74Zm0-2.06h-1.74V29.86h1.74Zm0-2.06h-1.74V27.8h1.74Zm0-2.06h-1.74V25.74h1.74Zm0-2.06h-1.74V23.68h1.74Zm0-2.06h-1.74V21.62h1.74Zm0-2.06h-1.74V19.55h1.74Z" fill="#25557e"/></g><path d="M141.64,26.6a2.18,2.18,0,0,1-.93-1.78,3.22,3.22,0,0,0-.12-.74c0,.37-.14,1.27-.14,1.27v.09a1.26,1.26,0,0,0,.58,1.08l.18,3.48-.8,3a15.89,15.89,0,0,0-.15,2.16V39.8h1.08a39.27,39.27,0,0,1-.11-6.07,26.9,26.9,0,0,1,.5-3.52,24.05,24.05,0,0,0-.09-3.43Q141.64,26.69,141.64,26.6Z" fill="#000100" opacity=".1"/><path d="M144.33,13.74h-1.19a2,2,0,0,0-2,2v2.52a1.41,1.41,0,0,0,1.41,1.41h2.49a1.41,1.41,0,0,0,1.41-1.41l-.16-2.52A2,2,0,0,0,144.33,13.74Z" fill="#df3d58"/><path d="M141.72,18.05a1.86,1.86,0,0,0,3.73,0V15.8h-3.73Z" fill="#ebb9a0"/><path d="M142.7,20.88a1.11,1.11,0,0,0,2.22,0V18.39H142.7Z" fill="#ebb9a0"/><path d="M145.36,15.46h-.13l-.49-.24v.24h-.6v.34a.56.56,0,0,1,.59.59h0v3.26h.45l.56-1,0-2.92-.41-.2Z" fill="#df3d58"/><path d="M142.7 19.69v.2a1.29 1.29 0 0 0 1.55-.31A1.71 1.71 0 0 1 142.7 19.69zM142.69 16.55L142.48 18s.33.46.68-.05h-.51z" fill="#000100" opacity=".1"/><path fill="#c39276" d="M50.87 91.96L52.12 92.11 52.44 77.2 49.77 77.2 50.87 91.96zM46.35 91.96L47.61 92.11 47.92 77.2 45.25 77.2 46.35 91.96zM54 66.18l-1-6.45L51 60l1.57 6.47.73 4.81h0L53 72.4l-.1 1.26c.31 0 .43-.39.47-.65s.24-.18.24-.18.1 1.39.13 1.69a.24.24 0 0 0 .31.23l.43-.54L54.73 73l-.56-1.87z"/><path d="M52.24,62.63c0-.2.56-.7,1-1.15L53,59.73,51,60l1.57,6.47.73,4.81h0L53,72.4l-.1,1.26a.31.31,0,0,0,.16,0,18.66,18.66,0,0,0,.51-2.2c0-.46-.47-4.44-.62-5.43S52.34,63.63,52.24,62.63Z" fill="#000100" opacity=".1"/><path d="M46.35,91.91l-2.12.73a1,1,0,0,0-1,.83h4.62a2.9,2.9,0,0,0-.24-1.56Z" fill="#0f7275"/><path d="M44.23,92.64a1,1,0,0,0-1,.83h1.51a23.69,23.69,0,0,1,2.2-1.56h-.6Z" fill="#000100" opacity=".1"/><path d="M44,66.18l-.89,5h0l-.51,1.88.29,1.18.45.53a.24.24,0,0,0,.31-.24c0-.31.09-1.7.09-1.7s.2-.09.24.18.18.66.48.64l-.13-1.26L44,71.27h0l1.5-4.89,1.07-6.44-2.08.22Z" fill="#c39276"/><path d="M44,66.18l-.89,5h0l-.51,1.88.29,1.18.36.43,0-.1a5.81,5.81,0,0,1,.1-2.91c.15-.89,1.5-7.51,1.5-9.51a4.49,4.49,0,0,1,1.4,0l.36-2.17-2.08.22Z" fill="#000100" opacity=".1"/><path d="M53.81,61.13,53,59.61a1.84,1.84,0,0,0-1.21-1.09l-2.92-1v-.06a.07.07,0,0,1,0,0h0l-.1,0-.1,0h0a.07.07,0,0,1,0,0v.06l-3,1a1.8,1.8,0,0,0-1.08.88l-.07.14c0,.11-.63,1.68-.63,1.68s.92.51,1.57.89c0-.11.67,5.36.67,5.36l-.79,3a15.72,15.72,0,0,0-.15,2.14V77.2h7.22l.13-4.15a10.91,10.91,0,0,0-.23-2.5l-1.14-3.06.35-5C52.15,62.08,53.68,61.17,53.81,61.13Z" fill="#e6dcd1"/><path d="M51.19,67.49l-5,0-.78,3a15.72,15.72,0,0,0-.15,2.14V77.2h7.22l.13-4.15a10.91,10.91,0,0,0-.23-2.5Z" fill="#ea5164"/><path d="M47.76,57.8l-2.08.73a1.8,1.8,0,0,0-1.08.88l-.07.14a1.56,1.56,0,0,0-.07.18h0l-.56,1.5.43.23a16.11,16.11,0,0,1,.87-2.18c.37-.6,2.47-1.32,2.47-1.32C47.84,57.83,47.72,57.84,47.76,57.8Z" fill="#000100" opacity=".1"/><path d="M46.65,55.67a1.84,1.84,0,1,0,3.69,0V53.44H46.65Z" fill="#ebb9a0"/><path d="M47.62,57.91a7.42,7.42,0,0,0,1.12.17,4.54,4.54,0,0,0,1.08-.16V56h-2.2Z" fill="#ebb9a0"/><path fill="#000100" opacity=".1" d="M45.25 77.2L46.34 91.92 46.49 91.9 45.7 77.58 47.92 77.2 45.25 77.2zM49.77 77.2L50.86 91.93 51 91.92 50.18 77.59 52.44 77.2 49.77 77.2z"/><path d="M50.86,91.92l-1.33.72a1,1,0,0,0-1,.83h3.84a2.9,2.9,0,0,0-.24-1.56Z" fill="#0f7275"/><path d="M49.53,92.64a1,1,0,0,0-1,.83h1.07a18,18,0,0,1,1.78-1.56h-.52Z" fill="#000100" opacity=".1"/><path d="M49.24,51.4H48.06a2,2,0,0,0-2,2v7.08a1.4,1.4,0,0,0,1.4,1.4H50a1.4,1.4,0,0,0,1.4-1.4l-.16-7.08A2,2,0,0,0,49.24,51.4Z" fill="#623f3b"/><path d="M45.47,62.13c0-.11.67,5.36.67,5.36l-.79,3a15.72,15.72,0,0,0-.15,2.14V77.2h.7a36.2,36.2,0,0,1,.1-6.83c.13-1,.78-3.11.77-3.2-.14-1-1-4.52-1.17-5.24C45.53,62,45.43,62.11,45.47,62.13Z" fill="#000100" opacity=".1"/><path fill="#ebb9a0" d="M246.06 106.44L247.33 106.59 247.33 91.49 244.63 91.49 246.06 106.44zM241.5 106.44L242.77 106.59 242.77 91.49 240.07 91.49 241.5 106.44zM248.95 80.33l-1.05-6.53-2 .26 1.59 6.55.74 4.87h0l-.29 1.16-.1 1.27c.31 0 .44-.39.47-.66s.24-.19.24-.19.11 1.4.14 1.71A.25.25 0 0 0 249 89l.44-.55.26-1.2-.57-1.89z"/><path d="M247.13,76.74c0-.2.57-.71,1-1.17l-.28-1.77-2,.26,1.59,6.55.74,4.87h0l-.29,1.16-.1,1.27a.31.31,0,0,0,.16,0,18.92,18.92,0,0,0,.52-2.23c0-.46-.48-4.49-.63-5.5S247.24,77.75,247.13,76.74Z" fill="#000100" opacity=".1"/><path d="M241.49,106.38l-2.14.74a1,1,0,0,0-1,.84H243a2.94,2.94,0,0,0-.24-1.58Z" fill="#0f7275"/><path d="M239.35,107.13a1,1,0,0,0-1,.84h1.53a24,24,0,0,1,2.23-1.58h-.61Z" fill="#000100" opacity=".1"/><path d="M238.76,80.33l-.9,5.08h0l-.52,1.91.3,1.19.45.54a.25.25,0,0,0,.31-.25c0-.31.09-1.72.09-1.72s.2-.09.25.18.18.67.49.65l-.13-1.27-.32-1.15h0l1.52-4.95L241.36,74l-2.11.23Z" fill="#ebb9a0"/><path d="M238.76,80.33l-.9,5.08h0l-.52,1.91.3,1.19.36.43,0-.1a5.89,5.89,0,0,1,.11-2.95c.15-.9,1.51-7.6,1.51-9.63a4.55,4.55,0,0,1,1.42,0l.37-2.2-2.11.23Z" fill="#000100" opacity=".1"/><path d="M246.07,81.66l0-.34c-1.71.16-3.42.17-5.13.17v.18l-.8,3a15.93,15.93,0,0,0-.15,2.16v4.63h7.31l.13-4.2a11.06,11.06,0,0,0-.23-2.53Z" fill="#0f7275"/><path fill="#000100" opacity=".1" d="M240.07 91.49L241.49 106.39 241.63 106.38 240.52 91.87 242.77 91.49 240.07 91.49zM244.63 91.49L246.06 106.41 246.2 106.39 245.05 91.89 247.33 91.49 244.63 91.49z"/><path d="M246.06,106.4l-1.35.73a1,1,0,0,0-1,.84h3.88a2.93,2.93,0,0,0-.24-1.58Z" fill="#0f7275"/><path d="M244.71,107.13a1,1,0,0,0-1,.84h1.09a18.19,18.19,0,0,1,1.8-1.58h-.52Z" fill="#000100" opacity=".1"/><path d="M244.1,65.37H242.9a2,2,0,0,0-2,2v2.53a1.42,1.42,0,0,0,1.42,1.42h2.5a1.42,1.42,0,0,0,1.42-1.42l-.16-2.53A2,2,0,0,0,244.1,65.37Z" fill="#df3d58"/><path d="M241.48,69.69a1.87,1.87,0,1,0,3.73,0V67.43h-3.73Z" fill="#ebb9a0"/><path d="M242.46,72.52a1.11,1.11,0,1,0,2.22,0V70h-2.22Z" fill="#ebb9a0"/><path d="M245.13,67.09H245l-.49-.25v.25h-.6v.34a.56.56,0,0,1,.59.59h0v3.27H245l.57-1,0-2.93-.41-.2Z" fill="#df3d58"/><path d="M242.46 71.33v.2a1.29 1.29 0 0 0 1.55-.31A1.71 1.71 0 0 1 242.46 71.33zM242.45 68.18l-.21 1.42s.33.46.68-.06h-.52z" fill="#000100" opacity=".1"/><path d="M249.24,80.2,248,73.77a1.86,1.86,0,0,0-1.23-1.1L244.94,72a1.85,1.85,0,0,1-3.12.17l-1.32.45h0a1.82,1.82,0,0,0-1.1.89l-.14.33h0l-.88,6.47s-.77,4.93-.77,4.93a5.35,5.35,0,0,1,1.13.25s1.83-5.48,1.83-5.48c0,.46.22,2.32.22,2.32l5.56,0,.34-4.85a23.78,23.78,0,0,0,.67,3,44.73,44.73,0,0,0,.75,5,8.48,8.48,0,0,0,1.2-.08S249.21,80.21,249.24,80.2Z" fill="#25557e"/><g opacity=".1" fill="#000100"><path d="M240.5 72.67h0a1.82 1.82 0 0 0-1.1.89l-.14.33h0l-.88 6.47s-.77 4.93-.77 4.93l.49.08a34 34 0 0 1 .92-6.15c.46-2 .71-4.22 1.77-6a1.78 1.78 0 0 1 1.16-.86l-.13-.17zM246.85 77.41l-.11-.26a2.15 2.15 0 0 1 0 .34 23.83 23.83 0 0 0 .66 3 44.73 44.73 0 0 0 .75 5 .56.56 0 0 0 .23 0 30.3 30.3 0 0 0-.77-5.44A19.92 19.92 0 0 0 246.85 77.41z"/></g><path d="M246 72.05c-.21-.13-1.28-.59-1.28-.59 0 2-1.44 1.9-1.44 1.9a2.46 2.46 0 0 0 .25.94.48.48 0 0 0 .55.21c1.95-.75 2.12-2 2.12-2A.52.52 0 0 0 246 72.05zM242.46 71.5s-1 .47-1.24.61a.52.52 0 0 0-.2.43 2.57 2.57 0 0 0 1.42 2 .48.48 0 0 0 .55-.21 2.46 2.46 0 0 0 .25-.94S242.41 73.5 242.46 71.5z" fill="#25557e"/><path fill="#25557e" d="M243.33 73.36H243.65V82.37H243.33zM242.89 73.36H243.20999999999998V82.37H242.89zM249.34 84.83l-1.26.14a.22.22 0 0 0-.2.25l0 .38a.22.22 0 0 0 .25.2l1.26-.14a.22.22 0 0 0 .2-.25l0-.38A.22.22 0 0 0 249.34 84.83zM243.91 73.28L244.59 79.83 246.41 79.56 244.88 71.94 243.91 73.28z"/><path fill="#25557e" d="M242.15 80L243.99 80.09 244.01 72.32 242.79 73.44 242.15 80z"/><path d="M242,71.25l-.08,1s.64,2.08,2.77.84a2.06,2.06,0,0,0,.71-1l-.36-.91A2.74,2.74,0,0,1,242,71.25Z" fill="#e6dcd1"/><path d="M239,84.88l-1.26-.14a.22.22,0,0,0-.25.2l0,.38a.22.22,0,0,0,.2.25l1.26.14a.22.22,0,0,0,.25-.2l0-.38A.22.22,0,0,0,239,84.88Z" fill="#25557e"/><path fill="#000100" opacity=".1" d="M240.43 77.69L240.59 80.56 240.79 82.37 241.04 82.36 240.71 78.14 240.43 77.69z"/><path fill="#0f7275" d="M241.49 106.39L242.89 106.7 243.05 102.28 240.8 102.44 241.49 106.39zM246.03 106.39L247.44 106.7 247.59 102.28 245.34 102.44 246.03 106.39z"/><path fill="#ebb9a0" d="M35.3 132.65L36.51 132.5 37.87 118.3 35.3 118.3 35.3 132.65z"/><path fill="#000100" opacity=".1" d="M35.3 132.65L35.55 132.63 35.8 118.68 37.87 118.3 35.3 118.3 35.3 132.65z"/><path fill="#ebb9a0" d="M39.64 132.65L40.85 132.5 42.21 118.3 39.64 118.3 39.64 132.65zM33.76 107.69l-.13 4.79-.54 1.8.25 1.14.42.52a.24.24 0 0 0 .3-.22c0-.3.13-1.63.13-1.63s.19-.08.23.18.15.64.45.63l-.09-1.21-.28-1.1h0l.7-4.63 1.51-6.23-1.94-.24z"/><path d="M33.76,107.69l-.13,4.79-.54,1.8.25,1.14.09.12a8.61,8.61,0,0,1,.24-1.89c.1-.4.29-.77.38-1.16s0-3.65.13-4.67.45-3.14.63-4.05a5.06,5.06,0,0,0,1.28.53l.6-2.57-1.94-.24Z" fill="#000100" opacity=".1"/><path d="M37.8,133.16l-1.28-.7H35.28a2.79,2.79,0,0,0-.23,1.5h3.69A1,1,0,0,0,37.8,133.16Z" fill="#0f7275"/><path d="M35.6,132.45h-.31a2.79,2.79,0,0,0-.23,1.5h.7a1.83,1.83,0,0,1-.26-1.05A1.53,1.53,0,0,1,35.6,132.45Z" fill="#000100" opacity=".1"/><path d="M42.89,133.16l-2-.71h-1.3a2.79,2.79,0,0,0-.23,1.5h4.45A1,1,0,0,0,42.89,133.16Z" fill="#0f7275"/><path d="M39.85,132.85a2,2,0,0,1,.09-.4h-.32a2.79,2.79,0,0,0-.23,1.5h.77A1.49,1.49,0,0,1,39.85,132.85Z" fill="#000100" opacity=".1"/><path d="M44.31,112.52l-.86-4.83L43,101.91l-2-.21,1,6.2,1.44,4.7h0l-.31,1.09L43,114.9c.3,0,.42-.36.47-.61s.23-.17.23-.17.06,1.34.08,1.63a.24.24,0,0,0,.3.23l.43-.51.28-1.13-.49-1.81Z" fill="#ebb9a0"/><path d="M42.27,104s.84-.58.84-.58L43,101.91l-2-.21,1,6.2,1.44,4.7h0l-.31,1.09L43,114.9a.29.29,0,0,0,.18,0s.42-1.83.51-2.17l-1.11-4.77A36.28,36.28,0,0,1,42.27,104Z" fill="#000100" opacity=".1"/><path d="M36.88,97.15l.43.43a2.1,2.1,0,0,0,1.78,1.78,1.78,1.78,0,0,0,1.78-1.78v-3l-4.13,1.08Z" fill="#ebb9a0"/><path d="M37.81,100.27c0,.58,1.2.73,1.2.73.58,0,.91-.15.91-.73V97.9H37.81Z" fill="#ebb9a0"/><path d="M43,101.49a1.5,1.5,0,0,0-.07-.17l-.07-.14a1.73,1.73,0,0,0-1-.85l-1.53-.54a1.42,1.42,0,0,1-.1.39h0v0A1.17,1.17,0,0,1,39,101a1.22,1.22,0,0,1-1.24-1.33l-1.86.65a1.77,1.77,0,0,0-1.17,1.05L34,102.83c.12,0,1.6.92,2.19,1.27l.34,5h4.83l.18-3.45a1.2,1.2,0,0,0,.55-1v-.08s0-.31-.08-.73c.62-.37,1.42-.83,1.51-.86Z" fill="#e6dcd1"/><path fill="#000100" opacity=".1" d="M39.64 132.46L39.94 132.46 39.95 118.7 42.21 118.3 39.64 118.3 39.64 132.46zM38.46 99a1.23 1.23 0 0 0 1.47.3v-.19A1.63 1.63 0 0 1 38.46 99z"/><path d="M39 93.67a2.08 2.08 0 0 0-2.37 2.14 4.21 4.21 0 0 0 1.18 2.87l-.3-1.32s-.5.07-.5-1c0-.37.15-.38.26-.38s.27.24.27.24h.19V96a.62.62 0 0 1 .63-.62l.64 0A4.57 4.57 0 0 1 39 93.67zM41.34 108.93H36.51l-1.11 3a10.51 10.51 0 0 0-.22 2.41l.12 4h6.95v-4.4a15.13 15.13 0 0 0-.14-2.06z" fill="#df3d58"/><path d="M39.21 93.65l-.52 0-.39 1.69s1.3.09 1.74-.51c0 0 1 .94 1 1.6a4.07 4.07 0 0 0 .14-1.26S41.18 93.65 39.21 93.65zM37 95s-.36-.7-.78-.25-.45 2.59.66 2.44C36.91 97.21 36.21 95.37 37 95z" fill="#df3d58"/><path fill="#000100" opacity=".1" d="M41.99 103.8L42.27 103.64 41.61 102.46 41.99 103.8zM39.94 97.54h-.49c.33.49.65.05.65.05l-.2-1.35zM35.9 100.32a1.77 1.77 0 0 0-1.17 1.05L34 102.83c.05 0 .36.19.73.41.27-.66.84-1.72 1-2a2.62 2.62 0 0 1 1.55-1.11 1.21 1.21 0 0 1-.15-.24zM36.66 104.34l-.5-.23L36.5 109l-1.1 2.95a10.51 10.51 0 0 0-.22 2.41l.12 4h.59s-.09-3.11 0-4.17A18.59 18.59 0 0 1 37 109h0v0h0v0l0-3.39-.29-.53C36.71 104.7 36.68 104.46 36.66 104.34z"/><path d="M37,99.91l1.47,1.93.64-.81s-1.42-1.62-1.42-1.62Z" fill="#df3d58"/><path d="M39.06,101l.64.81L40.78,100l-.69-.5S39.06,101,39.06,101Z" fill="#df3d58"/><path d="M41.28,101.74s-4.73.17-4.73.82l-.09,2.06a1.14,1.14,0,0,0,1.08,1.18H41a1.14,1.14,0,0,0,1.08-1.18v-.08S41.87,101.74,41.28,101.74Z" fill="#e6dcd1"/><path d="M187.13,69.5l1.63-.58.3-3h-1.63A15.56,15.56,0,0,0,187.13,69.5Z" fill="#d8ac94"/><path d="M192.65,56.77h-1.13a1.89,1.89,0,0,0-1.89,1.89L189.47,65a1.35,1.35,0,0,0,1.35,1.35h2.37A1.35,1.35,0,0,0,194.54,65V58.66A1.89,1.89,0,0,0,192.65,56.77Z" fill="#fed16a"/><path fill="#ebb9a0" d="M188.43 95.95L189.64 95.8 191 81.6 188.43 81.6 188.43 95.95z"/><path fill="#000100" opacity=".1" d="M188.43 95.95L188.69 95.92 188.94 81.98 191 81.6 188.43 81.6 188.43 95.95z"/><path fill="#ebb9a0" d="M192.78 95.95L193.99 95.8 195.35 81.6 192.78 81.6 192.78 95.95z"/><path d="M190.93,96.46l-1.29-.7h-1.22a2.79,2.79,0,0,0-.23,1.5h3.69A1,1,0,0,0,190.93,96.46Z" fill="#623f3b"/><path d="M188.73,95.75h-.31a2.79,2.79,0,0,0-.23,1.5h.7a1.84,1.84,0,0,1-.26-1.05A1.53,1.53,0,0,1,188.73,95.75Z" fill="#000100" opacity=".1"/><path d="M196,96.46l-2-.71h-1.3a2.79,2.79,0,0,0-.23,1.5H197A1,1,0,0,0,196,96.46Z" fill="#623f3b"/><path d="M193 96.15a2 2 0 0 1 .09-.4h-.32a2.79 2.79 0 0 0-.23 1.5h.77A1.49 1.49 0 0 1 193 96.15zM189 63.62a1.77 1.77 0 0 0-1.17 1.05l-.76 1.46c.05 0 .36.19.73.41.27-.66.84-1.72 1-2 .42-.82 1.47-1.05 2.17-1.35 0 0 1.09-.56 1.09-.62a.07.07 0 0 1 0 0h0z" fill="#000100" opacity=".1"/><path d="M197.45,75.82,196.59,71l-.47-5.78-2-.21,1,6.2,1.44,4.7h0L196.29,77l-.13,1.21c.3,0,.42-.36.47-.61s.23-.17.23-.17.06,1.34.08,1.63a.24.24,0,0,0,.3.23l.43-.51.28-1.13-.49-1.81Z" fill="#ebb9a0"/><path d="M195.41,67.35s.83-.58.83-.58l-.11-1.56-2-.21,1,6.2,1.44,4.7h0L196.29,77l-.13,1.21a.29.29,0,0,0,.18,0s.42-1.83.51-2.17l-1.11-4.77A36.29,36.29,0,0,1,195.41,67.35Z" fill="#000100" opacity=".1"/><path d="M196.64,66.24l-.53-1.45-.14-.31a1.73,1.73,0,0,0-1-.85l-2.84-1v-.06a.07.07,0,0,1,0,0h0l-.09,0-.09,0h0a.08.08,0,0,1,0,0v.06l-2.81,1a1.77,1.77,0,0,0-1.17,1.05l-.76,1.46c.12,0,1.6.92,2.19,1.27l.33,4.85-1.1,2.95a10.51,10.51,0,0,0-.22,2.41l.12,4h6.95V77.2a15.13,15.13,0,0,0-.14-2.06l-.76-2.88.25-4.93C195.35,67,196.53,66.28,196.64,66.24Z" fill="#25557e"/><path d="M190.45,60.88a1.78,1.78,0,1,0,3.55,0V58.74h-3.55Z" fill="#ebb9a0"/><path d="M191,63.57a1.06,1.06,0,1,0,2.12,0V61.2H191Z" fill="#ebb9a0"/><path fill="#fed16a" d="M190.16 61.45L190.7 62.4 190.95 62.91 191.2 58.21 190.14 58.66 190.16 61.45z"/><path d="M190.53,59.07l.59.23a.54.54,0,0,1,.56-.56v-.33h-1.16Z" fill="#fed16a"/><path d="M189.79,67.64l-.5-.23.34,4.85-1.1,2.95a10.51,10.51,0,0,0-.22,2.41l.12,4H189s-.09-3.11,0-4.17a18.59,18.59,0,0,1,1.14-5.16h0v0h0v0l0-3.39-.29-.53C189.85,68,189.82,67.76,189.79,67.64Z" fill="#000100" opacity=".1"/><path d="M194.4,65s-4.73.17-4.73.82l-.09,2.06a1.14,1.14,0,0,0,1.08,1.18h3.47a1.14,1.14,0,0,0,1.08-1.18v-.08S195,65,194.4,65Z" fill="#25557e"/><path fill="#000100" opacity=".1" d="M192.76 95.75L193.07 95.75 193.09 82 195.35 81.6 192.78 81.6 192.76 95.75zM191.59 62.34a1.23 1.23 0 0 0 1.47.3v-.19A1.63 1.63 0 0 1 191.59 62.34zM193.08 60.89h-.49c.33.49.65.05.65.05L193 59.6z"/><rect x="189.59" y="58.97" width="1.82" height="3.19" rx=".19" ry=".19" transform="rotate(-13.2 190.537 60.583)" fill="#0f7275"/><path d="M191.31,60c.08-.16.06-.28,0-.31s-.14,0-.14,0l-.31.11a16.45,16.45,0,0,0-1.14,4c-.17.71-.39,1.44-.52,2.18a.76.76,0,0,1,.18.94,2.51,2.51,0,0,0-.16.58.55.55,0,0,1,.09.31c0,.25.06.66.08.9,0-.21.13-.62.14-.87l.32-4.45a1.32,1.32,0,0,0,.45-.73l.4-.93.48-.39c.2-.12.3-.52.13-.49l-.65.31.32-.59.44-.31c.14-.15.1-.26.06-.29S191.31,60,191.31,60Z" fill="#000100" opacity=".1"/><path d="M191.13,60c.08-.16.06-.28,0-.31s-.14,0-.14,0l-.72.25-.21.12,0-.06a2.34,2.34,0,0,0,.37-.36.24.24,0,0,0,0-.37l-.78.45-.43.83-.26.49-.19.85-.23,1.37-1.41,5s-.41,2.2,1,2.52c0,0,.81.35,1.07-3.11l.41-4.59a1.39,1.39,0,0,0,.55-.69l.31-.81.55-.33c.2-.12.31-.46.14-.43l-.69.26-.18.13.44-.64.54-.34c.14-.15.1-.26.06-.29S191.13,60,191.13,60Z" fill="#ebb9a0"/><path d="M190.46,59.3l-.78.45-.43.83-.26.49-.19.85-.23,1.37-1.41,5a3.34,3.34,0,0,0,.24,2c-.34-1.85.56-3.88,1.06-5.62s.58-4,2-5.35Z" fill="#000100" opacity=".1"/><path fill="#000100" opacity=".1" d="M189.86 61L190.3 60.48 191.13 60.02 191.16 59.94 190.23 60.41 189.86 61z"/><path d="M231.69 123.13l-1.52-4.45L229 112.11l-1.67 2 1.16 5.28 2.18 4.32h0l.2 1.16.47 1.32c.32-.13.26-.59.18-.87s.16-.29.16-.29.73 1.36.9 1.66a.27.27 0 0 0 .43.1l.19-.75-.27-1.32zM217.48 118.79l0 5.09-.57 2 .22 1.33.45.63a.27.27 0 0 0 .36-.24c.05-.34.25-1.87.25-1.87s.23-.08.25.22.14.75.48.75l0-1.4-.25-1.29h0l.7-5 1.86-6.14-2.47.9z" fill="#ebb9a0"/><path d="M217.48,118.79l0,5.09-.57,2,.22,1.33.45.63h0a5.87,5.87,0,0,1,0-2.51,10.53,10.53,0,0,1,.38-1.66c.15-.51-.16-3.88.29-5.4.16-.52.5-1.88.81-3.06,0,0,1.42.07,1.47-.08l-1.8-1.37Z" fill="#000100" opacity=".1"/><path d="M228.09,127.17,228,123.5s-7.42,0-7.45,0l-.14,3.7-.15,7.84-1.52,9.34,1.65.24,2.46-9.35,1.58-8.07h.19l1.88,7.84,1,9.8,1.59-.16,0-9.68Z" fill="#df3d58"/><path d="M220.37,127.17l-.15,7.84-1.52,9.34.14,0a60.39,60.39,0,0,1,1.45-6.14A19.38,19.38,0,0,0,221,133c0-1.17.35-7.42.4-8.58s4.25-.4,6.59-.87l-7.45,0Z" fill="#000100" opacity=".1"/><path d="M225.73,127.17h-1.15l1.88,7.84,1,9.8.56-.1s-.48-6-.67-9C227.28,133.84,225.76,127.27,225.73,127.17Z" fill="#000100" opacity=".1"/><path d="M222.67,146a10.85,10.85,0,0,1-1-.35l-1.27-1.05-1.64-.28a3.32,3.32,0,0,0-.51,1.81l2.74.61,2.26,0A.57.57,0,0,0,222.67,146Z" fill="#e6dcd1"/><path d="M219.38,144.43l-.67-.11a3.32,3.32,0,0,0-.51,1.81l1.41.31a2.36,2.36,0,0,1-.44-.86A1.22,1.22,0,0,1,219.38,144.43Z" fill="#000100" opacity=".1"/><path d="M231.78,145.23a10.85,10.85,0,0,1-1.11,0l-1.53-.62-1.65.23a3.32,3.32,0,0,0,.06,1.88l2.79-.24,2.14-.72A.57.57,0,0,0,231.78,145.23Z" fill="#e6dcd1"/><path d="M228.2 145.3a1.72 1.72 0 0 1-.15-.56l-.55.08a3.32 3.32 0 0 0 .06 1.88l1.61-.14A3.73 3.73 0 0 1 228.2 145.3zM227.59 113.95L227.8 115.41 228.04 115.32 227.79 114.38 227.59 113.95z" fill="#000100" opacity=".1"/><path d="M229.82,114.84l-.49-2.92h0l0-.06v0h0a2,2,0,0,0-1.37-1.19l-3.69-1.39v0a.08.08,0,0,1,0,0h0l0,0,0,0h0a.08.08,0,0,1,0,0v0l-3.69,1.39a2,2,0,0,0-1.37,1.19h0v0l0,.06h0l-.78,2.76h0l-.72,4.12-.19,5.13h1.5l.53-4.91,1.37-3.5-.16,4.27-.08,5.21c2.52,0,5.06,0,7.58,0l-.11-5.23-.08-2.23.36,1.74,2.21,4.46,1.42-.67-1.58-4.54Z" fill="#25557e"/><path d="M220.39,110.64a2,2,0,0,0-1.37,1.19h0v0l0,.06h0l-.78,2.76h0l-.72,4.12-.19,5.13H218s0-.08,0-.12c.07-1.33.52-5.08.57-5.63.2-2.31.76-5.14,2.48-6.82l.11-.1a3.73,3.73,0,0,1,.95-.83,1.82,1.82,0,0,1,1-.28,2.09,2.09,0,0,1-.12-.49Z" fill="#000100" opacity=".1"/><path d="M223,110.23a1.15,1.15,0,0,0,2.31,0v-2.59H223Z" fill="#ebb9a0"/><path d="M223.59,108.87a1.42,1.42,0,0,0,1.7.34V109A1.88,1.88,0,0,1,223.59,108.87Z" fill="#000100" opacity=".1"/><path d="M223.2,110.08a6.55,6.55,0,0,1-.22-1.24,7.15,7.15,0,0,0-1.56.85l2,1.94c.38.38,1.16.15,1.16.15l0-.41S223.37,110.69,223.2,110.08Z" fill="#0f7275"/><path d="M225.09,110.08a6.35,6.35,0,0,1-.59,1.28v.38s.54.25.85-.09,1.52-2,1.52-2a7.15,7.15,0,0,0-1.56-.85A6.56,6.56,0,0,1,225.09,110.08Z" fill="#0f7275"/><path d="M222.18,106.9a2.54,2.54,0,0,0,2.2,2.33,1.94,1.94,0,0,0,1.94-1.94v-2.34h-4.16Z" fill="#ebb9a0"/><path d="M222,104.92v1.52s.07,1.66,1,2.15l-.17-1.27s-.53.07-.53-1c0-.39.16-.4.28-.4s.29.25.29.25h.31v-.6h0a.58.58,0,0,1,.61-.61h2.52s.48,0,.48-1.51h-3S222,103.19,222,104.92Z" fill="#fed16a"/><path d="M225.43,107.05h-.52c.35.52.68.06.68.06l-.21-1.42Z" fill="#000100" opacity=".1"/><path fill="#0f7275" d="M224.32 111.72H224.5V125.02H224.32zM224.64 111.72H224.82V125.02H224.64z"/><rect x="217.67" y="122.76" width=".73" height="1.71" rx=".14" ry=".14" transform="rotate(-87.72 218.049 123.612)" fill="#0f7275"/><rect x="230.21" y="122.96" width="1.8" height=".77" rx=".14" ry=".14" transform="rotate(-24.94 231.146 123.354)" fill="#0f7275"/><path fill="#000100" opacity=".1" d="M220.53 119.66L220.45 124.99 221.12 124.99 221.14 114.52 220.69 115.51 220.53 119.66zM228.14 117.21L227.96 115.18 227.84 117.56 228.2 119.3 230.22 123.34 230.65 123.13 228.67 119.16 228.14 117.21zM262.59 149.84a1.16 1.16 0 0 1-.32 0l0 .06a11.27 11.27 0 0 1 .31 2.51c-.08.51-.24 1-.32 1.54h0l.46-.57.28-1.25-.44-1.94z"/><path d="M262.38,145.32l-.46-4.76-2.27-1.44,1.15,5.93.69,5.24h0l-.3,1.21-.1,1.33c.33,0,.45-.41.49-.69s.25-.19.25-.19.11,1.46.14,1.79a.26.26,0,0,0,.33.25l.46-.57.28-1.25-.44-1.94Z" fill="#ebb9a0"/><path d="M261.92,140.56l-2.27-1.44,1.15,5.93.69,5.24h0l-.3,1.21-.08,1.08a11.74,11.74,0,0,1,.64-2.28,5.16,5.16,0,0,1,.8-1.42l-.16-3.55Z" fill="#000100" opacity=".1"/><path d="M250.47,149.81h0l-1,1.73-.12,1.27.26.68a.26.26,0,0,0,.39-.13c.13-.3.67-1.64.67-1.64s.23,0,.18.26-.05.71.26.8l.3-1.29.08-1.27.12-.26a1.46,1.46,0,0,1-1.06-.34Z" fill="#ebb9a0"/><path d="M250.47,149.81h0l-1,1.73-.12,1.27.1.25a6.07,6.07,0,0,1,1.28-2.84,1.94,1.94,0,0,1,.22-.24l.08-.1a1.42,1.42,0,0,1-.47-.26Z" fill="#000100" opacity=".1"/><path d="M253.19,149.94l-.09,3.83,1.13,17.34,1.51.15.76-17.65.35,0,2,17.51,1.51.15,0-17.83-.13-3.51S253.23,150,253.19,149.94Z" fill="#df3d58"/><path fill="#000100" opacity=".1" d="M259.95 146.41L260.08 142.07 259.86 141.04 259.78 142.13 259.48 146.38 259.78 149.91 260.27 149.92 260.24 149.1 259.95 146.41z"/><path d="M261.7,138.85h0a1.86,1.86,0,0,0-1.31-1.13l-3.51-1.32v0a.07.07,0,0,1,0,0h0l0,0,0,0h0a.09.09,0,0,1,0,0v0l-3.51,1.32a1.86,1.86,0,0,0-1.31,1.13h0l-.8,6.33-.77,4.79s1.15.2,1.19.25l1.25-4.26s.57-2.59.57-3.1l.07,3.52-.2,2.68h0l-.05,2.38c2.39,0,4.79,0,7.18,0l-.1-2.36h0l-.28-2.64.14-4.3.71,3.53.67,4.49h1.13l-.1-5Z" fill="#0f7275"/><path d="M260.32 151.4h0zM260.28 151.4l-7.12 0-.06 2.19 1.12 17.45h.33c-.05-.91-1.14-18.53-1.08-19.09C253.47 151.95 253.85 151.56 260.28 151.4z" fill="#000100" opacity=".1"/><path d="M256.87 153.59l2 17.5h.39c-.21-1.37-2.15-17.5-2.15-17.5zM251.92 138.83h0l-.8 6.33-.78 4.82.16 0c.07-.23.5-2.42.89-4.64s.75-6.25.87-6.54c.31-.73 1.43-1 1.8-1.2s1.51-.58 1.51-.58l0-.21-2.36.87A1.86 1.86 0 0 0 251.92 138.83z" fill="#000100" opacity=".1"/><path d="M258.9,171.06l-1.11.71a1,1,0,0,0-1,.8h3.82a2.71,2.71,0,0,0-.24-1.5Z" fill="#0f7275"/><path d="M257.79,171.77a1,1,0,0,0-1,.8h.88a4.44,4.44,0,0,1,.42-.56,9.09,9.09,0,0,1,.93-.95h-.13Z" fill="#000100" opacity=".1"/><path d="M254.16,171.06l-1.67.71a1,1,0,0,0-1,.8H256a2.79,2.79,0,0,0-.23-1.5Z" fill="#0f7275"/><path d="M252.49,171.77a1,1,0,0,0-1,.8h.65a3.92,3.92,0,0,1,1.26-1.05,7.34,7.34,0,0,1,.85-.45h-.14Z" fill="#000100" opacity=".1"/><path d="M254.6,134.53a1.84,1.84,0,0,0,1.84,1.84,2.42,2.42,0,0,0,2.09-2.21l0-1.86h-4Z" fill="#ebb9a0"/><path d="M255.57,137.33a1.1,1.1,0,1,0,2.2,0v-2.46h-2.2Z" fill="#ebb9a0"/><path d="M257,130.87h-2.82c0,1.41.46,1.44.46,1.44H257a.56.56,0,0,1,.58.58h0v.57h.29s.12-.24.27-.24.26,0,.26.38c0,1-.5,1-.5,1l-.16,1.21c.88-.46.94-2,.94-2v-1.44C258.71,130.64,257,130.87,257,130.87Z" fill="#fed16a"/><path d="M255.57 136.15v.21a1.35 1.35 0 0 0 1.62-.33A1.79 1.79 0 0 1 255.57 136.15zM255.48 133l-.2 1.35s.31.44.65-.05h-.49zM253.34 142.95L253.41 146.38 253.21 149.06 253.16 151.43 253.53 151.43 253.54 148.96 253.64 146.35 253.45 142.42 253.34 142.95zM260.09 141.78L260.09 142.11 260.81 145.64 261.48 150.13 261.72 150.14 261 145.61 260.09 141.78z" fill="#000100" opacity=".1"/><path d="M256.11,134.72h-.83a.61.61,0,0,0-.61.61h.45a.61.61,0,0,1,1.16,0h.45A.61.61,0,0,0,256.11,134.72Z" fill="#fed16a"/><path fill="#623f3b" d="M253.12 150.67H260.44V151.45999999999998H253.12z"/><path d="M256.84,150.6h-.39a.47.47,0,0,0,0,.94h.39a.47.47,0,0,0,0-.94Z" fill="#fed16a"/><path d="M255.44 142.48c-.25 0-.44.33-.44.63v.28c0 .3.2.63.44.63s.18-.25.18-.55V143C255.62 142.73 255.6 142.48 255.44 142.48zM257.33 142.48c-.16 0-.18.25-.18.55v.45c0 .3 0 .55.18.55s.44-.33.44-.63v-.28C257.77 142.81 257.57 142.48 257.33 142.48z" fill="#25557e"/><path d="M256.38 140.42a1.79 1.79 0 0 0-1.79 1.79v1.14a.14.14 0 1 0 .28 0v-1.14a1.51 1.51 0 1 1 3 0v1.08a.14.14 0 0 0 .28 0v-1.08A1.79 1.79 0 0 0 256.38 140.42zM257.55 144.84h-2a.63.63 0 0 1-.59-.36 1.1 1.1 0 0 1-.11-.37v-.35a.07.07 0 1 0-.14 0v.35h0s.08.86.84.86h2a.48.48 0 0 1 .19 0 .32.32 0 0 1 .18.32v.7h.14v-.7A.49.49 0 0 0 257.55 144.84z" fill="#25557e"/><path d="M34.54,160.4l-1.44-4.23L32,149.93l-1.59,1.92,1.1,5S33.55,161,33.54,161l.19,1.11.45,1.26c.3-.12.25-.56.17-.83s.15-.28.15-.28.7,1.29.86,1.58a.26.26,0,0,0,.4.09l.18-.71-.26-1.26Z" fill="#ebb9a0"/><path d="M31.86,156.74a35,35,0,0,1-.8-5.7l-.68.82,1.1,5S33.55,161,33.54,161l.19,1.11.45,1.26a.32.32,0,0,0,.12-.09,13.76,13.76,0,0,1-.31-1.35A33,33,0,0,0,31.86,156.74Z" fill="#000100" opacity=".1"/><path d="M21.25,155.49,21,161.11,20.47,163l.21,1.27.43.6a.26.26,0,0,0,.35-.23c0-.32.24-1.78.24-1.78s.22-.08.24.21.13.71.46.71l0-1.33-.24-1.22h0l.67-4.76,1.77-5.84-2.34.86Z" fill="#ebb9a0"/><path d="M21.43 161a1.46 1.46 0 0 1-.42.07h0L20.47 163l.21 1.27.43.6h0a5.58 5.58 0 0 1 0-2.39A9.84 9.84 0 0 1 21.43 161zM27.44 147.18h0l-3.63 1.36a1.86 1.86 0 0 0-1.31 1.13h0v0l0 .07h0l-1.37 6s-.23 5.25-.23 5.25l.44 0c0-.24 0-3 .15-4.16a34.82 34.82 0 0 1 .87-4.55c.31-1.31.25-2.46 1.5-3.28a20.69 20.69 0 0 1 3-1.45 1.27 1.27 0 0 1 .66 0c0-.14 0-.28 0-.42A.07.07 0 0 1 27.44 147.18z" fill="#000100" opacity=".1"/><path d="M33.16,156.17l-.87-6.43A1.84,1.84,0,0,0,31,148.53l-3.51-1.32v0a.07.07,0,0,1,0,0h0l0,0,0,0h0a.07.07,0,0,1,0,0v0l-3.51,1.32a1.86,1.86,0,0,0-1.31,1.13h0v0l0,.07h0l-1.37,6s-.23,5.25-.23,5.25l1.38.08L23.1,156l1-3.28.15,4.51L24,159.86h0l-.1,2.36c2.39,0,4.79,0,7.18,0L31,159.88h0l-.2-2.68,0-3.16.51,2.51L33.42,161l1.2-.64S33.1,156.19,33.16,156.17Z" fill="#25557e"/><path d="M31.11,164.24,31,160.75s-7.05,0-7.08,0l-.13,3.51-.14,7.45-1.44,8.88,1.57.23,2.34-8.88,1.5-7.67h.18l1.79,7.45,1,9.32,1.51-.15,0-9.2Z" fill="#df3d58"/><path d="M23.78,164.24l-.14,7.45-1.44,8.88.13,0a57.36,57.36,0,0,1,1.38-5.84,18.4,18.4,0,0,0,.64-5c0-1.11.33-7,.38-8.16s4-.38,6.27-.82l-7.08,0Z" fill="#000100" opacity=".1"/><path d="M28.88 164.24h-1.1l1.79 7.45 1 9.32.53-.09s-.45-5.65-.63-8.57C30.34 170.57 28.9 164.33 28.88 164.24zM24.32 151.86L24.08 152.75 24.23 157.22 23.95 159.91 23.91 160.73 24.4 160.72 24.7 157.19 24.4 152.94 24.32 151.86z" fill="#000100" opacity=".1"/><path d="M26,182.13a10.31,10.31,0,0,1-1-.33l-1.21-1-1.56-.26a3.16,3.16,0,0,0-.49,1.72l2.6.58,2.15,0A.54.54,0,0,0,26,182.13Z" fill="#0f7275"/><path d="M22.84,180.64l-.64-.11a3.16,3.16,0,0,0-.49,1.72l1.34.3a2.24,2.24,0,0,1-.42-.82A1.16,1.16,0,0,1,22.84,180.64Z" fill="#000100" opacity=".1"/><path d="M34.62,181.4a10.31,10.31,0,0,1-1.05,0l-1.45-.59-1.57.22a3.15,3.15,0,0,0,.06,1.79l2.65-.23,2-.69A.54.54,0,0,0,34.62,181.4Z" fill="#0f7275"/><path d="M31.22,181.47a1.64,1.64,0,0,1-.15-.53l-.53.07a3.15,3.15,0,0,0,.06,1.79l1.53-.13A3.54,3.54,0,0,1,31.22,181.47Z" fill="#000100" opacity=".1"/><path transform="rotate(-87.03 21.556 161.195)" fill="#e6dcd1" d="M21.43 160.59H21.66V161.79H21.43z"/><path fill="#e6dcd1" d="M33.47 160.93L33.58 161.13 34.67 160.56 34.57 160.35 33.47 160.93z"/><path fill="#000100" opacity=".1" d="M30.66 152.55L30.83 154.07 31.33 156.55 33.42 160.96 33.69 160.81 31.58 156.44 30.66 152.55z"/><path d="M25.49,145a2.42,2.42,0,0,0,2.09,2.21,1.84,1.84,0,0,0,1.84-1.84v-2.23h-4Z" fill="#ebb9a0"/><path d="M26.26,147.77A1.21,1.21,0,0,0,27.48,149a1,1,0,0,0,1-1v-2.32h-2.2Z" fill="#ebb9a0"/><path d="M25.32,143.1v1.44s.06,1.58.94,2l-.16-1.21s-.5.07-.5-1c0-.37.15-.38.26-.38s.27.24.27.24h.29v-.57h0a.56.56,0,0,1,.58-.58h2.4s.46,0,.46-1.44H27.06S25.32,141.45,25.32,143.1Z" fill="#623f3b"/><path d="M28.59,145.12H28.1c.33.49.65.05.65.05l-.2-1.35Z" fill="#000100" opacity=".1"/><path fill="#e6dcd1" d="M25.74 147.82L26.86 149.8 27.66 148.96 26.24 147.22 25.74 147.82zM27.66 148.96L28.52 149.76 29.01 147.92 28.54 147.28 27.66 148.96z"/><path d="M26.84,146.85a1.35,1.35,0,0,0,1.62.33V147A1.79,1.79,0,0,1,26.84,146.85Z" fill="#000100" opacity=".1"/><path fill="#623f3b" d="M23.81 160.3H31.13V161.09H23.81z"/><path d="M28.14,160.23h-.39a.47.47,0,0,0,0,.94h.39a.47.47,0,0,0,.47-.47h0A.47.47,0,0,0,28.14,160.23Z" fill="#e6dcd1"/><path d="M27.49,146.72a.56.56,0,0,0,.56.56h.64a.54.54,0,0,0,.54-.54V146H27.49Z" fill="#623f3b"/><path d="M28.42,146.27a.56.56,0,0,0,.56-.56H27.86A.56.56,0,0,0,28.42,146.27Z" fill="#ebb9a0"/><path d="M27.34,146.09h.47a.63.63,0,0,0,.64-.61H28A.63.63,0,0,0,27.34,146.09Z" fill="#623f3b"/><path d="M28.86,145.48h-.47a.63.63,0,0,0,.64.61h.47A.63.63,0,0,0,28.86,145.48Z" fill="#623f3b"/><path d="M29.93,143.75H29.1c-.11,0-.47.15-.47.39a.75.75,0,0,0,.75.75.85.85,0,0,0,.85-.85A.3.3,0,0,0,29.93,143.75Z" fill="#0f7275"/><path d="M29.82,143.88h-.65c-.09,0-.37.12-.37.31a.59.59,0,0,0,.59.59.67.67,0,0,0,.67-.67A.23.23,0,0,0,29.82,143.88Z" fill="#25557e"/><path d="M27.92,143.75h-.83a.3.3,0,0,0-.3.3.85.85,0,0,0,.85.85.75.75,0,0,0,.75-.75C28.39,143.91,28,143.75,27.92,143.75Z" fill="#0f7275"/><path d="M27.85,143.88h-.65a.23.23,0,0,0-.23.23.67.67,0,0,0,.67.67.59.59,0,0,0,.59-.59C28.22,144,27.93,143.88,27.85,143.88Z" fill="#25557e"/><path d="M28.18 144l.12.08a.69.69 0 0 1 .26 0 .72.72 0 0 1 .21 0l.12-.09a.79.79 0 0 0-.33-.06A.73.73 0 0 0 28.18 144zM26.09 143.96L26.91 144.04 26.91 143.88 26.09 143.88 26.09 143.96z" fill="#0f7275"/><path d="M204,218.27l1.63-.58.3-3h-1.63A15.56,15.56,0,0,0,204,218.27Z" fill="#d8ac94"/><path d="M209.53,205.54H208.4a1.89,1.89,0,0,0-1.89,1.89l-.15,6.29a1.35,1.35,0,0,0,1.35,1.35h2.37a1.35,1.35,0,0,0,1.35-1.35v-6.29A1.89,1.89,0,0,0,209.53,205.54Z" fill="#fed16a"/><path fill="#0f7275" d="M205.32 244.72L206.53 244.57 207.89 230.37 205.32 230.37 205.32 244.72z"/><path fill="#000100" opacity=".1" d="M205.32 244.72L205.57 244.69 205.82 230.74 207.89 230.37 205.32 230.37 205.32 244.72z"/><path fill="#0f7275" d="M209.66 244.72L210.87 244.57 212.23 230.37 209.66 230.37 209.66 244.72z"/><path d="M207.82,245.23l-1.29-.7h-1.22a2.79,2.79,0,0,0-.23,1.5h3.69A1,1,0,0,0,207.82,245.23Z" fill="#623f3b"/><path d="M205.62,244.52h-.31a2.79,2.79,0,0,0-.23,1.5h.7a1.84,1.84,0,0,1-.26-1.05A1.53,1.53,0,0,1,205.62,244.52Z" fill="#000100" opacity=".1"/><path d="M212.92,245.23l-2-.71h-1.3a2.79,2.79,0,0,0-.23,1.5h4.45A1,1,0,0,0,212.92,245.23Z" fill="#623f3b"/><path d="M209.88 244.92a2 2 0 0 1 .09-.4h-.32a2.79 2.79 0 0 0-.23 1.5h.77A1.49 1.49 0 0 1 209.88 244.92zM205.92 212.39a1.77 1.77 0 0 0-1.17 1.05L204 214.9c.05 0 .36.19.73.41.27-.66.84-1.72 1-2 .42-.82 1.47-1.05 2.17-1.35 0 0 1.09-.56 1.09-.62a.07.07 0 0 1 0 0h0z" fill="#000100" opacity=".1"/><path d="M214.33,224.59l-.86-4.83L213,214l-2-.21,1,6.2,1.44,4.7h0l-.31,1.09L213,227c.3,0,.42-.36.47-.61s.23-.17.23-.17.06,1.34.08,1.63a.24.24,0,0,0,.3.23l.43-.51.28-1.13-.49-1.81Z" fill="#ebb9a0"/><path d="M212.29,216.12s.83-.58.83-.58L213,214l-2-.21,1,6.2,1.44,4.7h0l-.31,1.09L213,227a.29.29,0,0,0,.18,0s.42-1.83.51-2.17L212.62,220A36.28,36.28,0,0,1,212.29,216.12Z" fill="#000100" opacity=".1"/><path d="M213.52,215l-.53-1.45-.14-.31a1.73,1.73,0,0,0-1-.85l-2.84-1v-.06a.07.07,0,0,1,0,0h0l-.09,0-.09,0h0a.07.07,0,0,1,0,0v.06l-2.81,1a1.77,1.77,0,0,0-1.17,1.05L204,214.9c.12,0,1.6.92,2.19,1.27l.33,4.85-1.1,2.95a10.51,10.51,0,0,0-.22,2.41l.12,4h6.95V226a15.13,15.13,0,0,0-.14-2.06l-.76-2.88.25-4.93C212.24,215.74,213.41,215,213.52,215Z" fill="#25557e"/><path d="M207.33,209.65a1.78,1.78,0,1,0,3.55,0V207.5h-3.55Z" fill="#ebb9a0"/><path d="M207.84,212.34a1.06,1.06,0,1,0,2.12,0V210h-2.12Z" fill="#ebb9a0"/><path fill="#fed16a" d="M207.05 210.21L207.58 211.17 207.83 211.68 208.08 206.97 207.03 207.43 207.05 210.21z"/><path d="M207.41,207.84l.59.23a.54.54,0,0,1,.56-.56v-.33h-1.16Z" fill="#fed16a"/><path d="M206.68,216.4l-.5-.23.34,4.85-1.1,2.95a10.51,10.51,0,0,0-.22,2.41l.12,4h.59s-.09-3.11,0-4.17A18.59,18.59,0,0,1,207,221h0v0h0v0l0-3.39-.29-.53C206.73,216.77,206.71,216.53,206.68,216.4Z" fill="#000100" opacity=".1"/><path d="M211.29,213.81s-4.73.17-4.73.82l-.09,2.06a1.14,1.14,0,0,0,1.08,1.18H211a1.14,1.14,0,0,0,1.08-1.18v-.08S211.88,213.81,211.29,213.81Z" fill="#25557e"/><path fill="#000100" opacity=".1" d="M209.65 244.52L209.96 244.52 209.98 230.77 212.23 230.37 209.66 230.37 209.65 244.52zM208.48 211.1a1.23 1.23 0 0 0 1.47.3v-.19A1.63 1.63 0 0 1 208.48 211.1zM210 209.66h-.49c.33.49.65.05.65.05l-.2-1.35z"/><rect x="206.47" y="207.73" width="1.82" height="3.19" rx=".19" ry=".19" transform="rotate(-13.2 207.392 209.369)" fill="#0f7275"/><path d="M208.2,208.79c.08-.16.06-.28,0-.31s-.14,0-.14,0l-.31.11a16.46,16.46,0,0,0-1.14,4c-.17.71-.39,1.44-.52,2.18a.76.76,0,0,1,.18.94,2.51,2.51,0,0,0-.16.58.55.55,0,0,1,.09.31c0,.25.06.66.08.9,0-.21.13-.62.14-.87l.32-4.45a1.32,1.32,0,0,0,.45-.73l.4-.93.48-.39c.2-.12.3-.52.13-.49l-.65.31.32-.59.44-.31c.14-.15.1-.26.06-.29S208.2,208.79,208.2,208.79Z" fill="#000100" opacity=".1"/><path d="M208,208.79c.08-.16.06-.28,0-.31s-.14,0-.14,0l-.72.25-.21.12,0-.06a2.34,2.34,0,0,0,.37-.36.24.24,0,0,0,0-.37l-.78.45-.43.83-.26.49-.19.85-.23,1.37-1.41,5s-.41,2.2,1,2.52c0,0,.81.35,1.07-3.11l.41-4.59a1.39,1.39,0,0,0,.55-.69l.31-.81.55-.33c.2-.12.31-.46.14-.43l-.69.26-.18.13.44-.64.54-.34c.14-.15.1-.26.06-.29S208,208.79,208,208.79Z" fill="#ebb9a0"/><path d="M207.35,208.07l-.78.45-.43.83-.26.49-.19.85-.23,1.37-1.41,5a3.34,3.34,0,0,0,.24,2c-.34-1.85.56-3.88,1.06-5.62s.58-4,2-5.35Z" fill="#000100" opacity=".1"/><path fill="#000100" opacity=".1" d="M206.75 209.77L207.19 209.25 208.02 208.79 208.05 208.71 207.11 209.18 206.75 209.77z"/><path d="M244.27 197.49L242.75 193l-1.18-6.57-1.67 2 1.16 5.28 2.18 4.32h0l.2 1.16.47 1.32c.32-.13.26-.59.18-.87s.16-.29.16-.29.73 1.36.9 1.66a.27.27 0 0 0 .43.1l.19-.75-.27-1.32zM230.07 193.15l0 5.09-.57 2 .22 1.33.45.63a.27.27 0 0 0 .36-.24c.05-.34.25-1.87.25-1.87s.23-.08.25.22.14.75.48.75l0-1.4-.25-1.29h0l.7-5 1.86-6.14-2.47.9z" fill="#c39276"/><path d="M230.07,193.15l0,5.09-.57,2,.22,1.33.45.63h0a5.87,5.87,0,0,1,0-2.51,10.53,10.53,0,0,1,.38-1.66c.16-.51-.16-3.88.29-5.4.16-.52.5-1.88.81-3.06,0,0,1.42.07,1.47-.08l-1.8-1.37Z" fill="#000100" opacity=".1"/><path d="M240.67,201.53l-.13-3.67s-7.42,0-7.45,0l-.14,3.7-.15,7.84-1.52,9.34,1.65.24,2.46-9.35,1.58-8.07h.19l1.88,7.84,1,9.8,1.59-.16,0-9.68Z" fill="#25557e"/><path d="M233,201.53l-.15,7.84-1.52,9.34.14,0a60.41,60.41,0,0,1,1.45-6.14,19.38,19.38,0,0,0,.68-5.29c0-1.17.35-7.42.4-8.58s4.25-.4,6.59-.87l-7.45,0Z" fill="#000100" opacity=".1"/><path d="M238.32,201.53h-1.15l1.88,7.84,1,9.8.56-.1s-.48-6-.67-9C239.86,208.19,238.34,201.63,238.32,201.53Z" fill="#000100" opacity=".1"/><path d="M235.26,220.36a10.84,10.84,0,0,1-1-.35L232.94,219l-1.64-.28a3.32,3.32,0,0,0-.51,1.81l2.74.61,2.26,0A.57.57,0,0,0,235.26,220.36Z" fill="#0f7275"/><path d="M232,218.79l-.67-.11a3.32,3.32,0,0,0-.51,1.81l1.41.31a2.36,2.36,0,0,1-.44-.86A1.22,1.22,0,0,1,232,218.79Z" fill="#000100" opacity=".1"/><path d="M244.36,219.58a10.84,10.84,0,0,1-1.11,0l-1.53-.62-1.65.23a3.32,3.32,0,0,0,.06,1.88l2.79-.24,2.14-.72A.57.57,0,0,0,244.36,219.58Z" fill="#0f7275"/><path d="M240.79 219.66a1.72 1.72 0 0 1-.15-.56l-.55.08a3.32 3.32 0 0 0 .06 1.88l1.61-.14A3.73 3.73 0 0 1 240.79 219.66zM240.17 188.31L240.38 189.77 240.62 189.68 240.37 188.73 240.17 188.31z" fill="#000100" opacity=".1"/><path d="M242.4,189.19l-.49-2.92h0l0-.06v0h0A2,2,0,0,0,240.5,185l-3.69-1.39v0a.08.08,0,0,1,0,0h0l0,0,0,0h0a.08.08,0,0,1,0,0v0L233,185a2,2,0,0,0-1.37,1.19h0v0l0,.06h0l-.78,2.76h0l-.72,4.12-.19,5.13h1.5l.53-4.91,1.37-3.5-.16,4.27-.08,3.91c2.52,0,5.07,0,7.59,0l-.12-3.9-.08-2.23.36,1.74,2.21,4.46,1.42-.67-1.58-4.54Z" fill="#0f7275"/><path d="M236.81,183.59a.08.08,0,0,1,0,0h0l0,0,0,0h0a.08.08,0,0,1,0,0v0l-2,.75h0a15.44,15.44,0,0,0,1.71,4.61,6,6,0,0,1,.31.71.78.78,0,0,1,.21.92,6.36,6.36,0,0,1,0,.68c0,2.14.26,4.55.08,6.79h.22c.08-2.56,0-4.88.08-7.39,0-.32,0-.59.18-.83.17-1.81.34-4,1.37-5.46l-2.06-.77Z" fill="#25557e"/><path d="M233,185a2,2,0,0,0-1.37,1.19h0v0l0,.06h0l-.78,2.76h0l-.72,4.12-.19,5.13h.72s0-.08,0-.12c.07-1.33.52-5.08.57-5.63.2-2.31.76-5.14,2.48-6.82l.11-.1a3.73,3.73,0,0,1,.95-.83,1.82,1.82,0,0,1,1-.28,2.09,2.09,0,0,1-.12-.49Z" fill="#000100" opacity=".1"/><path d="M235.57,184.59a1.15,1.15,0,0,0,2.31,0V182h-2.31Z" fill="#c39276"/><path d="M236.17,183.22a1.42,1.42,0,0,0,1.7.34v-.22A1.88,1.88,0,0,1,236.17,183.22Z" fill="#000100" opacity=".1"/><path d="M234.76,181.26a2.54,2.54,0,0,0,2.2,2.33,1.94,1.94,0,0,0,1.94-1.94v-2.34h-4.16Z" fill="#c39276"/><path d="M234.57,179.28v1.52s.07,1.66,1,2.15l-.17-1.27s-.53.07-.53-1c0-.39.16-.4.28-.4s.29.25.29.25h.31v-.6h0a.58.58,0,0,1,.61-.61h2.52s.48,0,.48-1.51h-3S234.57,177.54,234.57,179.28Z" fill="#623f3b"/><path d="M238,181.41h-.52c.35.52.68.06.68.06L238,180Z" fill="#000100" opacity=".1"/><path fill="#0f7275" d="M236.91 190.13H237.09V198.07H236.91z"/><rect x="230.25" y="197.12" width=".73" height="1.71" rx=".14" ry=".14" transform="rotate(-87.72 230.634 197.975)" fill="#0f7275"/><rect x="242.79" y="197.32" width="1.8" height=".77" rx=".14" ry=".14" transform="rotate(-24.94 243.708 197.704)" fill="#0f7275"/><path fill="#000100" opacity=".1" d="M233.11 193.39L233.03 198.06 233.7 198.06 233.72 188.88 233.27 189.74 233.11 193.39zM240.73 191.57L240.54 189.54 240.42 191.92 240.78 193.66 242.8 197.69 243.23 197.49 241.25 193.51 240.73 191.57z"/><path d="M235.57 183.72l-1.42.84.71 1-.71.89 2.76 3.66h.18l-1.17-4.66A4.87 4.87 0 0 1 235.57 183.72zM237.23 190.13H237.41V198.06H237.23zM237.88 183.72a7.09 7.09 0 0 1-.21 1.9l-.44 4.51h.18l2-3.66-.71-.89.71-1zM233.03 197.34H236.9V198.06H233.03zM237.41 197.34H240.62V198.06H237.41z" fill="#0f7275"/><path d="M118.81 33.3l-1.52-4.45-1.18-6.57-1.67 2 1.16 5.28 2.18 4.32h0l.2 1.16.47 1.32c.32-.13.26-.59.18-.87s.16-.29.16-.29.73 1.36.9 1.66a.27.27 0 0 0 .43.1l.19-.75L120 34.92zM104.6 29l0 5.09-.57 2 .22 1.33.45.63a.27.27 0 0 0 .36-.24c.05-.34.25-1.87.25-1.87s.23-.08.25.22.14.75.48.75l0-1.4-.25-1.29h0l.7-5L108.3 23l-2.47.9z" fill="#ebb9a0"/><path d="M104.6,29l0,5.09-.57,2,.22,1.33.45.63h0a5.87,5.87,0,0,1,0-2.51,10.53,10.53,0,0,1,.38-1.66c.16-.51-.16-3.88.29-5.4.16-.52.5-1.88.81-3.06,0,0,1.42.07,1.47-.08l-1.8-1.37Z" fill="#000100" opacity=".1"/><path d="M115.21,37.34l-.13-3.67s-7.42,0-7.45,0l-.14,3.7-.15,7.84-1.52,9.34,1.65.24,2.46-9.35,1.58-8.07h.19l1.88,7.84,1,9.8,1.59-.16,0-9.68Z" fill="#167c66"/><path d="M107.49,37.34l-.15,7.84-1.52,9.34.14,0a60.4,60.4,0,0,1,1.45-6.14,19.38,19.38,0,0,0,.68-5.29c0-1.17.35-7.42.4-8.58s4.25-.4,6.59-.87l-7.45,0Z" fill="#000100" opacity=".1"/><path d="M112.86,37.34H111.7l1.88,7.84,1,9.8.56-.1s-.48-6-.67-9C114.4,44,112.88,37.43,112.86,37.34Z" fill="#000100" opacity=".1"/><path d="M109.79,56.17a10.84,10.84,0,0,1-1-.35l-1.27-1.05-1.64-.28a3.32,3.32,0,0,0-.51,1.81l2.74.61,2.26,0A.57.57,0,0,0,109.79,56.17Z" fill="#0f7275"/><path d="M106.5,54.6l-.67-.11a3.32,3.32,0,0,0-.51,1.81l1.41.31a2.36,2.36,0,0,1-.44-.86A1.22,1.22,0,0,1,106.5,54.6Z" fill="#000100" opacity=".1"/><path d="M118.9,55.39a10.85,10.85,0,0,1-1.11,0l-1.53-.62-1.65.23a3.32,3.32,0,0,0,.06,1.88l2.79-.24,2.14-.72A.57.57,0,0,0,118.9,55.39Z" fill="#0f7275"/><path d="M115.32 55.46a1.72 1.72 0 0 1-.15-.56l-.55.08a3.32 3.32 0 0 0 .06 1.88l1.61-.14A3.73 3.73 0 0 1 115.32 55.46zM114.71 24.12L114.92 25.57 115.16 25.48 114.91 24.54 114.71 24.12z" fill="#000100" opacity=".1"/><path d="M116.94,25l-.49-2.92h0l0-.06v0h0A2,2,0,0,0,115,20.81l-3.69-1.39v0a.08.08,0,0,1,0,0h0l0,0,0,0h0a.08.08,0,0,1,0,0v0l-3.69,1.39A2,2,0,0,0,106.14,22h0v0l0,.06h0l-.78,2.76h0L104.6,29l-.19,5.13h1.5l.53-4.91,1.37-3.5-.16,4.27-.08,3.91c2.52,0,5.07,0,7.59,0L115,30,115,27.73l.36,1.74,2.21,4.46,1.42-.67-1.58-4.54Z" fill="#623f3b"/><path d="M111.35,19.4a.08.08,0,0,1,0,0h0l0,0,0,0h0a.08.08,0,0,1,0,0v0l-2,.75h0a15.44,15.44,0,0,0,1.71,4.61,6,6,0,0,1,.31.71.78.78,0,0,1,.21.92,6.37,6.37,0,0,1,0,.68c0,2.14.26,4.55.08,6.79h.22c.08-2.56,0-4.88.08-7.39,0-.32,0-.59.18-.83.17-1.81.34-4,1.37-5.46l-2.06-.77Z" fill="#25557e"/><path d="M107.51,20.81A2,2,0,0,0,106.14,22h0v0l0,.06h0l-.78,2.76h0L104.6,29l-.19,5.13h.72s0-.08,0-.12c.07-1.33.52-5.08.57-5.63.2-2.31.76-5.14,2.48-6.82l.11-.1a3.73,3.73,0,0,1,.95-.83,1.82,1.82,0,0,1,1-.28,2.09,2.09,0,0,1-.12-.49Z" fill="#000100" opacity=".1"/><path d="M110.11,20.39a1.15,1.15,0,0,0,2.31,0V17.81h-2.31Z" fill="#ebb9a0"/><path d="M110.71,19a1.42,1.42,0,0,0,1.7.34v-.22A1.88,1.88,0,0,1,110.71,19Z" fill="#000100" opacity=".1"/><path d="M109.3,17.06a2.54,2.54,0,0,0,2.2,2.33,1.94,1.94,0,0,0,1.94-1.94V15.11h-4.16Z" fill="#ebb9a0"/><path d="M109.11,15.08V16.6s.07,1.66,1,2.15l-.17-1.27s-.53.07-.53-1c0-.39.16-.4.28-.4s.29.25.29.25h.31v-.6h0a.58.58,0,0,1,.61-.61h2.52s.48,0,.48-1.51h-3S109.11,13.35,109.11,15.08Z" fill="#df3d58"/><path d="M112.55,17.22H112c.35.52.68.06.68.06l-.21-1.42Z" fill="#000100" opacity=".1"/><path fill="#0f7275" d="M111.44 25.93H111.62V33.87H111.44z"/><rect x="104.79" y="32.92" width=".73" height="1.71" rx=".14" ry=".14" transform="rotate(-87.73 105.15 33.781)" fill="#0f7275"/><rect x="117.33" y="33.13" width="1.8" height=".77" rx=".14" ry=".14" transform="rotate(-24.94 118.235 33.499)" fill="#0f7275"/><path fill="#000100" opacity=".1" d="M107.65 29.19L107.57 33.86 108.24 33.86 108.26 24.68 107.81 25.55 107.65 29.19zM115.26 27.37L115.08 25.34 114.96 27.73 115.32 29.47 117.34 33.5 117.77 33.3 115.79 29.32 115.26 27.37z"/><path d="M110.11 19.52l-1.42.84.71 1-.71.89 2.76 3.66h.18l-1.17-4.66A4.87 4.87 0 0 1 110.11 19.52zM111.77 25.93H111.95V33.86H111.77zM112.42 19.52a7.09 7.09 0 0 1-.21 1.9l-.44 4.51h.18l2-3.66-.71-.89.71-1zM107.57 33.14H111.44V33.86H107.57zM111.95 33.14H115.16V33.86H111.95z" fill="#0f7275"/><path fill="#c39276" d="M82.56 248.7L83.84 248.86 83.84 233.16 80.98 233.16 82.56 248.7zM78 248.7L79.27 248.86 79.59 233.04 76.83 232.55 78 248.7z"/><path d="M82.57,223.9H77.48L76.68,227a15.93,15.93,0,0,0-.15,2.16l.94,19.55,1.9-.05.57-17.07h.25l2.38,17.11,1.38,0,0-19.11a11.07,11.07,0,0,0-.23-2.53Z" fill="#df3d58"/><path d="M77.48,223.9,76.68,227a15.92,15.92,0,0,0-.15,2.16l.94,19.55H78c-.09-2-.28-4-.27-6,0-2.35-.11-4.72-.17-7.07,0-1.29-.31-4.21-.34-6.38a14.32,14.32,0,0,1,.22-2.73A12.87,12.87,0,0,1,81,226a1.86,1.86,0,0,1,.74-.46,1.68,1.68,0,0,1,1-1.07l-.22-.59Z" fill="#000100" opacity=".1"/><path d="M85.91,222.45,84.31,216l-1.91.79,2,6,1.14,4.79h0l-.19,1.18v1.28c.31,0,.4-.43.41-.7s.22-.2.22-.2.22,1.39.28,1.7a.25.25,0,0,0,.34.21l.39-.58.16-1.22-.73-1.84Z" fill="#c39276"/><path d="M83.8,219.34c-.13-.42.35-1.2.93-1.46L84.31,216l-1.91.79,2,6,1.14,4.79h0l-.19,1.18v1.28l.1,0h0a15.08,15.08,0,0,1,.42-2.46c-.06-.34-.77-3.48-1-4.27S84,220,83.8,219.34Z" fill="#000100" opacity=".1"/><path d="M75.26,222.7l-.9,5.08-.53,1.91.3,1.19.45.54a.25.25,0,0,0,.31-.25c0-.31.09-1.72.09-1.72s.2-.09.25.18.18.67.49.65L75.58,229l-.32-1.15h0l1.52-4.95,1.09-6.53-2.11.23Z" fill="#c39276"/><path d="M75.26,222.7l-.9,5.08h0l-.52,1.91.3,1.19.23.28a5.47,5.47,0,0,1,0-1.79c.18-1,.23-2,.5-3A36.36,36.36,0,0,0,76,218.58s.7.11,1.43.19l.4-2.37-2.11.23Z" fill="#000100" opacity=".1"/><path d="M84.43,216.06a1.86,1.86,0,0,0-1.23-1.11l-3-1a.57.57,0,0,0-.26,0l-3,1c-.59.17-1.2.62-1.23,1.07l-.68,6.85s-.79,4.66-.79,4.66l1.11.29s1.11-3.33,1.24-3.82c.23-.79.64-3.47.64-3.47l.17,3.46L77,225.78l6.26-.07L83,224l-.06-5.1c0-.06.69,2,1.38,3.73,0,.12,1.16,5.14,1.16,5.14l1.28-.29s-.64-5.57-.65-5.61C85.39,219,84.43,216.06,84.43,216.06Z" fill="#df3d58"/><path d="M83.21 218.67a3.41 3.41 0 0 1-.34 0c0 .07.12.19.12.26.13.33.74 2.13 1.35 3.67 0 .12 1.16 5.14 1.16 5.14l.52-.12a36.26 36.26 0 0 1-.61-3.89A34.68 34.68 0 0 0 83.21 218.67zM80 213.91l-3 1c-.59.17-1.2.62-1.23 1.07l-.69 6.85s-.79 4.66-.79 4.66l.47.12c.18-.39.79-3.58.9-4.29.25-1.7.6-2.43.75-4.15.11-1.22-.3-2.65.78-3.38a15 15 0 0 1 3.11-1.66 1.65 1.65 0 0 1 .45-.09l-.51-.18A.57.57 0 0 0 80 213.91z" fill="#000100" opacity=".1"/><path fill="#25557e" d="M83.22 219.6L83.25 223.96 83.63 223.94 83.52 220.46 83.22 219.6z"/><path d="M82.57,248.66l-1.36.74a1,1,0,0,0-1,.84h3.88a2.93,2.93,0,0,0-.24-1.58Z" fill="#623f3b"/><path d="M81.21,249.4a1,1,0,0,0-1,.84h1.08c.24-.26.48-.5.74-.73l.2-.18c.05-.05.24-.3,0,0a3.62,3.62,0,0,1,.47-.55l.12-.1h-.27Z" fill="#000100" opacity=".1"/><path d="M78,248.65l-2.14.75a1,1,0,0,0-1,.84h4.68a2.93,2.93,0,0,0-.24-1.58Z" fill="#623f3b"/><path d="M75.85,249.4a1,1,0,0,0-1,.84H76.3a9.1,9.1,0,0,1,2-1.59H78Z" fill="#000100" opacity=".1"/><path d="M80.6,207.74H79.41a2,2,0,0,0-2,2v2.53a1.42,1.42,0,0,0,1.42,1.42h2.5a1.42,1.42,0,0,0,1.42-1.42l-.16-2.53A2,2,0,0,0,80.6,207.74Z" fill="#623f3b"/><path d="M78,212.06a1.87,1.87,0,1,0,3.73,0v-2.26H78Z" fill="#c39276"/><path d="M79,214.89a1.11,1.11,0,1,0,2.22,0V212.4H79Z" fill="#c39276"/><path fill="#623f3b" d="M81.01 213.66L81.45 213.66 82.02 212.66 82.04 209.73 81.02 209.22 81.01 213.66z"/><path d="M80.42,209.8a.56.56,0,0,1,.59.59l.63-.24v-.7H80.42Z" fill="#623f3b"/><path d="M79 213.71v.2a1.29 1.29 0 0 0 1.55-.31A1.71 1.71 0 0 1 79 213.71zM79 210.58L78.79 212s.33.46.68-.05H79z" fill="#000100" opacity=".1"/><path d="M81.21,217.38,81.15,224h.4l.08-6.72c0-2.5.6-2.7.6-2.7l-.39-.14A5.21,5.21,0,0,0,81.21,217.38Z" fill="#25557e"/><rect x="80.17" y="223.86" width="4.45" height="2.98" rx=".88" ry=".88" fill="#25557e"/><path d="M84.07,223.86H80.72a.55.55,0,0,0-.55.55,1.22,1.22,0,0,0,1.21,1.21h2a1.22,1.22,0,0,0,1.21-1.21A.55.55,0,0,0,84.07,223.86Z" fill="#25557e"/><path d="M83,225.41H81.78a.17.17,0,0,0,0,.34H83a.17.17,0,0,0,0-.34Z" fill="#fed16a"/><path d="M78,220.45c-1.15.11-1-2.46-1-2.46l-.13-.07c-.06.43-.15,1.46-.15,1.46v.09a1.27,1.27,0,0,0,.58,1.08l.16,3.45L77,225.78h.14l.61-1.77C77.68,223.53,78,220.49,78,220.45Z" fill="#000100" opacity=".1"/><path fill="#623f3b" d="M77.39 248.83L79.44 249.04 79.73 242.72 76.96 242.83 77.39 248.83z"/><path d="M77.68,242.8l-.72,0,.42,6,.53.05c0-.54-.22-4.49-.24-5.93C77.67,242.9,77.68,242.85,77.68,242.8Z" fill="#000100" opacity=".1"/><path fill="#623f3b" d="M82.04 248.94L84.06 249.15 84.34 242.83 81.63 242.93 82.04 248.94z"/><path d="M82.33,242.9l-.7,0,.41,6,.52.05c0-.54-.21-4.49-.23-5.93C82.32,243,82.33,243,82.33,242.9Z" fill="#000100" opacity=".1"/><path fill="#fed16a" d="M129.93 226.51L122.98 226.51 123.26 235.2 122.98 237.9 130 237.9 129.8 235.18 129.93 226.51z"/><path d="M126.47,225.17a.08.08,0,0,1,0,0h0l-3.63,1.36a1.84,1.84,0,0,0-1.33,1.21l5-.24c0-.08,0-.15,0-.23A20.52,20.52,0,0,0,126.47,225.17Z" fill="#fed16a"/><path d="M120.75,230.35c.15.05,2.78.57,2.78.57l.3-3.68-2.32.4Z" fill="#fed16a"/><path d="M126.47,225.16h0l-3.63,1.36a1.86,1.86,0,0,0-1.31,1.13h0v0l0,.05h0l-.74,2.62.4.09c.21-1.09.8-3,1.2-3.2,1.06-.54,3.71-1.76,3.73-1.76a.91.91,0,0,1,.42,0c0-.09,0-.19,0-.28A.07.07,0,0,1,126.47,225.16Z" fill="#000100" opacity=".1"/><path d="M130,226.51l-3.63-1.36h0a.07.07,0,0,1,0,0,20.52,20.52,0,0,0,0,2.08c0,.08,0,.15,0,.23l5,.24A1.84,1.84,0,0,0,130,226.51Z" fill="#fed16a"/><path d="M132.34,239l-.05-4.79-.61-4.83-2.27-1.44,1.15,5.93.7,5.2-.31,1.23-.1,1.32c.32,0,.45-.4.49-.68s.25-.19.25-.19.11,1.45.14,1.77a.26.26,0,0,0,.33.24l.45-.57.27-1.24-.44-2Z" fill="#c39276"/><path d="M131.67,229.36l-2.27-1.44,1.15,5.93.7,5.2-.31,1.23-.1,1.32a.33.33,0,0,0,.26-.11c.06-.75.14-1.63.27-2.38.08-.43-.3-4.09-.42-5.17a18.57,18.57,0,0,0-.57-2.81s1.39-.5,1.46-.51Z" fill="#000100" opacity=".1"/><path d="M129,227.24l.3,3.68s2.63-.52,2.78-.57l-.77-2.7Z" fill="#fed16a"/><path d="M124.68,223a2.42,2.42,0,0,0,2.09,2.21,1.84,1.84,0,0,0,1.84-1.84V221.1h-4Z" fill="#c39276"/><path d="M125.45,226.12a1.1,1.1,0,1,0,2.2,0v-2.46h-2.2Z" fill="#c39276"/><path d="M123,237.85l-.1,2.36c2.39,0,4.79,0,7.18,0l-.05-2.38Z" fill="#fed16a"/><path d="M122.94,238.71l-.13,3.51,0,17.83,1.51-.15,2-17.51.35,0,.76,17.65,1.51-.15,1.13-17.34-.09-3.83S123,238.72,122.94,238.71Z" fill="#25557e"/><path d="M124.5,221.08v1.44s.06,1.58.94,2l-.16-1.21s-.5.07-.5-1c0-.37.15-.38.26-.38s.27.24.27.24h.29v-.57h0a.56.56,0,0,1,.58-.58h2.4s.46,0,.46-1.44h-2.82S124.5,219.43,124.5,221.08Z" fill="#623f3b"/><path fill="#000100" opacity=".1" d="M122.94 238.71L122.81 242.53 122.81 259.86 123.03 259.85 123.43 239.03 130.03 238.87 130.02 238.73 122.94 238.71zM123.36 229.84L123.13 230.87 123.26 235.2 122.98 237.9 122.94 238.71 123.43 238.7 123.73 235.18 123.43 230.92 123.36 229.84zM126 224.83a1.35 1.35 0 0 0 1.62.33v-.21A1.79 1.79 0 0 1 126 224.83z"/><path fill="#000100" opacity=".1" d="M126.71 242.41L127.46 259.86 127.76 259.86 126.78 242.41 126.71 242.41zM127.77 223.1h-.49c.33.49.65.05.65.05l-.2-1.35z"/><path d="M126.56,224H127a.61.61,0,0,0,.61-.61h-.45A.61.61,0,0,0,126.56,224Z" fill="#623f3b"/><path d="M128,223.42h-.45a.61.61,0,0,0,.61.61h.45A.61.61,0,0,0,128,223.42Z" fill="#623f3b"/><path d="M125.32,260.56l-1.07-.71h-1.44a2.79,2.79,0,0,0-.23,1.5h3.69A1,1,0,0,0,125.32,260.56Z" fill="#0f7275"/><path d="M122.94,260.28a1.38,1.38,0,0,1,.08-.42h-.21a2.79,2.79,0,0,0-.23,1.5h.47a1.53,1.53,0,0,1-.05-.14A2.82,2.82,0,0,1,122.94,260.28Z" fill="#000100" opacity=".1"/><path d="M130.73,260.56l-1.67-.71h-1.6a2.79,2.79,0,0,0-.23,1.5h4.45A1,1,0,0,0,130.73,260.56Z" fill="#0f7275"/><path d="M127.76,259.86h-.3a2.79,2.79,0,0,0-.23,1.5h.85a1.52,1.52,0,0,1-.38-1.14A1.4,1.4,0,0,1,127.76,259.86Z" fill="#000100" opacity=".1"/><path fill="#0f7275" d="M122.84 238.26H130.16V239.04999999999998H122.84z"/><path d="M127,238.19h-.39a.47.47,0,0,0,0,.94H127a.47.47,0,1,0,0-.94Z" fill="#fed16a"/><path d="M121.34,233.47l1.68-.86.32-1.77-2.19-.45A11.69,11.69,0,0,0,121.34,233.47Z" fill="#ac8269"/><path d="M125.88,222.13l-1.46.24a.2.2,0,0,0-.16.23l.46,2.88a.2.2,0,0,0,.23.17l1.46-.24a.2.2,0,0,0,.16-.23l-.46-2.88A.2.2,0,0,0,125.88,222.13Z" fill="#0f7275"/><path d="M126.11,223.37c.09-.16.08-.29,0-.33s-.15,0-.15,0l-.75.21-.22.11,0-.06a2.42,2.42,0,0,0,.41-.35.25.25,0,0,0,0-.38l-.84.41-.49.67-.3.49-.32.69-.35,1.57-1.86,5.29s-.47,2.41.92,2.85c0,0,.81.27,1.33-3.31l.88-4.65A1.11,1.11,0,0,0,125,226l.27-1,.59-.3c.21-.11.35-.46.17-.43l-.73.22-.19.12.5-.63.57-.32c.16-.15.12-.26.08-.3S126.11,223.37,126.11,223.37Z" fill="#c39276"/><path d="M124.64,223l-.49.67-.3.49-.32.69-.35,1.57-1.86,5.29a3.91,3.91,0,0,0,.21,2.25c-.29-2.61.62-3.47,1.5-5.92,1.2-3.33.23-3.53,2.48-5.41l0,0Z" fill="#000100" opacity=".1"/><path fill="#000100" opacity=".1" d="M124.74 224.3L125.22 223.79 126.11 223.38 126.15 223.3 125.15 223.72 124.74 224.3z"/><path d="M170.94 242l-.61-4.83-2.27-1.44 1.15 5.93.69 5.24h0l-.3 1.21-.1 1.33c.33 0 .45-.41.49-.69s.25-.19.25-.19.11 1.46.14 1.79a.26.26 0 0 0 .33.25l.46-.57.28-1.25-.44-1.94zM159.18 242l-.05 4.79h0l-.44 2L159 250l.45.57a.26.26 0 0 0 .33-.24c0-.32.14-1.77.14-1.77s.21-.09.25.19.17.7.49.68l-.1-1.32-.31-1.23.7-5.2 1.15-5.93-2.27 1.44z" fill="#c39276"/><path d="M159.18,242l-.05,4.79h0l-.44,2L159,250l.1.12a6.19,6.19,0,0,1,.27-2.45,22.7,22.7,0,0,0,.28-3.74,31.08,31.08,0,0,1,.3-4.15,18.1,18.1,0,0,0,.35-1.8,10.53,10.53,0,0,1,.12-1.17l-.59.37Z" fill="#000100" opacity=".1"/><path d="M170.72,238.16l-.74-2.62h0l0-.05v0h0a1.86,1.86,0,0,0-1.31-1.13L165.13,233v0a.07.07,0,0,1,0,0h0l0,0,0,0h0a.07.07,0,0,1,0,0v0l-3.51,1.32a1.86,1.86,0,0,0-1.31,1.13h0v0l0,.05h0l-.74,2.62c.11,0,1.41.3,2.2.46l.06,4.37-.2,2.68h0l-.05,2.38c2.39,0,4.79,0,7.18,0l-.1-2.36h0l-.28-2.64.14-4.36C169.1,238.5,170.61,238.2,170.72,238.16Z" fill="#fed16a"/><path d="M168.49 245.66l-.28-2.64 0-.76c-2.19 0-4.39 0-6.58.06V243l-.2 2.68h0l-.05 2.38c2.39 0 4.79 0 7.18 0l-.1-2.36zM170 235.54l0-.05v0h0a1.86 1.86 0 0 0-1.31-1.13L165.13 233v0a.07.07 0 0 1 0 0h0l0 0 0 0h0a.07.07 0 0 1 0 0v0l-3.51 1.32a1.86 1.86 0 0 0-1.31 1.13h0v0l0 .05h0l-.74 2.62c.11 0 1.41.3 2.2.46l0 1.13c2.23-.07 4.47-.08 6.7-.06l0-1c.75-.15 2.26-.45 2.37-.49l-.74-2.62z" fill="#25557e"/><path d="M160.17,235.46h0v0l0,.05h0l-.74,2.62.55.12s.63-2.34.85-2.83c.34-.76,2.6-1.67,3.12-1.83a1.49,1.49,0,0,1,0-.21l-2.44.92A1.86,1.86,0,0,0,160.17,235.46Z" fill="#000100" opacity=".1"/><path d="M161.45,246.54l-.09,3.83,1.13,17.34,1.51.15.76-17.65.35,0,2,17.51,1.51.15,0-17.83-.13-3.51S161.49,246.57,161.45,246.54Z" fill="#e6dcd1"/><path d="M167.22,267.67l-1.07.71a1,1,0,0,0-1,.8h3.69a2.79,2.79,0,0,0-.23-1.5Z" fill="#0f7275"/><path d="M166.14,268.37a1,1,0,0,0-1,.8h1.15a5.78,5.78,0,0,1,1.49-1.5h-.62Z" fill="#000100" opacity=".1"/><path d="M162.86,231.14A1.84,1.84,0,0,0,164.7,233a2.42,2.42,0,0,0,2.09-2.21l0-1.86h-4Z" fill="#c39276"/><path d="M163.83,233.93a1.1,1.1,0,0,0,2.2,0v-2.46h-2.2Z" fill="#c39276"/><path d="M165.23,227.48H162.4c0,1.41.46,1.44.46,1.44h2.4a.56.56,0,0,1,.58.58h0v.57h.29s.12-.24.27-.24.26,0,.26.38c0,1-.5,1-.5,1l-.16,1.21c.88-.46.94-2,.94-2v-1.44C167,227.24,165.23,227.48,165.23,227.48Z" fill="#623f3b"/><path d="M163.83 232.76V233a1.35 1.35 0 0 0 1.62-.33A1.79 1.79 0 0 1 163.83 232.76zM163.74 229.62l-.2 1.35s.31.44.65-.05h-.49z" fill="#000100" opacity=".1"/><path d="M162.41,267.67l-1.67.71a1,1,0,0,0-1,.8h4.45a2.79,2.79,0,0,0-.23-1.5Z" fill="#0f7275"/><path d="M160.74,268.37a1,1,0,0,0-1,.8h1.75a4.79,4.79,0,0,1,.33-.44,7.56,7.56,0,0,1,1-1.07h-.48Z" fill="#000100" opacity=".1"/><path fill="#000100" opacity=".1" d="M168.53 246.52L161.45 246.54 161.35 250.38 162.49 267.71 162.71 267.66 161.81 250.06 161.88 247.04 168.53 246.52z"/><path fill="#000100" opacity=".1" d="M165.33 250.19L165.11 250.2 166.01 257.94 167.13 267.71 167.52 267.66 166.29 257.87 165.33 250.19zM161.6 238.62L161.66 242.99 161.5 245.16 161.45 246.54 161.84 246.54 162.03 242.99 161.84 237.48 161.6 238.62zM168.35 238.65L168.62 238.59 168.3 237.44 168.35 238.65zM169.1 238.5l-.48.1.6 3.06.69 5.24-.3 1.21-.1 1.33s.09.07.26-.12l.11-1.13.3-1.4-.51-5.25zM183.42 222a1.38 1.38 0 0 1 .08-.42h-.21a2.79 2.79 0 0 0-.23 1.5h.47s0-.09-.05-.14A2.82 2.82 0 0 1 183.42 222z"/><path d="M193.22,200.35h0l-.07-.2a1.46,1.46,0,0,1-1.06.34l.12.26.08,1.27.3,1.29c.31-.08.31-.52.26-.8s.18-.26.18-.26.55,1.35.67,1.64a.26.26,0,0,0,.39.13l.26-.68-.12-1.26Z" fill="#ebb9a0"/><path d="M192.48,200.6s0-.09,0-.13a1.43,1.43,0,0,1-.38,0l.12.26.08,1.27.3,1.29a.31.31,0,0,0,.11-.06,17.07,17.07,0,0,1-.18-2.29S192.5,200.69,192.48,200.6Z" fill="#000100" opacity=".1"/><path d="M183.42,200.46l-.13,3.51,0,17.83,1.51-.15,2-17.51.35,0,.76,17.65,1.51-.15,1.13-17.34-.09-3.83S183.44,200.47,183.42,200.46Z" fill="#0f7275"/><path fill="#000100" opacity=".1" d="M183.42 200.46L183.28 204.27 183.29 221.6 183.5 221.6 183.91 200.77 190.5 200.61 190.5 200.48 183.42 200.46zM183.83 191.58L183.6 192.62 183.74 196.95 183.45 199.64 183.42 200.46 183.91 200.45 184.21 196.92 183.91 192.67 183.83 191.58z"/><path fill="#000100" opacity=".1" d="M187.19 204.15L187.94 221.6 188.24 221.6 187.29 204.15 187.19 204.15z"/><path d="M191.77,189.39h0a1.86,1.86,0,0,0-1.31-1.13L187,186.94v0a.08.08,0,0,1,0,0h0l0,0,0,0h0a.07.07,0,0,1,0,0v0l-3.51,1.32a1.86,1.86,0,0,0-1.31,1.13h0l-.81,6.27-.17,5c.38,0,.92,0,1.29,0l.58-4.52.71-3.53.14,4.3-.28,2.64h0l-.1,2.36c2.39,0,4.79,0,7.18,0l-.05-2.38h0l-.2-2.68.07-3.52c0,.5.57,3.1.57,3.1l1.21,4.27,1.26-.26-.81-4.78Z" fill="#25557e"/><path d="M190.41 193a3.37 3.37 0 0 1-.06.43c0 .5.57 3.1.57 3.1l1.21 4.27.38-.08c-.35-1.07-.62-2.11-.88-3.15C191.63 197.53 190.44 193.1 190.41 193zM187 186.92a.07.07 0 0 1 0 0h0l0 0 0 0h0a.07.07 0 0 1 0 0v0l-3.51 1.32a1.86 1.86 0 0 0-1.31 1.13h0l-.81 6.27-.17 5h.4s.23-5.44.37-6.27c.12-.67.7-5 1.19-5.38a13 13 0 0 1 2.16-1c.65-.28 1.23-.69 1.87-1l.11 0-.16-.06z" fill="#000100" opacity=".1"/><path fill="#000100" opacity=".1" d="M183.6 192.65L183.74 196.95 183.46 199.59 183.35 201.95 183.95 201.93 183.95 199.56 184.18 196.75 183.68 191.84 183.6 192.65z"/><path fill="#e6dcd1" d="M192.16 200.75L192.2 200.91 193.4 200.63 193.35 200.51 192.16 200.75z"/><path d="M185.8 222.31l-1.07-.71h-1.44a2.79 2.79 0 0 0-.23 1.5h3.69A1 1 0 0 0 185.8 222.31zM191.2 222.31l-1.67-.71h-1.6a2.79 2.79 0 0 0-.23 1.5h4.45A1 1 0 0 0 191.2 222.31z" fill="#0f7275"/><path d="M188.24,221.6h-.3a2.79,2.79,0,0,0-.23,1.5h.85a1.52,1.52,0,0,1-.38-1.14A1.4,1.4,0,0,1,188.24,221.6Z" fill="#000100" opacity=".1"/><path d="M192,199.44v-1.66h.94l-.05-.3H192v-1.66h.61l0-.09,0-.21H192v-1.66h.35l0-.3H192v-1.66h.1l0-.3H192v-.52l-.21-1.67h0a1.68,1.68,0,0,0-.09-.19v.42H190v-1.53l-.3-.11v1.64h-1.66V188h1.6l-.81-.3h-.79v-.3l-.3-.11v.41h-1.66v-.44l-.3.11v.33h-.88l-1.09.41v1.56h-1.66v-.56a1.75,1.75,0,0,0-.17.33h0l-.13,1v1.18h-.15l0,.3h.19v1.66h-.41l0,.3h.45v1.66h-.66l0,.15v.15h.69v1.66h-.74v.3h.75v1.66h-.81v.3h.82v1h.3v-1h.26l0-.3h-.3v-1.66h.51l0-.3h-.55v-1.66H183l.06-.3h-.85v-1.66h1.19l.06-.3h-1.25v-1.66h1.66v1.66h-.2v.3h.19v1.66h-.14v.3h.13v1.66h-.15l0,.3h.18v1.66h-.35l0,.15h0v.15h.38v1.66h-.45v.3h.46V202h.3v-.25h1.66V202h.3v-.25h1.66V202h.3v-.26h1.66V202h.3v-.27h.5v-.3H190v-1.66h.46v-.14h0v-.16H190v-1.66h.32l0-.3H190v-1.66h.28v-.3H190v-1.66h.32v-.3H190v-1.66h1.66v1.66h-1.33c0,.08,0,.19,0,.3h1.29v1.66h-1l.06.3h.91v1.66h-.49l.09.3h.4v1.42l.3,1.06v-.51h1.28l-.05-.3Zm-8.16-7.86h-1.66v-1.66h1.66Zm2,9.82h-1.66v-1.66h1.66Zm0-2h-1.66v-1.66h1.66Zm0-2h-1.66v-1.66h1.66Zm0-2h-1.66v-1.66h1.66Zm0-2h-1.66v-1.66h1.66Zm0-2h-1.66v-1.66h1.66Zm0-2h-1.66V188h1.66Zm2,11.78h-1.66v-1.66h1.66Zm0-2h-1.66v-1.66h1.66Zm0-2h-1.66v-1.66h1.66Zm0-2h-1.66v-1.66h1.66Zm0-2h-1.66v-1.66h1.66Zm0-2h-1.66v-1.66h1.66Zm0-2h-1.66V188h1.66Zm2,11.78h-1.66v-1.66h1.66Zm0-2h-1.66v-1.66h1.66Zm0-2h-1.66v-1.66h1.66Zm0-2h-1.66v-1.66h1.66Zm0-2h-1.66v-1.66h1.66Zm0-2h-1.66v-1.66h1.66Zm2,0H190v-1.66h1.66Z" fill="#25557e"/><path d="M185.15,184.71a2.42,2.42,0,0,0,2.09,2.21,1.84,1.84,0,0,0,1.84-1.84v-2.23h-4Z" fill="#ebb9a0"/><path d="M185.92,187.91c0,.58,1.76,1.24,2.2,0v-2.5h-2.2Z" fill="#ebb9a0"/><path d="M185,182.82v1.44s.06,1.58.94,2l-.16-1.21s-.5.07-.5-1c0-.37.15-.38.26-.38s.27.24.27.24h.29v-.57h0a.56.56,0,0,1,.58-.58h2.4s.46,0,.46-1.44h-2.82S185,181.18,185,182.82Z" fill="#0f7275"/><path d="M186.5 186.57a1.35 1.35 0 0 0 1.62.33v-.21A1.79 1.79 0 0 1 186.5 186.57zM188.25 184.85h-.49c.33.49.65.05.65.05l-.2-1.35z" fill="#000100" opacity=".1"/><path fill="#e6dcd1" d="M185.38 187.45L186.49 189.43 187.3 188.59 185.88 186.84 185.38 187.45zM187.3 188.59L188.15 189.39 188.64 187.55 188.17 186.91 187.3 188.59z"/><path d="M182.21,200.87h0v0a5.14,5.14,0,0,1-1.11,0l-.44,1.94.07.51a.28.28,0,0,0,.16.23l.54.27h.06c.12,0,.55,0,.57-.32s-.37,0-.38-.26a1.17,1.17,0,0,1,.2-.65s.21-.09.25.19.17.7.49.69l-.1-1.33Z" fill="#ebb9a0"/><path d="M181.9,203.1H181a.78.78,0,0,0-.78.78v.94a.15.15,0,1,0,.3,0v-.94a.48.48,0,0,1,.48-.48h.94a.48.48,0,0,1,.48.48v.94a.15.15,0,0,0,.3,0v-.94A.78.78,0,0,0,181.9,203.1Z" fill="#623f3b"/><path d="M181.67,203.18a1.16,1.16,0,0,1,.13-.54l-.73,0-.39,0v.06l.07.51a.28.28,0,0,0,.16.23l.53.27h.07c.13,0,.54,0,.57-.32C182.05,203.44,181.68,203.46,181.67,203.18Z" fill="#ebb9a0"/><path d="M181.38,200.83l-.28,0-.44,1.94.07.51a.28.28,0,0,0,.16.23l.35.18a3.14,3.14,0,0,1-.06-1.28A7,7,0,0,1,181.38,200.83Z" fill="#000100" opacity=".1"/><rect x="177.21" y="204.25" width="8.45" height="5.99" rx=".29" ry=".29" fill="#623f3b"/><path d="M185.37,204.25H177.5a.29.29,0,0,0-.29.29v1a1.54,1.54,0,0,0,1.54,1.54h5.37a1.54,1.54,0,0,0,1.54-1.54v-1A.29.29,0,0,0,185.37,204.25Z" fill="#0f7275"/><rect x="180.89" y="206.7" width="1.51" height=".36" rx=".12" ry=".12" fill="#fed16a"/><path d="M189.52,183.48h-.76c-.1,0-.43.14-.43.36a.69.69,0,0,0,.69.69.78.78,0,0,0,.78-.78A.27.27,0,0,0,189.52,183.48Z" fill="#623f3b"/><path d="M189.42,183.59h-.6c-.08,0-.34.11-.34.28a.54.54,0,0,0,.54.54.61.61,0,0,0,.61-.61A.21.21,0,0,0,189.42,183.59Z" fill="#25557e"/><path d="M187.68,183.48h-.76a.27.27,0,0,0-.27.27.78.78,0,0,0,.78.78.69.69,0,0,0,.69-.69C188.11,183.62,187.78,183.48,187.68,183.48Z" fill="#623f3b"/><path d="M187.62,183.59H187a.21.21,0,0,0-.21.21.61.61,0,0,0,.61.61.54.54,0,0,0,.54-.54C188,183.7,187.7,183.59,187.62,183.59Z" fill="#25557e"/><path d="M187.92 183.67l.11.08a.63.63 0 0 1 .24 0 .66.66 0 0 1 .19 0l.11-.08a.72.72 0 0 0-.3-.06A.67.67 0 0 0 187.92 183.67zM186.01 183.66L186.76 183.74 186.76 183.59 186.01 183.59 186.01 183.66z" fill="#623f3b"/><path fill="#ebb9a0" d="M156.83 46.1L157.48 49.06M78.47 141.34L79.12 144.3"/><path d="M55.7,187.39H54.56a1.89,1.89,0,0,0-1.89,1.89l-.15,6.29a1.35,1.35,0,0,0,1.35,1.35h2.37a1.35,1.35,0,0,0,1.35-1.35v-6.29A1.89,1.89,0,0,0,55.7,187.39Z" fill="#623f3b"/><path d="M59.64 201.61l-.47-5.78-2-.21 1 6.2 1.44 4.7h0l-.31 1.09-.13 1.21c.3 0 .42-.36.47-.61s.23-.17.23-.17.06 1.34.08 1.63a.24.24 0 0 0 .3.23l.43-.51.28-1.13-.49-1.81zM51.92 217.18L49.44 225.39 50.58 225.66 54.13 217.19 54.51 212.22 51.48 212.22 51.92 217.18z" fill="#c39276"/><path d="M51.92,217.18l-2.48,8.2.19,0c.27-.57,2.84-8.39,2.84-8.39s.13-4.29.15-4.23l1.89-.59h-3Z" fill="#000100" opacity=".1"/><path fill="#c39276" d="M55.68 212.22L57.34 217.04 57.94 226.12 59.15 225.97 59.38 217.08 58.7 212.22 55.68 212.22z"/><path d="M59.15,195.41,59,195.1a1.73,1.73,0,0,0-1-.85l-2.11-.74a1.22,1.22,0,0,1-.77.25,1.2,1.2,0,0,1-.82-.29l-2.19.77a1.77,1.77,0,0,0-1.17,1.05l-1.7,5.51s-.44,4.72-.44,4.72l1.14.3,1-4.41A29.6,29.6,0,0,1,52.35,198l.33,4.85-1.1,2.95a10.51,10.51,0,0,0-.22,2.41l.12,4h7.25l-.3-4.4a15.13,15.13,0,0,0-.14-2.06l-.76-2.88.17-3.32a1.2,1.2,0,0,0,.55-1v-.08s0-.31-.08-.73a1.37,1.37,0,0,1,1.18,0l-.21-2.26Z" fill="#25557e"/><path d="M58.29,205.76a21.37,21.37,0,0,0-.78-2.86l-4.83,0-1.1,2.95a10.51,10.51,0,0,0-.22,2.41l.12,4h7.25l-.3-4.4A20.35,20.35,0,0,0,58.29,205.76Z" fill="#e6dcd1"/><path d="M53,226.91a9.12,9.12,0,0,1-1.09-.32l-1-1.3-1.29-.49a2.37,2.37,0,0,0-.68,1.45L51,227.43a1.56,1.56,0,0,0,.47.19h1.85A.53.53,0,0,0,53,226.91Z" fill="#623f3b"/><path d="M49.57,224.8a2.37,2.37,0,0,0-.68,1.45l1,.56a2.79,2.79,0,0,1,.25-1.78Z" fill="#000100" opacity=".1"/><path d="M61.91,226.53s-1-.06-1.11-.09l-1.5-.6-1.39.12a2.37,2.37,0,0,0,.09,1.61h2.46a1.57,1.57,0,0,0,.51-.06L62.6,227A.53.53,0,0,0,61.91,226.53Z" fill="#623f3b"/><path d="M57.91 226a2.37 2.37 0 0 0 .09 1.61h1.07a4.85 4.85 0 0 1-.56-1.66zM55.68 212.22L57.34 217.04 57.91 225.96 58.1 225.95 57.76 217.06 56.4 212.75 58.74 212.22 55.68 212.22z" fill="#000100" opacity=".1"/><path d="M49.18,207.61h-1a.81.81,0,0,0-.81.81v1h.32v-1a.5.5,0,0,1,.5-.5h1a.5.5,0,0,1,.5.5v1a.16.16,0,1,0,.32,0v-1A.81.81,0,0,0,49.18,207.61Z" fill="#0f7275"/><path d="M49.09,207.7a.66.66,0,0,1,.12-.23,1.48,1.48,0,0,1-.31,0,1.25,1.25,0,0,1-.87-.31l0,0a1.36,1.36,0,0,0,.14.73l.72.35s.35.12.5-.33a.45.45,0,0,0-.16,0C49.12,207.93,49,207.87,49.09,207.7Z" fill="#ebb9a0"/><rect x="44.37" y="208.65" width="8.45" height="5.99" rx=".29" ry=".29" fill="#623f3b"/><path d="M52.52,208.65H44.66a.29.29,0,0,0-.29.29v1a1.54,1.54,0,0,0,1.54,1.54h5.37a1.54,1.54,0,0,0,1.54-1.54v-1A.29.29,0,0,0,52.52,208.65Z" fill="#0f7275"/><rect x="48.04" y="211.11" width="1.51" height=".36" rx=".12" ry=".12" fill="#fed16a"/><path d="M51.93,204.9l1.45.22s1.56.14,1.81-.7l.08-2-2.59.41Z" fill="#25557e"/><path d="M59.3,205.39l.35,1.13h0l-.31,1.09-.13,1.21a.29.29,0,0,0,.18,0s.42-1.83.51-2.17l-.3-1.29A.84.84,0,0,1,59.3,205.39Z" fill="#000100" opacity=".1"/><path d="M55.87,193.52a1.22,1.22,0,0,1-.77.25,1.2,1.2,0,0,1-.82-.29l-.55.19a.65.65,0,0,1,.11.61,4.68,4.68,0,0,0,.25,2.35,4.24,4.24,0,0,0,1.21,1.66c.07-.33.88-1.35,1.16-2A3.79,3.79,0,0,1,57,193.9Z" fill="#25557e"/><path d="M50.92,195.29l-1.7,5.51s-.44,4.72-.44,4.72l.67.18a24.1,24.1,0,0,1,.15-4.16,34.6,34.6,0,0,1,1.5-4.73,5,5,0,0,1,2.52-3.11l-1.54.54A1.77,1.77,0,0,0,50.92,195.29Z" fill="#000100" opacity=".1"/><path d="M57.53,202.88l-2.59-.41.41,2c.37.9,1.48.7,1.48.7l1.28-.19-.19-.79Z" fill="#25557e"/><path d="M53.5,191.5a1.78,1.78,0,1,0,3.55,0v-2.14H53.5Z" fill="#c39276"/><path d="M54,194.19a1.06,1.06,0,0,0,2.12,0v-2.37H54Z" fill="#c39276"/><path fill="#623f3b" d="M53.21 192.07L53.75 193.02 54 193.53 54.25 188.83 53.19 189.28 53.21 192.07z"/><path d="M53.58,189.69l.59.23a.54.54,0,0,1,.56-.56V189H53.58Z" fill="#623f3b"/><path d="M54.64 193a1.23 1.23 0 0 0 1.47.3v-.19A1.63 1.63 0 0 1 54.64 193zM56.13 191.51h-.49c.33.49.65.05.65.05l-.2-1.35z" fill="#000100" opacity=".1"/><path fill="#25557e" d="M59.36 197.67L59.15 195.41 57.54 197.84 58.2 201.81 59.55 206.2 60.43 206 59.64 201.61 59.36 197.67z"/><path d="M58.11 197.55h0l-.57.28.66 4 1.35 4.39.45-.1c-.32-1.31-.86-2.56-1.21-3.87A21.11 21.11 0 0 1 58.11 197.55zM52.84 198.26l-.5-.23.34 4.85-1.1 2.95a10.51 10.51 0 0 0-.22 2.41l.12 4h.59s-.09-3.11 0-4.17a18.59 18.59 0 0 1 1.14-5.16h0v0h0v0l0-3.39-.29-.53C52.9 198.62 52.87 198.38 52.84 198.26z" fill="#000100" opacity=".1"/><path d="M48.85,205.54v0L48,207.22a1.36,1.36,0,0,0,.14.73l.72.35s.35.09.41-.21a.52.52,0,0,0-.08-.09.25.25,0,0,1-.12-.3c.11-.35.29-.32.29-.32a.21.21,0,0,1,.08.13c.05.26.08.68.39.7l0-1.27-.16-1.17Z" fill="#c39276"/><path d="M57.41,195.64s-.71,0-1.58.09a1,1,0,0,1,.18.55,2.71,2.71,0,0,1-.08.59l0,.21s0,0,0,.06c0,.41-.39,1.14-.6,1.14a1.92,1.92,0,0,1-.85-1.14,1.82,1.82,0,0,1,.06-.48.72.72,0,0,1-.26-.38.7.7,0,0,1,0-.39c-.86.13-1.57.3-1.57.55l-.09,2.06a1.14,1.14,0,0,0,1.08,1.18h3.47a1.14,1.14,0,0,0,1.08-1.18v-.08S58,195.64,57.41,195.64Z" fill="#25557e"/><path d="M54 193.54l-1.37.52.87 1.2-.69.58 2.46 2.57-.78-2.79A15.18 15.18 0 0 1 54 193.54zM56.12 193.54a10.11 10.11 0 0 1-.26 2.11l-.58 2.76 2.08-2.57-.69-.58.87-1.2z" fill="#6ba96b"/><path fill="#25557e" d="M55.19 197.38H55.36V204.42H55.19z"/><path d="M49.31 205.74s0 0 0 0zM48.85 205.54v0L48 207.22a1.36 1.36 0 0 0 .14.73l.53.26a1.31 1.31 0 0 1-.1-1 7 7 0 0 1 .71-1.42c0-.09 0-.09 0-.08v-.08C49.11 205.6 49 205.58 48.85 205.54z" fill="#000100" opacity=".1"/><path d="M57.57,189.92h-.91c-.12,0-.52.17-.52.43a.82.82,0,0,0,.82.82.93.93,0,0,0,.93-.93A.32.32,0,0,0,57.57,189.92Z" fill="#df3d58"/><path d="M57.46,190h-.72c-.1,0-.41.13-.41.34A.65.65,0,0,0,57,191a.73.73,0,0,0,.73-.73A.25.25,0,0,0,57.46,190Z" fill="#785753"/><path d="M55.37,189.92h-.91a.32.32,0,0,0-.32.32.93.93,0,0,0,.93.93.82.82,0,0,0,.82-.82C55.89,190.08,55.5,189.92,55.37,189.92Z" fill="#df3d58"/><path d="M55.3,190h-.72a.25.25,0,0,0-.25.25.73.73,0,0,0,.73.73.65.65,0,0,0,.65-.65C55.7,190.18,55.39,190,55.3,190Z" fill="#785753"/><path d="M55.66 190.14l.13.09a.75.75 0 0 1 .28 0 .78.78 0 0 1 .23 0l.13-.1a.86.86 0 0 0-.36-.07A.8.8 0 0 0 55.66 190.14zM53.38 190.14L54.27 190.23 54.27 190.05 53.38 190.05 53.38 190.14z" fill="#df3d58"/></g></g></svg>