<svg xmlns="http://www.w3.org/2000/svg" viewBox="0 0 280.7 280.7"><g><g><circle cx="140.35" cy="140.35" r="140.35" fill="#fff"/><path d="M275.75,103.46,165.11,62.23,132.72,230,118,233.57l39.61,46.07A140.45,140.45,0,0,0,275.75,103.46Z" fill="#ededed"/><path d="M140.13,280.7a140.07,140.07,0,0,0,109.08-52l-.23-.8h0s-.12-.43-.36-1.13l-.16-.56h0c-1.79-4.81-8.44-18.58-27-23.37L149,175.63c0-.16,0-.31-.05-.47a1.53,1.53,0,0,1,0-.25l-.46-.17-.93.35-.92-.35-.46.17a1.45,1.45,0,0,1,0,.25c0,.15,0,.31-.05.47L73.75,202.8c-18.53,4.79-25.17,18.56-27,23.37h0l-.16.56c-.24.7-.36,1.12-.36,1.12h0l-3.78,13.29A139.88,139.88,0,0,0,140.13,280.7Z" fill="#25547d"/><path d="M73.75,202.8c-18.53,4.79-25.17,18.56-27,23.37h0l-.16.56c-.24.7-.36,1.12-.36,1.12h0l-3.78,13.29q4.54,4.39,9.45,8.37c3-10.22,6-19.71,7.76-23.62,7-15.58,53.68-34.44,64.34-37.76a30.66,30.66,0,0,1,.06-4.23Z" fill="#000100" opacity=".1"/><path d="M102.42,137.09a38,38,0,0,0,38,38c21,0,43.13-24.65,43.13-45.64l.4-38.28H102.42Z" fill="#c39276"/><path d="M122.37,194.7a22.65,22.65,0,0,0,45.29,0V144H122.37Z" fill="#c39276"/><path d="M151.22,61.52H93c0,29.12,9.43,29.62,9.43,29.62h49.5c12.43,0,12,12,12,12l.22-.08,0,.08V114.9h6.07s2.43-4.85,5.66-4.85c2.4,0,5.46.2,5.46,7.89,0,21-10.31,19.61-10.31,19.61l-3.3,24.94c18.2-9.5,19.48-42.12,19.48-42.12V90.64C187.21,56.67,151.22,61.52,151.22,61.52Z" fill="#81452b"/><path d="M122.37 170.44v4.31s17.52 9.84 33.43-6.74C155.8 168 137.33 179.06 122.37 170.44zM120.49 105.74l-4 27.77s6.47 9 13.34-1.08H119.68z" fill="#000100" opacity=".1"/></g></g></svg>